SplineFontDB: 2.0
FontName: THKodchasal-BoldItalic
FullName: THKodchasal-BoldItalic
FamilyName: TH Kodchasal
Weight: Bold
Copyright: Copyright (c) 2006 by Department of Intellectual Property (DIP), Ministry of Commerce and Software Industry Promotion Agency (Public Organization) (SIPA). All rights reserved.
Version: 1.1
ItalicAngle: -12
UnderlinePosition: -35
UnderlineWidth: 30
Ascent: 800
Descent: 200
XUID: [1021 375 425136265 16286807]
FSType: 0
OS2Version: 3
OS2_WeightWidthSlopeOnly: 0
OS2_UseTypoMetrics: 1
CreationTime: 1157457032
ModificationTime: 1204793039
PfmFamily: 17
TTFWeight: 700
TTFWidth: 5
LineGap: 60
VLineGap: 0
Panose: 2 0 5 6 0 0 0 2 0 4
OS2TypoAscent: 0
OS2TypoAOffset: 1
OS2TypoDescent: 0
OS2TypoDOffset: 1
OS2TypoLinegap: 0
OS2WinAscent: 18
OS2WinAOffset: 1
OS2WinDescent: 4
OS2WinDOffset: 1
HheadAscent: -111
HheadAOffset: 1
HheadDescent: 316
HheadDOffset: 1
OS2SubXSize: 700
OS2SubYSize: 650
OS2SubXOff: 0
OS2SubYOff: 140
OS2SupXSize: 700
OS2SupYSize: 650
OS2SupXOff: 0
OS2SupYOff: 477
OS2StrikeYSize: 30
OS2StrikeYPos: 250
OS2FamilyClass: 773
OS2Vendor: 'IPTH'
Lookup: 4 0 0 "'frac' Diagonal Fractions in Latin lookup 0"  {"'frac' Diagonal Fractions in Latin lookup 0 subtable"  } ['frac' ('latn' <'dflt' > ) ]
Lookup: 6 0 0 "'liga' Standard Ligatures in Latin lookup 1"  {"'liga' Standard Ligatures in Latin lookup 1 subtable"  } ['liga' ('latn' <'dflt' > ) ]
Lookup: 6 0 0 "'liga' Standard Ligatures in Latin lookup 2"  {"'liga' Standard Ligatures in Latin lookup 2 subtable"  } ['liga' ('latn' <'dflt' > ) ]
Lookup: 6 0 0 "'liga' Standard Ligatures in Latin lookup 3"  {"'liga' Standard Ligatures in Latin lookup 3 subtable"  } ['liga' ('latn' <'dflt' > ) ]
Lookup: 6 0 0 "'liga' Standard Ligatures in Latin lookup 4"  {"'liga' Standard Ligatures in Latin lookup 4 subtable"  } ['liga' ('latn' <'dflt' > ) ]
Lookup: 6 0 0 "'liga' Standard Ligatures in Latin lookup 5"  {"'liga' Standard Ligatures in Latin lookup 5 subtable"  } ['liga' ('latn' <'dflt' > ) ]

StartChar: .notdef
Encoding: 65536 -1 0
Width: 736
VWidth: 1473
Flags: W
HStem: 0 52<154 603> 972 52<350 799>
Fore
603 52 m 1
 799 972 l 1
 350 972 l 1
 154 52 l 1
 603 52 l 1
642 0 m 1
 93 0 l 1
 311 1024 l 1
 860 1024 l 1
 642 0 l 1
EndSplineSet
EndChar
StartChar: numbersign
Encoding: 35 35 4
Width: 698
VWidth: 1473
Flags: W
HStem: -9 21G<180 195.5 393 405.5> 211 75<142.774 170 170 228 332 443 543 599.175> 448 76<230.991 316 420 527 630 708.305> 700 20G<436.5 462.5 645.5 671.5>
Fore
219 475 m 0
 219 486 232 524 283 524 c 2
 344 524 l 1
 401 675 l 2
 406 688 418 720 455 720 c 0
 470 720 481 714 481 697 c 0
 481 688 477 675 475 670 c 2
 420 524 l 1
 554 524 l 1
 610 675 l 2
 615 688 627 720 664 720 c 0
 679 720 690 715 690 698 c 0
 690 688 686 676 684 670 c 2
 630 524 l 1
 680 524 l 2
 696 524 719 518 719 498 c 0
 719 481 705 448 655 448 c 2
 602 448 l 1
 543 286 l 1
 596 286 l 2
 612 286 636 280 636 259 c 0
 636 247 628 236 616 224 c 0
 607 215 593 211 572 211 c 2
 519 211 l 1
 454 38 l 2
 439 -6 409 -9 402 -9 c 0
 384 -9 375 4 375 20 c 0
 375 29 378 39 380 43 c 2
 443 211 l 1
 304 211 l 1
 239 38 l 2
 226 0 204 -9 187 -9 c 256
 173 -9 160 -4 160 15 c 0
 160 23 163 38 165 43 c 2
 228 211 l 1
 170 211 l 2
 141 211 130 220 130 234 c 0
 130 244 140 286 195 286 c 2
 255 286 l 1
 316 448 l 1
 260 448 l 2
 242 448 219 454 219 475 c 0
393 448 m 1
 332 286 l 1
 468 286 l 1
 527 448 l 1
 393 448 l 1
EndSplineSet
EndChar
StartChar: dollar
Encoding: 36 36 5
Width: 648
VWidth: 1473
Flags: W
HStem: -4 113<229.224 276 382 460.079> 299 112<288.938 341 446 517.97> 605 112<327.598 406 511 571.486> 777 20G<475 498>
VStem: 139 109<443.705 543.602> 548 115<170.786 272.591>
Fore
732 572 m 0
 732 542 702 506 665 506 c 0
 655 506 631 509 622 535 c 0
 607 575 550 600 488 605 c 1
 446 411 l 1
 619 401 663 326 663 255 c 0
 663 202 633 21 358 -6 c 1
 350 -43 l 2
 345 -64 325 -84 300 -84 c 256
 279 -84 267 -69 267 -52 c 0
 267 -49 267 -46 268 -43 c 2
 276 -4 l 1
 123 12 67 101 67 142 c 0
 67 178 108 205 138 205 c 0
 150 205 171 202 179 178 c 0
 193 141 247 117 300 109 c 1
 341 303 l 1
 251 313 139 357 139 464 c 0
 139 565 228 701 429 717 c 1
 438 756 l 2
 442 777 463 797 487 797 c 256
 509 797 521 782 521 764 c 0
 521 761 521 759 520 756 c 2
 511 717 l 1
 667 708 732 619 732 572 c 0
406 605 m 1
 266 596 248 509 248 485 c 0
 248 438 299 422 365 414 c 1
 406 605 l 1
382 106 m 1
 425 112 548 131 548 231 c 0
 548 288 480 293 423 299 c 1
 382 106 l 1
EndSplineSet
EndChar
StartChar: percent
Encoding: 37 37 6
Width: 696
VWidth: 1473
Flags: W
HStem: 3 75<472.458 572.456> 224 75<494.042 596.01> 446 76<250.097 351.865> 667 75<270.542 376.108>
VStem: 163 74<534.495 632.109> 384 75<87.9717 192.351 556.357 655.691> 607 80<111.774 211.989>
Fore
163 563 m 0
 163 650 244 742 347 742 c 256
 421 742 466 691 466 626 c 0
 466 530 375 446 284 446 c 256
 218 446 163 491 163 563 c 0
103 -32 m 0
 88 -32 76 -21 76 -6 c 0
 76 3 79 9 85 16 c 2
 688 742 l 2
 697 752 707 758 717 758 c 0
 732 758 742 748 742 734 c 0
 743 726 741 718 734 710 c 2
 133 -16 l 2
 123 -26 113 -32 103 -32 c 0
384 118 m 0
 384 215 476 299 566 299 c 256
 632 299 687 254 687 183 c 0
 687 82 590 3 503 3 c 0
 429 3 384 52 384 118 c 0
329 667 m 0
 278 667 237 622 237 579 c 0
 237 544 264 522 298 522 c 0
 351 522 387 572 387 612 c 0
 387 645 362 667 329 667 c 0
549 224 m 0
 497 224 459 175 459 135 c 0
 459 104 482 78 518 78 c 256
 562 78 607 120 607 167 c 0
 607 201 583 224 549 224 c 0
EndSplineSet
EndChar
StartChar: ampersand
Encoding: 38 38 7
Width: 799
VWidth: 1473
Flags: W
HStem: -6 108<265.655 435.879> 656 89<427.497 560.778>
VStem: 105 123<140.374 271.539> 262 125<510.915 619.487> 575 112<546.636 639.903>
Fore
761 66 m 0
 761 26 721 -1 687 -1 c 0
 657 -1 646 20 641 24 c 1
 586 94 l 1
 528 58 l 2
 453 10 372 -6 311 -6 c 0
 184 -6 105 76 105 179 c 0
 105 284 189 390 303 442 c 1
 271 490 262 521 262 544 c 0
 262 619 341 745 519 745 c 0
 580 744 687 718 687 617 c 0
 687 553 646 458 482 410 c 1
 603 271 l 1
 664 360 660 428 720 428 c 0
 744 428 765 410 765 380 c 0
 765 345 705 233 671 190 c 1
 740 100 l 2
 752 85 761 81 761 66 c 0
446 478 m 0
 467 478 575 533 575 598 c 0
 575 623 557 656 500 656 c 0
 437 656 387 618 387 567 c 0
 387 514 443 478 446 478 c 0
361 367 m 1
 273 332 228 264 228 200 c 0
 228 128 293 102 334 102 c 0
 438 102 511 169 524 184 c 1
 361 367 l 1
EndSplineSet
EndChar
StartChar: quotesingle
Encoding: 39 39 8
Width: 263
VWidth: 1473
Flags: W
HStem: 436 283<236.75 272.125>
VStem: 181 146<480 672 480 480>
Fore
286 719 m 0
 318 719 327 694 327 672 c 0
 327 665 326 659 325 653 c 2
 292 501 l 2
 280 443 241 436 226 436 c 0
 191 436 181 457 181 480 c 0
 181 487 182 494 183 501 c 2
 216 653 l 2
 223 685 241 719 286 719 c 0
EndSplineSet
EndChar
StartChar: parenleft
Encoding: 40 40 9
Width: 441
VWidth: 1473
Flags: W
VStem: 174 113<-102.26 206.388>
Fore
453 674 m 2
 384 543 287 263 287 -10 c 0
 287 -83 294 -123 293 -125 c 1
 294 -127 294 -137 293 -143 c 0
 285 -181 239 -193 227 -193 c 0
 207 -193 183 -162 183 -146 c 2
 181 -143 174 -102 174 -32 c 0
 174 341 338 692 377 739 c 0
 393 758 412 771 430 771 c 0
 461 771 477 754 477 731 c 0
 477 723 474 713 470 704 c 2
 453 674 l 2
EndSplineSet
EndChar
StartChar: parenright
Encoding: 41 41 10
Width: 441
VWidth: 1473
Flags: W
VStem: 280 110<369.545 715.608 673.139 728.607>
Fore
280 603 m 0
 280 677 272 702 274 704 c 1
 268 715 283 771 340 771 c 0
 387 771 390 708 390 604 c 0
 390 235 224 -112 199 -146 c 0
 186 -165 155 -193 133 -193 c 0
 124 -193 88 -185 88 -153 c 0
 88 -142 95 -127 97 -125 c 1
 187 28 280 333 280 603 c 0
EndSplineSet
EndChar
StartChar: asterisk
Encoding: 42 42 11
Width: 674
VWidth: 1473
Flags: W
HStem: 326 409<409 496 409 496 496 496>
VStem: 256 394<429 631 342 429>
Fore
650 631 m 0
 650 584 564 564 508 530 c 1
 549 498 611 483 611 444 c 0
 611 415 576 396 557 396 c 0
 550 396 543 397 536 401 c 1
 514 420 491 443 472 466 c 1
 467 414 l 2
 466 398 463 381 460 365 c 0
 455 344 432 326 409 326 c 256
 390 326 375 340 375 357 c 0
 375 366 382 394 385 402 c 2
 405 466 l 1
 360 433 l 2
 308 395 301 395 292 395 c 0
 271 395 256 409 256 429 c 0
 256 450 273 466 280 470 c 2
 336 500 l 2
 354 509 373 519 397 530 c 1
 378 541 363 552 349 561 c 2
 306 591 l 2
 299 597 296 605 296 614 c 0
 296 646 329 666 351 666 c 0
 371 666 380 645 432 595 c 1
 440 675 441 735 496 735 c 0
 512 735 531 729 531 706 c 0
 531 694 520 656 516 644 c 2
 499 594 l 1
 515 607 529 618 544 628 c 2
 591 660 l 1
 600 664 609 666 616 666 c 0
 636 666 650 648 650 631 c 0
EndSplineSet
EndChar
StartChar: plus
Encoding: 43 43 12
Width: 720
VWidth: 1473
Flags: W
HStem: 12 489<361 464 361 464 464 464> 200 109<155.171 345 478 666.852>
Fore
137 242 m 0x40
 137 271 156 309 216 309 c 2
 368 309 l 1x40
 395 436 l 2
 401 465 420 501 464 501 c 0x80
 498 501 507 478 507 455 c 0
 507 449 506 442 505 436 c 2
 478 309 l 1
 632 309 l 2
 658 309 687 300 687 269 c 0
 687 251 675 200 609 200 c 2
 455 200 l 1x40
 429 78 l 2
 416 19 379 12 361 12 c 0x80
 327 12 316 33 316 56 c 0
 316 64 317 71 319 78 c 2
 345 200 l 1
 193 200 l 2
 166 200 137 209 137 242 c 0x40
EndSplineSet
EndChar
StartChar: comma
Encoding: 44 44 13
Width: 346
VWidth: 1473
Flags: W
HStem: -152 319<75 203>
VStem: 41 239<-124 83>
Fore
280 83 m 0
 280 -47 133 -152 75 -152 c 0
 55 -152 41 -139 41 -124 c 0
 41 -84 121 -100 178 -9 c 1
 172 -9 169 -10 163 -10 c 0
 117 -10 92 21 92 59 c 0
 92 117 153 167 203 167 c 0
 236 167 280 147 280 83 c 0
EndSplineSet
EndChar
StartChar: hyphen
Encoding: 45 45 14
Width: 604
VWidth: 1473
Flags: W
HStem: 200 109<153.744 555.394 213 498 213 213>
VStem: 135 440<219.518 289.384>
Fore
135 242 m 0
 135 282 168 309 213 309 c 2
 521 309 l 2
 546 309 575 300 575 269 c 0
 575 245 559 200 498 200 c 2
 190 200 l 2
 164 200 135 209 135 242 c 0
EndSplineSet
EndChar
StartChar: period
Encoding: 46 46 15
Width: 335
VWidth: 1473
Flags: W
HStem: -15 180<139.388 228.612>
VStem: 92 184<32.7285 116.175>
Fore
276 94 m 0
 276 38 225 -15 165 -15 c 256
 119 -15 92 15 92 55 c 0
 92 110 142 165 203 165 c 256
 249 165 276 134 276 94 c 0
EndSplineSet
EndChar
StartChar: slash
Encoding: 47 47 16
Width: 550
VWidth: 1473
Flags: W
HStem: 702 20G<573.5 597.5>
Fore
586 722 m 0
 609 722 629 706 629 680 c 0
 629 667 626 661 620 648 c 1
 142 -68 l 2
 127 -93 102 -99 89 -99 c 0
 62 -99 46 -80 46 -57 c 0
 46 -30 56 -23 132 91 c 2
 533 691 l 2
 543 708 561 722 586 722 c 0
EndSplineSet
EndChar
StartChar: zero
Encoding: 48 48 17
Width: 708
VWidth: 1473
Flags: W
HStem: -10 108<287.937 464.982> 622 108<399.296 575.361>
VStem: 121 108<160.993 387.264> 635 106<323.978 560.367>
Back
726 355 m 0
 712.667 290.333 693 234.667 667 188 c 128
 641 141.333 611.167 103 577.5 73 c 128
 543.833 43 507.667 20.8333 469 6.5 c 128
 430.333 -7.83333 391 -15 351 -15 c 0
 306.333 -15 267.667 -7.66667 235 7 c 128
 202.333 21.6667 176.167 44.3333 156.5 75 c 128
 136.833 105.667 124.667 144.333 120 191 c 128
 115.333 237.667 120 292.333 134 355 c 0
 152 438.333 177.333 504.333 210 553 c 128
 242.667 601.667 277.5 638.833 314.5 664.5 c 128
 351.5 690.167 387.667 706.667 423 714 c 128
 458.333 721.333 486.667 725 508 725 c 0
 555.333 725 595.5 716.167 628.5 698.5 c 128
 661.5 680.833 687.333 655.833 706 623.5 c 128
 724.667 591.167 735.667 552.333 739 507 c 128
 742.333 461.667 738 411 726 355 c 0
620 355 m 0
 656.667 529.667 612 617 486 617 c 0
 420 617 366.667 593 326 545 c 128
 285.333 497 256.667 433.667 240 355 c 0
 220.667 265.667 223 199.667 247 157 c 128
 271 114.333 313.333 93 374 93 c 256
 435.333 93 487 114.833 529 158.5 c 128
 571 202.167 601.333 267.667 620 355 c 0
EndSplineSet
Fore
510 730 m 0
 675 730 741 620 741 478 c 0
 741 266 613 -10 353 -10 c 0
 187 -10 121 90 121 232 c 0
 121 419 226 730 510 730 c 0
376 98 m 256
 591 98 635 376 635 465 c 0
 635 570 585 622 487 622 c 0
 271 622 229 341 229 255 c 0
 229 143 286 98 376 98 c 256
EndSplineSet
EndChar
StartChar: one
Encoding: 49 49 18
Width: 520
VWidth: 1473
Flags: W
HStem: -4 21G<303.5 330.5> 577 20G<333.791 386.759>
VStem: 205 310<591 687>
Fore
477 729 m 0
 499 729 515 711 515 687 c 0
 515 682 514 678 513 673 c 2
 381 50 l 2
 374 19 345 -4 316 -4 c 256
 291 -4 274 13 274 37 c 0
 274 41 274 46 275 50 c 2
 391 597 l 1
 268 554 l 2
 261 552 255 551 249 551 c 0
 224 551 205 566 205 591 c 0
 205 613 219 644 251 654 c 0
 302 671 341 684 369 694 c 2
 455 725 l 2
 464 727 470 729 477 729 c 0
EndSplineSet
EndChar
StartChar: two
Encoding: 50 50 19
Width: 679
VWidth: 1473
Flags: W
HStem: 0 106<276 613.321> 628 101<388.971 562.112>
VStem: 606 113<472.622 584.96>
Fore
170 467 m 0
 170 508 253 729 507 729 c 0
 646 729 719 639 719 540 c 0
 719 492 702 397 584 317 c 2
 276 106 l 1
 589 106 l 2
 616 106 631 88 631 65 c 0
 631 29 600 0 566 0 c 2
 118 0 l 2
 79 0 67 23 67 42 c 0
 67 66 89 94 99 102 c 2
 530 396 l 2
 596 441 606 496 606 521 c 0
 606 574 569 628 485 628 c 256
 336 628 293 515 276 474 c 0
 268 451 244 424 212 424 c 0
 188 424 170 443 170 467 c 0
EndSplineSet
EndChar
StartChar: three
Encoding: 51 51 20
Width: 658
VWidth: 1473
Flags: W
HStem: -10 93<251.145 429.405> 320 106<341.025 366 366 520.073> 629 101<348.551 538.021>
VStem: 90 109<131.064 212.875> 535 108<174.611 305.704> 574 109<473.977 594.572>
Back
635 206 m 0
 627 170 612.5 138.167 591.5 110.5 c 128
 570.5 82.8333 545.167 60 515.5 42 c 128
 485.833 24 453.667 10.3333 419 1 c 128
 384.333 -8.33333 349.333 -13 314 -13 c 0
 281.333 -13 249.833 -8.66667 219.5 0 c 128
 189.167 8.66667 163.167 22.3333 141.5 41 c 128
 119.833 59.6667 104.5 84 95.5 114 c 128
 86.5 144 86.6667 180 96 222 c 0
 98.6667 237.333 106.333 250 119 260 c 128
 131.667 270 145.667 275 161 275 c 256
 175.667 275 187.167 270 195.5 260 c 128
 203.833 250 206.333 237.333 203 222 c 0
 197 192.667 198.333 169 207 151 c 128
 215.667 133 227.333 118.5 242 107.5 c 128
 256.667 96.5 272.5 89.1667 289.5 85.5 c 128
 306.5 81.8333 320.333 80 331 80 c 0
 351 80 371.5 82.8333 392.5 88.5 c 128
 413.5 94.1667 433.667 102.667 453 114 c 128
 472.333 125.333 488.833 139.667 502.5 157 c 128
 516.167 174.333 525.333 194.333 530 217 c 256
 535.333 239 536 257 532 271 c 128
 528 285 522.333 295.667 515 303 c 128
 507.667 310.333 499.333 315 490 317 c 128
 480.667 319 473 320 467 320 c 2
 365 320 l 2
 350.333 320 338.833 325.167 330.5 335.5 c 128
 322.167 345.833 319.667 358.333 323 373 c 0
 327 387.667 335 400.333 347 411 c 128
 359 421.667 372.333 427 387 427 c 2
 485 427 l 2
 492.333 427 501.167 429.667 511.5 435 c 128
 521.833 440.333 531.5 448.167 540.5 458.5 c 128
 549.5 468.833 557.167 481.5 563.5 496.5 c 128
 569.833 511.5 573 527.667 573 545 c 0
 574.333 572.333 563.167 593.667 539.5 609 c 128
 515.833 624.333 486.667 632 452 632 c 0
 422 632 396.167 628.333 374.5 621 c 128
 352.833 613.667 334.667 604.833 320 594.5 c 128
 305.333 584.167 294.167 573.333 286.5 562 c 128
 278.833 550.667 274.333 541 273 533 c 0
 269.667 518.333 261.833 505.833 249.5 495.5 c 128
 237.167 485.167 223.667 480 209 480 c 256
 194.333 480 182.833 485.167 174.5 495.5 c 128
 166.167 505.833 163.333 518.333 166 533 c 0
 170 553 179.667 574.5 195 597.5 c 128
 210.333 620.5 230.5 642 255.5 662 c 128
 280.5 682 311.167 699 347.5 713 c 128
 383.833 727 425.667 734 473 734 c 0
 508.333 734 539.5 729.5 566.5 720.5 c 128
 593.5 711.5 615.833 699.167 633.5 683.5 c 128
 651.167 667.833 664.5 650 673.5 630 c 128
 682.5 610 686 588 684 564 c 0
 680 520 667.833 481.5 647.5 448.5 c 128
 627.167 415.5 601.333 390.667 570 374 c 1
 599.333 366 620 347.5 632 318.5 c 128
 644 289.5 645 252 635 206 c 0
EndSplineSet
Fore
683 570 m 0xf4
 683 496 646 411 571 374 c 1
 593 368 643 348 643 265 c 0
 643 77 463 -10 315 -10 c 0
 189 -10 90 48 90 169 c 0
 90 186 92 204 96 223 c 0
 103 255 133 276 162 276 c 256
 187 276 204 260 204 236 c 0
 204 222 199 214 199 192 c 0
 199 105 289 83 333 83 c 0
 418 83 535 135 535 252 c 0xf8
 535 308 496 320 467 320 c 2
 366 320 l 2
 338 320 323 338 323 361 c 0
 323 394 352 426 389 426 c 2
 486 426 l 2
 521 426 574 479 574 542 c 0
 574 611 502 629 452 629 c 0
 327 629 280 561 274 531 c 0
 267 501 239 479 210 479 c 256
 182 479 167 497 167 520 c 0
 167 577 263 730 473 730 c 0
 559 730 683 697 683 570 c 0xf4
EndSplineSet
EndChar
StartChar: four
Encoding: 52 52 21
Width: 720
VWidth: 1473
Flags: W
HStem: -6 21G<504 532.5> 127 106<244 493 622 687.321>
Fore
705 192 m 0
 705 156 674 127 640 127 c 2
 599 127 l 1
 582 47 l 2
 575 16 547 -6 518 -6 c 256
 490 -6 475 12 475 35 c 0
 475 39 475 43 476 47 c 2
 493 127 l 1
 117 127 l 2
 87 127 75 147 75 169 c 0
 75 195 94 212 95 214 c 1
 617 704 l 2
 639 726 659 727 669 727 c 0
 697 727 716 706 716 682 c 0
 716 679 716 675 715 672 c 2
 622 233 l 1
 663 233 l 2
 690 233 705 215 705 192 c 0
584 554 m 1
 244 233 l 1
 516 233 l 1
 584 554 l 1
EndSplineSet
EndChar
StartChar: five
Encoding: 53 53 22
Width: 692
VWidth: 1473
Flags: W
HStem: -10 103<266.005 460.224> 411 97<328.066 520.811> 612 104<363 729.088>
VStem: 107 108<143.699 202.046 202.046 241.787> 579 112<206.888 354.62>
Back
653 165 m 0
 630.333 119 598.833 80.6667 558.5 50 c 128
 518.167 19.3333 473 -1.33333 423 -12 c 0
 382.333 -20.6667 342.833 -23 304.5 -19 c 128
 266.167 -15 232.167 -4.66667 202.5 12 c 128
 172.833 28.6667 149.167 51.6667 131.5 81 c 128
 113.833 110.333 105 146.667 105 190 c 0
 105 204.667 110.333 218.167 121 230.5 c 128
 131.667 242.833 144.333 250.333 159 253 c 0
 175 256.333 188.167 253.833 198.5 245.5 c 128
 208.833 237.167 214 225.667 214 211 c 0
 214 162.333 228.667 128 258 108 c 128
 287.333 88 333 80.3333 395 85 c 0
 430.333 88.3333 463.167 102.333 493.5 127 c 128
 523.833 151.667 546.667 179.833 562 211.5 c 128
 577.333 243.167 582.333 275.5 577 308.5 c 128
 571.667 341.5 551.333 368.333 516 389 c 0
 499.333 399 478.667 405 454 407 c 128
 429.333 409 404.667 407.667 380 403 c 128
 355.333 398.333 332 390.833 310 380.5 c 128
 288 370.167 270.667 358.667 258 346 c 0
 249.333 337.333 239 331.5 227 328.5 c 128
 215 325.5 204.167 325.667 194.5 329 c 128
 184.833 332.333 177 338.167 171 346.5 c 128
 165 354.833 164.333 366 169 380 c 2
 292 719 l 1
 704 719 l 2
 718.667 719 730.167 713.833 738.5 703.5 c 128
 746.833 693.167 749.667 680.667 747 666 c 0
 743 651.333 734.833 638.833 722.5 628.5 c 128
 710.167 618.167 696.667 613 682 613 c 2
 362 613 l 1
 314 480 l 1
 343.333 490.667 374.5 498.333 407.5 503 c 128
 440.5 507.667 472.167 508.167 502.5 504.5 c 128
 532.833 500.833 561.333 493.167 588 481.5 c 128
 614.667 469.833 636.333 453.333 653 432 c 0
 664.333 416 673 397.5 679 376.5 c 128
 685 355.5 688 333.167 688 309.5 c 128
 688 285.833 685 261.667 679 237 c 128
 673 212.333 664.333 188.333 653 165 c 0
EndSplineSet
Fore
691 317 m 0
 691 164 569 -10 344 -10 c 0
 228 -10 107 47 107 195 c 0
 107 203 108 203 108 209 c 1
 115 238 144 260 173 260 c 0
 198 260 215 241 215 220 c 0
 215 118 281 93 364 93 c 0
 514 93 579 214 579 286 c 0
 579 354 530 411 433 411 c 0
 346 411 282 373 260 350 c 0
 257 347 238 330 212 330 c 0
 191 330 168 343 168 367 c 0
 168 377 169.974 380.181 171 383 c 2
 292 716 l 1
 704 716 l 2
 732 716 747 698 747 675 c 0
 747 644 718 612 682 612 c 2
 363 612 l 1
 314 482 l 1
 350 494 405 508 462 508 c 0
 608 508 691 434 691 317 c 0
EndSplineSet
EndChar
StartChar: six
Encoding: 54 54 23
Width: 696
VWidth: 1473
Flags: W
HStem: -10 102<298.039 467.512> 399 98<363.138 526.593> 625 105<414.162 597.397>
VStem: 119 117<151.658 291.334> 587 111<205.771 341.004>
Back
689 249 m 0
 680.333 211.667 666 176.5 646 143.5 c 128
 626 110.5 601.167 82.3333 571.5 59 c 128
 541.833 35.6667 508.167 17 470.5 3 c 128
 432.833 -11 393 -17.3333 351 -16 c 0
 299 -15.3333 256 -5.33333 222 14 c 128
 188 33.3333 162.667 59.8333 146 93.5 c 128
 129.333 127.167 120.167 166.833 118.5 212.5 c 128
 116.833 258.167 122.667 307.667 136 361 c 0
 148.667 419 167.5 471.333 192.5 518 c 128
 217.5 564.667 247.333 604.5 282 637.5 c 128
 316.667 670.5 355.667 695.833 399 713.5 c 128
 442.333 731.167 488.667 740 538 740 c 0
 567.333 740 594.333 736 619 728 c 128
 643.667 720 665 709.333 683 696 c 128
 701 682.667 715.667 667.5 727 650.5 c 128
 738.333 633.5 745.333 615.667 748 597 c 0
 750 582.333 747.333 568 740 554 c 128
 732.667 540 720.667 530.667 704 526 c 0
 688.667 521.333 674.833 522.167 662.5 528.5 c 128
 650.167 534.833 643 545.333 641 560 c 0
 639 576.667 625.667 593 601 609 c 128
 576.333 625 547 633 513 633 c 0
 447 633 393.833 614 353.5 576 c 128
 313.167 538 282.333 486 261 420 c 1
 291 444.667 324 464.5 360 479.5 c 128
 396 494.5 431.333 502 466 502 c 0
 506 502 542 496.167 574 484.5 c 128
 606 472.833 632 456 652 434 c 128
 672 412 685.5 385.5 692.5 354.5 c 128
 699.5 323.5 698.333 288.333 689 249 c 0
583 245 m 0
 588.333 267 588.333 287.667 583 307 c 128
 577.667 326.333 568.333 343.167 555 357.5 c 128
 541.667 371.833 525.333 382.833 506 390.5 c 128
 486.667 398.167 466.333 402 445 402 c 0
 422.333 402 399.667 398.167 377 390.5 c 128
 354.333 382.833 333.667 371.833 315 357.5 c 128
 296.333 343.167 280.167 326.333 266.5 307 c 128
 252.833 287.667 243.667 267 239 245 c 256
 233.667 222.333 233.667 201.333 239 182 c 128
 244.333 162.667 253.5 146.167 266.5 132.5 c 128
 279.5 118.833 295.5 108 314.5 100 c 128
 333.5 92 354.333 88 377 88 c 0
 400.333 88 423.333 92.1667 446 100.5 c 128
 468.667 108.833 489.333 120 508 134 c 128
 526.667 148 542.667 164.5 556 183.5 c 128
 569.333 202.5 578.333 223 583 245 c 0
EndSplineSet
Fore
748 580 m 0
 748 546 723 518 686 518 c 0
 670 518 644 525 641 554 c 0
 637 577 594 625 512 625 c 0
 433 625 323 601 261 417 c 1
 311 455 386 497 465 497 c 0
 607 497 698 425 698 308 c 0
 698 154 556 -10 364 -10 c 0
 175 -10 119 102 119 227 c 0
 119 265 124 304 132 342 c 0
 199 660 408 730 537 730 c 0
 677 730 748 637 748 580 c 0
444 399 m 0
 332 399 236 307 236 216 c 0
 236 138 308 92 379 92 c 0
 483 92 587 177 587 273 c 0
 587 340 533 399 444 399 c 0
EndSplineSet
EndChar
StartChar: seven
Encoding: 55 55 24
Width: 651
VWidth: 1473
Flags: W
HStem: -10 21G<190.5 206.5> 612 104<204.25 229 229 604>
Back
250 3 m 2
 239.333 -9.66667 226.667 -18 212 -22 c 128
 197.333 -26 184 -24 172 -16 c 0
 161.333 -8 155.5 2.83333 154.5 16.5 c 128
 153.5 30.1667 158.333 43.3333 169 56 c 2
 603 610 l 1
 227 610 l 2
 212.333 610 201 615.167 193 625.5 c 128
 185 635.833 182.667 648.333 186 663 c 256
 188.667 677.667 196.333 690.167 209 700.5 c 128
 221.667 710.833 235.333 716 250 716 c 2
 745 716 l 1
 720 603 l 1
 250 3 l 2
EndSplineSet
Fore
186 653 m 0
 186 681 213 716 251 716 c 2
 746 716 l 1
 723 605 l 1
 253 16 l 2
 235 -7 211 -10 202 -10 c 0
 179 -10 158 8 158 33 c 0
 158 37 158 52 172 68 c 2
 604 612 l 1
 229 612 l 2
 202 612 186 630 186 653 c 0
EndSplineSet
EndChar
StartChar: eight
Encoding: 56 56 25
Width: 665
VWidth: 1473
Flags: W
HStem: -10 101<247.538 459.018> 354 88<343.438 507.915> 629 101<380.784 552.817>
VStem: 94 106<134.156 268.199> 207 108<467.753 574.105> 564 106<176.777 305.501> 582 111<494.966 601.707>
Back
663 214 m 256
 655 176.667 639.667 143.167 617 113.5 c 128
 594.333 83.8333 567.667 58.6667 537 38 c 128
 506.333 17.3333 472.833 1.66667 436.5 -9 c 128
 400.167 -19.6667 364.333 -25 329 -25 c 256
 293 -25 259.333 -19.6667 228 -9 c 128
 196.667 1.66667 170 17.3333 148 38 c 128
 126 58.6667 109.833 83.8333 99.5 113.5 c 128
 89.1667 143.167 88 176.667 96 214 c 0
 104.667 253.333 122 289.167 148 321.5 c 128
 174 353.833 206.667 381.333 246 404 c 1
 229.333 420.667 217.833 441 211.5 465 c 128
 205.167 489 204.333 513.667 209 539 c 0
 215 566.333 226.833 592.333 244.5 617 c 128
 262.167 641.667 284 663.167 310 681.5 c 128
 336 699.833 364.5 714.167 395.5 724.5 c 128
 426.5 734.833 458.333 740 491 740 c 0
 520.333 740 548.167 735.333 574.5 726 c 128
 600.833 716.667 623.667 703.333 643 686 c 128
 662.333 668.667 676.333 647.5 685 622.5 c 128
 693.667 597.5 694.667 569.667 688 539 c 0
 683.333 513.667 672.833 489 656.5 465 c 128
 640.167 441 619.667 420.667 595 404 c 1
 623.667 384 644.167 356.667 656.5 322 c 128
 668.833 287.333 671 251.333 663 214 c 256
579 539 m 0
 585.667 572.333 577.5 597.333 554.5 614 c 128
 531.5 630.667 503.333 639 470 639 c 0
 455.333 639 439.667 636.833 423 632.5 c 128
 406.333 628.167 390.833 621.833 376.5 613.5 c 128
 362.167 605.167 349.667 594.667 339 582 c 128
 328.333 569.333 321 555 317 539 c 0
 311.667 518.333 312.667 501.667 320 489 c 128
 327.333 476.333 337.5 466.5 350.5 459.5 c 128
 363.5 452.5 377 447.833 391 445.5 c 128
 405 443.167 417 442 427 442 c 0
 439 442 452.833 443.5 468.5 446.5 c 128
 484.167 449.5 499.333 454.667 514 462 c 128
 528.667 469.333 542.167 479.167 554.5 491.5 c 128
 566.833 503.833 575 519.667 579 539 c 0
558 214 m 0
 564 240 562.667 262.167 554 280.5 c 128
 545.333 298.833 532.833 313.333 516.5 324 c 128
 500.167 334.667 482.167 342.333 462.5 347 c 128
 442.833 351.667 425.333 354 410 354 c 0
 406.667 354 395.5 353 376.5 351 c 128
 357.5 349 336.167 343.5 312.5 334.5 c 128
 288.833 325.5 266 311.667 244 293 c 128
 222 274.333 207.333 248 200 214 c 0
 194.667 187.333 196.167 165.167 204.5 147.5 c 128
 212.833 129.833 224.5 115.833 239.5 105.5 c 128
 254.5 95.1667 271.833 88 291.5 84 c 128
 311.167 80 329.333 78 346 78 c 0
 366 78 387.167 80.5 409.5 85.5 c 128
 431.833 90.5 453.333 98.3333 474 109 c 128
 494.667 119.667 512.667 133.667 528 151 c 128
 543.333 168.333 553.333 189.333 558 214 c 0
EndSplineSet
Fore
693 569 m 0xfa
 693 503 651 442 596 404 c 1
 643 372 670 321 670 262 c 0xfc
 670 118 518 -10 332 -10 c 256
 209 -10 94 51 94 173 c 0
 94 265 148 347 247 404 c 1
 214 437 207 475 207 502 c 0
 207 622 342 730 489 730 c 0
 596 730 693 670 693 569 c 0xfa
468 629 m 0
 410 629 315 598 315 514 c 0
 315 454 384 442 428 442 c 0
 514 442 582 486 582 552 c 0xfa
 582 592 553 629 468 629 c 0
409 354 m 0
 331 354 200 314 200 192 c 0
 200 107 290 91 349 91 c 0
 472 91 564 154 564 247 c 0xfc
 564 336 458 354 409 354 c 0
EndSplineSet
EndChar
StartChar: nine
Encoding: 57 57 26
Width: 686
VWidth: 1473
Flags: W
HStem: -10 106<231.528 430.666> 216 100<304.061 472.741> 627 103<366.784 539.13>
VStem: 139 110<367.844 510.779> 601 117<424.389 569.629>
Back
700 348 m 0
 672.667 232 623.833 141.5 553.5 76.5 c 128
 483.167 11.5 398.333 -21 299 -21 c 0
 265.667 -21 236.5 -17 211.5 -9 c 128
 186.5 -1 165.167 9.66667 147.5 23 c 128
 129.833 36.3333 116.333 51.3333 107 68 c 128
 97.6667 84.6667 91.3333 102.333 88 121 c 0
 85.3333 135.667 88 149.833 96 163.5 c 128
 104 177.167 115.667 186.667 131 192 c 0
 147.667 196.667 161.667 195.833 173 189.5 c 128
 184.333 183.167 191.333 172.667 194 158 c 0
 198 138 209.833 120.833 229.5 106.5 c 128
 249.167 92.1667 280.667 85 324 85 c 0
 390 85 442.333 102.5 481 137.5 c 128
 519.667 172.5 550.333 223 573 289 c 1
 541.667 265 508.333 245.5 473 230.5 c 128
 437.667 215.5 402.667 208 368 208 c 0
 330 208 295.333 213.833 264 225.5 c 128
 232.667 237.167 206.667 253.833 186 275.5 c 128
 165.333 297.167 151 323.5 143 354.5 c 128
 135 385.5 135.333 420.667 144 460 c 0
 153.333 497.333 168 532.167 188 564.5 c 128
 208 596.833 232.667 624.833 262 648.5 c 128
 291.333 672.167 324.5 690.833 361.5 704.5 c 128
 398.5 718.167 437.667 725 479 725 c 0
 531.667 725 575 715.333 609 696 c 128
 643 676.667 668.833 650.167 686.5 616.5 c 128
 704.167 582.833 713.667 542.833 715 496.5 c 128
 716.333 450.167 711.333 400.667 700 348 c 0
595 464 m 0
 600.333 486.667 600.167 507.5 594.5 526.5 c 128
 588.833 545.5 579.667 562.167 567 576.5 c 128
 554.333 590.833 538.5 602 519.5 610 c 128
 500.5 618 479.667 622 457 622 c 0
 433 622 409.5 617.833 386.5 609.5 c 128
 363.5 601.167 343 589.833 325 575.5 c 128
 307 561.167 291.333 544.333 278 525 c 128
 264.667 505.667 255.333 485.333 250 464 c 0
 240.667 418 249.167 380.5 275.5 351.5 c 128
 301.833 322.5 340 308 390 308 c 0
 439.333 308 483.333 322.5 522 351.5 c 128
 560.667 380.5 585 418 595 464 c 0
EndSplineSet
Fore
139 410 m 0
 139 543 264 730 481 730 c 0
 649 730 718 629 718 488 c 0
 718 343 635 -10 301 -10 c 0
 134 -10 91 96 91 143 c 0
 91 179 121 206 153 206 c 0
 180 206 194 187 198 169 c 0
 207 123 246 96 326 96 c 0
 408 96 516 116 576 297 c 1
 526 259 450 216 372 216 c 0
 234 216 139 292 139 410 c 0
459 627 m 0
 346 627 249 536 249 436 c 0
 249 362 305 316 393 316 c 0
 520 316 601 414 601 502 c 0
 601 580 532 627 459 627 c 0
EndSplineSet
EndChar
StartChar: colon
Encoding: 58 58 27
Width: 343
VWidth: 1473
Flags: W
HStem: -9 180<140.388 229.612> 339 180<215.181 304.564>
VStem: 93 184<37.6563 123.271> 167 184<384.87 471.916>
Fore
351 449 m 0xd0
 351 397 307 339 240 339 c 256
 197 339 167 366 167 409 c 0
 167 468 220 519 278 519 c 256
 324 519 351 489 351 449 c 0xd0
277 101 m 0xe0
 277 46 229 -9 166 -9 c 256
 120 -9 93 22 93 62 c 0
 93 118 144 171 204 171 c 256
 250 171 277 141 277 101 c 0xe0
EndSplineSet
EndChar
StartChar: semicolon
Encoding: 59 59 28
Width: 346
VWidth: 1473
Flags: W
HStem: -152 319<75 203> 339 180<215.181 304.564>
VStem: 41 310<-124 449 -154.855 -149> 41 239<-124 83> 167 184<386.036 471.689>
Fore
280 83 m 0xd0
 280 -47 133 -152 75 -152 c 0
 55 -152 41 -139 41 -124 c 0xe0
 41 -84 121 -100 178 -9 c 1
 172 -9 169 -10 163 -10 c 0
 117 -10 92 21 92 59 c 0
 92 118 154 167 203 167 c 0
 236 167 280 147 280 83 c 0xd0
351 449 m 0
 351 397 307 339 240 339 c 256
 197 339 167 366 167 408 c 0xc8
 167 468 220 519 278 519 c 256
 324 519 351 489 351 449 c 0
EndSplineSet
EndChar
StartChar: less
Encoding: 60 60 29
Width: 677
VWidth: 1473
Flags: W
HStem: 512 20G<643 663.5>
Fore
608 74 m 0
 608 33 571 4 536 4 c 0
 526 4 517 7 510 12 c 2
 168 220 l 2
 153 229 150 244 150 256 c 0
 150 282 165 305 192 318 c 2
 618 524 l 2
 628 529 638 532 648 532 c 0
 679 532 696 509 696 486 c 0
 696 468 685 439 654 424 c 0
 646 420 487 349 404 310 c 2
 310 268 l 1
 588 112 l 2
 605 102 608 86 608 74 c 0
EndSplineSet
EndChar
StartChar: equal
Encoding: 61 61 30
Width: 692
VWidth: 1473
Flags: W
HStem: 97 318<187 193 603 623 237 559 237 237> 97 109<132.495 618.121> 305 110<178.359 662.125>
Fore
159 345 m 0x20
 159 383 187 415 237 415 c 2x80
 626 415 l 2
 649 415 681 406 681 373 c 0
 681 354 670 305 603 305 c 2
 214 305 l 2
 187 305 159 313 159 345 c 0x20
114 138 m 0
 114 165 130 206 193 206 c 2
 582 206 l 2x40
 607 206 636 197 636 165 c 0
 636 142 623 97 559 97 c 2x80
 170 97 l 2x40
 142 97 114 106 114 138 c 0
EndSplineSet
EndChar
StartChar: greater
Encoding: 62 62 31
Width: 677
VWidth: 1473
Flags: W
HStem: 512 20G<247.5 272.5>
Fore
195 465 m 0
 195 496 227 532 268 532 c 0
 277 532 286 529 294 524 c 2
 634 318 l 2
 647 309 655 298 655 283 c 0
 655 272 650 237 616 220 c 2
 186 12 l 2
 175 7 165 4 155 4 c 0
 128 4 107 22 107 49 c 0
 107 69 118 96 149 112 c 2
 493 268 l 1
 215 424 l 2
 199 435 195 453 195 465 c 0
EndSplineSet
EndChar
StartChar: question
Encoding: 63 63 32
Width: 677
VWidth: 1473
Flags: W
HStem: -16 144<231.991 316.009> 644 107<381.917 557.765>
VStem: 198 152<16.8688 95.1312> 601 116<478.042 603.839>
Fore
499 751 m 0
 664 751 717 662 717 573 c 0
 717 340 457 309 437 304 c 0
 417 300 396 286 383 272 c 0
 358 247 376 177 300 177 c 0
 273 177 257 188 257 220 c 0
 257 324 348 368 376 383 c 0
 435 415 601 420 601 544 c 0
 601 585 575 644 479 644 c 0
 411 644 342 609 292 564 c 0
 288 561 272 547 247 547 c 0
 219 547 203 567 203 591 c 0
 203 596 204 622 227 641 c 0
 308 709 400 751 499 751 c 0
198 42 m 0
 198 90 245 128 289 128 c 256
 327 128 350 102 350 70 c 0
 350 22 303 -16 259 -16 c 256
 221 -16 198 10 198 42 c 0
EndSplineSet
EndChar
StartChar: at
Encoding: 64 64 33
Width: 1022
VWidth: 1473
Flags: W
HStem: -67 78<393.712 676.844> 129 64<706.894 787.62> 131 72<432.832 597.292> 392 74<490.905 682.231> 533 75<548.316 726.285> 710 77<561.777 800.02>
VStem: 159 78<157.989 385.759> 341 71<224.136 326.309> 751 77<409.125 509.081> 934 78<425.441 580.521>
Fore
896 102 m 0xdfc0
 896 68 767 -67 509 -67 c 0
 260 -67 159 84 159 250 c 0
 159 522 396 787 699 787 c 0
 879 787 1012 680 1012 512 c 0
 1012 488 1010 463 1004 437 c 0
 957 217 792 129 709 129 c 0xdfc0
 692 129 653 134 653 178 c 0
 653 184 l 1
 599 144 536 131 485 131 c 256xbfc0
 384 131 341 191 341 254 c 0
 341 335 413 466 612 466 c 0
 696 466 729 425 740 408 c 1
 742 413 751 440 751 461 c 0
 751 518 698 533 637 533 c 0
 546 533 503 489 476 489 c 0
 465 489 453 498 453 513 c 0
 453 564 582 608 667 608 c 0
 762 608 828 570 828 490 c 0
 828 457 815 405 720 204 c 1
 719 196 724 193 733 193 c 0
 776 193 934 287 934 481 c 0
 934 623 833 710 686 710 c 0
 400 710 237 450 237 263 c 0
 237 131 322 11 524 11 c 0
 605 11 748 32 820 110 c 0
 829 121 849 134 866 134 c 0
 885 134 896 118 896 102 c 0xdfc0
593 392 m 0
 496 392 412 342 412 268 c 0
 412 216 467 203 506 203 c 256xbfc0
 650 203 699 298 699 336 c 0
 699 362 680 392 593 392 c 0
EndSplineSet
EndChar
StartChar: A
Encoding: 65 65 34
Width: 730
VWidth: 1473
Flags: W
HStem: 0 21G<108.5 124 613 630.5> 302 109<256 628> 617 103<382.077 603.311>
VStem: 665 110<460.546 561.078>
Fore
521 720 m 0
 718 720 775 622 775 515 c 0
 775 489 771 463 766 438 c 2
 687 66 l 2
 675 10 641 0 620 0 c 0
 606 0 575 4 575 44 c 0
 575 50 576 58 578 66 c 2
 628 302 l 1
 233 302 l 1
 183 66 l 2
 170 7 133 0 115 0 c 0
 102 0 71 4 71 44 c 0
 71 50 72 58 74 66 c 2
 152 433 l 2
 180 563 275 720 521 720 c 0
499 617 m 0
 343 617 282 532 263 442 c 2
 256 411 l 1
 653 411 l 1
 660 442 l 2
 663 458 665 474 665 489 c 0
 665 559 624 617 499 617 c 0
EndSplineSet
EndChar
StartChar: B
Encoding: 66 66 35
Width: 730
VWidth: 1473
Flags: W
HStem: 0 105<259.05 546.517> 302 109<319.989 584.188> 613 110<374.488 618.658>
VStem: 103 112<144.455 219.241 214.349 224.133 224.133 231 236 247.463> 612 113<163.224 277.011> 675 111<463.135 569.304>
Fore
786 539 m 0xf4
 786 495 770 408 671 358 c 1
 715 331 725 286 725 251 c 0xf8
 725 124 609 0 435 0 c 2
 318 0 l 2
 199 0 103 59 103 177 c 0
 103 194 105 212 109 231 c 2
 163 485 l 2
 200 659 363 723 524 723 c 0
 678 723 786 651 786 539 c 0xf4
301 344 m 0
 301 371 319 411 380 411 c 2
 525 411 l 2
 618 411 675 462 675 523 c 0xf4
 675 594 568 613 500 613 c 0
 355 613 288 561 271 482 c 2
 219 236 l 2
 216 224 215 212 215 202 c 0
 215 138 264 113 331 105 c 2
 457 105 l 2
 528 105 612 145 612 228 c 0
 612 277 572 302 491 302 c 2
 357 302 l 2
 311 302 301 325 301 344 c 0
EndSplineSet
EndChar
StartChar: C
Encoding: 67 67 36
Width: 687
VWidth: 1473
Flags: W
HStem: -8 110<317.943 474.155> 610 110<416.621 601.736>
VStem: 111 113<195.511 407.309>
Fore
111 280 m 0
 111 484.233 280.199 720 550 720 c 0
 573 720 697 719 778 613 c 0
 784 606 787 596 787 586 c 0
 787 555 758 518 720 518 c 0
 694 518 683 532 681 535 c 0
 644 585 593 610 526 610 c 0
 297 610 224 405 224 290 c 0
 224 162 316 102 406 102 c 0
 475 102 549 134 605 180 c 0
 619 192 640 196 653 196 c 0
 680 196 695 171 695 151 c 0
 695 135 678 109 669 102 c 0
 545 -5 420 -8 386 -8 c 0
 166 -8 111 161.577 111 280 c 0
EndSplineSet
EndChar
StartChar: D
Encoding: 68 68 37
Width: 723
VWidth: 1473
Flags: W
HStem: -1 107<239.176 437.022> 608 109<309.58 540.491>
VStem: 90 113<116.384 148.071 145.665 150.477 150.477 155 155 171.471> 654 112<319.218 513.929>
Fore
766 451 m 0
 766 239 607 -1 287 -1 c 2
 240 -1 l 2
 163 -1 90 48 90 121 c 0
 90 132 91 143 95 155 c 2
 180 557 l 2
 198 638 277 717 394 717 c 2
 439 717 l 2
 512 717 766 695 766 451 c 0
320 106 m 2
 605 118 654 331 654 424 c 0
 654 569 526 608 418 608 c 2
 372 608 l 2
 310 608 292 567 289 555 c 2
 204 155 l 2
 203 152 203 148 203 146 c 0
 203 114 245 106 265 106 c 2
 320 106 l 2
EndSplineSet
EndChar
StartChar: E
Encoding: 69 69 38
Width: 695
VWidth: 1473
Flags: W
HStem: -7 110<245.704 506.9> 302 110<237 536.465> 613 110<360.916 614.353>
VStem: 83 112<145.809 210.743 198.43 223.056 223.056 231 236 247.463>
Fore
691 159 m 0
 691 97 552 -7 360 -7 c 0
 237 -7 83 32 83 179 c 0
 83 195 85 212 89 231 c 2
 143 485 l 2
 183 675 378 723 515 723 c 0
 695 723 780 636 780 578 c 0
 780 536 738 518 716 518 c 0
 698 518 681 530 671 545 c 0
 657 572 612 613 491 613 c 0
 392 613 275 591 251 482 c 2
 237 412 l 1
 499 411 l 2
 527 411 556 402 556 371 c 0
 556 343 537 302 476 302 c 2
 213 302 l 1
 199 236 l 2
 197 224 195 214 195 204 c 0
 195 124 272 103 383 103 c 0
 504 103 566 144 591 171 c 0
 608 186 630 198 648 198 c 0
 666 198 691 186 691 159 c 0
EndSplineSet
EndChar
StartChar: F
Encoding: 70 70 39
Width: 701
VWidth: 1473
Flags: W
HStem: -1 21G<105 126.5> 302 109<258 557.481> 613 110<382.916 636.74>
Fore
579 371 m 0
 579 344 557 302 499 302 c 2
 233 302 l 1
 183 65 l 2
 171 9 137 -1 116 -1 c 0
 94 -1 73 6 73 40 c 0
 73 47 74 55 76 65 c 2
 165 485 l 2
 205 675 400 723 537 723 c 0
 719 723 802 636 802 578 c 0
 802 535 758 518 739 518 c 0
 720 518 703 530 693 545 c 0
 679 572 634 613 513 613 c 0
 414 613 297 591 273 482 c 2
 258 411 l 1
 522 411 l 2
 549 411 579 402 579 371 c 0
EndSplineSet
EndChar
StartChar: G
Encoding: 71 71 40
Width: 764
VWidth: 1473
Flags: W
HStem: -6 111<319.113 546.918> 301 110<335.432 659.596> 613 110<421.767 647.473>
VStem: 115 115<188.402 398.93> 665 114<267.776 330.999>
Fore
115 263 m 0
 115 454 250 723 559 723 c 0
 773 723 819 603 819 578 c 0
 819 535 779 516 758 516 c 0
 697 516 708 613 536 613 c 0
 291 613 230 395 230 282 c 0
 230 142 332 105 429 105 c 0
 515 105 638 145 654 221 c 2
 662 258 l 2
 664 268 665 276 665 282 c 0
 665 299 657 301 643 301 c 2
 381 301 l 2
 351 301 314 310 314 343 c 0
 314 370 334 411 404 411 c 2
 666 411 l 2
 754 411 779 361 779 311 c 0
 779 299 778 286 775 275 c 2
 764 221 l 2
 733 77 567 -6 406 -6 c 0
 224 -6 115 97 115 263 c 0
EndSplineSet
EndChar
StartChar: H
Encoding: 72 72 41
Width: 746
VWidth: 1473
Flags: W
HStem: 0 21G<105.5 131.5 611.5 637> 302 109<264 637> 697 20G<251.5 291 758 797>
Fore
780 717 m 0
 814 717 823 694 823 671 c 0
 823 665 822 659 821 653 c 2
 696 65 l 2
 683 7 646 0 628 0 c 0
 595 0 584 20 584 43 c 0
 584 50 585 58 587 65 c 2
 637 302 l 1
 241 302 l 1
 191 65 l 2
 178 7 141 0 122 0 c 0
 89 0 80 21 80 44 c 0
 80 51 81 58 82 65 c 2
 207 653 l 2
 212 679 229 717 274 717 c 0
 308 717 318 694 318 671 c 0
 318 665 317 659 316 653 c 2
 264 411 l 1
 660 411 l 1
 712 653 l 2
 719 685 736 717 780 717 c 0
EndSplineSet
EndChar
StartChar: I
Encoding: 73 73 42
Width: 244
VWidth: 1473
Flags: W
HStem: 0 21G<107.5 131.5> 697 20G<254 293>
VStem: 80 239<43 670 43 43>
Fore
276 717 m 0
 310 717 319 692 319 670 c 0
 319 664 318 658 317 653 c 2
 192 65 l 2
 179 6 139 0 124 0 c 0
 91 0 80 20 80 43 c 0
 80 50 81 58 83 65 c 2
 208 653 l 2
 215 685 232 717 276 717 c 0
EndSplineSet
EndChar
StartChar: J
Encoding: 74 74 43
Width: 598
VWidth: 1473
Flags: W
HStem: -9 108<226.9 384.389>
VStem: 71 112<138.464 212.925 211.349 214.5 214.5 228 228 244.139>
Fore
624 710 m 0
 658 710 668 689 668 666 c 0
 668 659 667 652 666 645 c 2
 580 239 l 2
 537 38 356 -9 294 -9 c 2
 269 -9 l 2
 152 -9 71 62 71 174 c 0
 71 191 73 209 77 228 c 2
 95 311 l 2
 101 338 120 377 164 377 c 0
 197 377 206 354 206 331 c 0
 206 324 205 317 204 311 c 2
 186 228 l 2
 184 219 183 210 183 201 c 0
 183 145 222 99 305 99 c 0
 361 99 448 134 471 239 c 2
 557 645 l 2
 563 674 582 710 624 710 c 0
EndSplineSet
EndChar
StartChar: K
Encoding: 75 75 44
Width: 686
VWidth: 1473
Flags: W
HStem: -10 21G<107 132 591 622.5> 699 20G<254.5 293 752 768.5>
VStem: 560 115<10.4178 36 36 57.2693 57.2693 180.816>
Fore
479 454 m 1
 655 326 675 139 675 70 c 0
 675 57 674 48 674 45 c 1
 668 18 640 -10 605 -10 c 0
 577 -10 560 13 560 36 c 0
 560 51 l 0
 560 220 464 336 373 390 c 1
 244 315 l 1
 191 66 l 2
 179 8 140 0 124 0 c 0
 90 0 80 21 80 44 c 0
 80 51 81 58 82 65 c 2
 207 653 l 2
 213 683 232 719 277 719 c 0
 309 719 318 694 318 672 c 0
 318 665 317 659 316 653 c 2
 271 443 l 1
 276 445 295 456 328 476 c 2
 735 713 l 2
 742 716 749 717 755 717 c 0
 782 717 794 694 794 675 c 0
 794 658 777 635 769 631 c 2
 479 454 l 1
EndSplineSet
EndChar
StartChar: L
Encoding: 76 76 45
Width: 664
VWidth: 1473
Flags: W
HStem: -1 109<209.006 212 212 635.126> 696 20G<257.5 296>
VStem: 98 111<77.0812 135.203 133.5 136.906>
Fore
655 67 m 0
 655 46 641 -1 576 -1 c 2
 212 -1 l 2
 138 -1 98 46 98 107 c 0
 98 118 100 129 102 140 c 2
 210 651 l 2
 217 680 235 716 280 716 c 0
 312 716 321 693 321 671 c 0
 321 664 320 657 319 651 c 2
 210 137 l 2
 210 135 209 132 209 130 c 0
 209 117 217 108 235 108 c 2
 599 108 l 2
 621 108 655 99 655 67 c 0
EndSplineSet
EndChar
StartChar: M
Encoding: 77 77 46
Width: 1025
VWidth: 1473
Flags: W
HStem: -7 21G<104.5 130 495 519.5 887 912> 617 109<352.469 525.792 754.13 925.029>
VStem: 953 109<472.462 489 489 501.875 501.875 527.295 514.585 586.034>
Fore
860 726 m 0
 983 726 1069 666 1069 549 c 0
 1069 530 1067 510 1062 489 c 2
 971 59 l 2
 958 1 920 -7 904 -7 c 0
 870 -7 859 13 859 36 c 0
 859 44 860 51 862 59 c 2
 953 489 l 2
 956 502 957 515 957 526 c 0
 957 587 917 617 837 617 c 0
 784 617 694 587 673 489 c 2
 582 59 l 2
 569 -1 527 -7 512 -7 c 0
 478 -7 469 16 469 39 c 0
 469 46 470 53 471 59 c 2
 562 489 l 2
 564 499 565 509 565 518 c 0
 565 583 513 617 452 617 c 0
 345 617 298 566 282 489 c 2
 191 59 l 2
 178 0 139 -7 121 -7 c 0
 88 -7 78 14 78 37 c 0
 78 44 79 52 81 59 c 2
 172 489 l 2
 205 646 329 726 475 726 c 0
 547 726 628 688 648 629 c 1
 692 688 785 726 860 726 c 0
EndSplineSet
EndChar
StartChar: N
Encoding: 78 78 47
Width: 717
VWidth: 1473
Flags: W
HStem: 0 21G<105 130.5 580.5 605> 616 106<324.148 429.008>
Fore
750 719 m 0
 783 719 792 695 792 672 c 0
 792 666 791 659 790 653 c 2
 665 65 l 2
 652 7 613 0 597 0 c 0
 564 0 553 20 553 43 c 0
 553 50 554 58 556 65 c 2
 600 275 l 1
 598 286 507 616 369 616 c 0
 333 616 302 587 286 513 c 2
 191 65 l 2
 178 7 139 0 122 0 c 0
 88 0 78 21 78 44 c 0
 78 51 79 58 80 65 c 2
 178 527 l 2
 202 642 299 722 389 722 c 0
 512 722 595 604 643 477 c 1
 681 653 l 2
 687 684 706 719 750 719 c 0
EndSplineSet
EndChar
StartChar: O
Encoding: 79 79 48
Width: 788
VWidth: 1473
Flags: W
HStem: -7 112<326.098 517.01> 608 112<427.123 616.687>
VStem: 109 114<207.84 404.796> 721 114<308.408 502.716>
Fore
109 282 m 0
 109 504 327 720 549 720 c 256
 722 720 835 590 835 430 c 0
 835 210 619 -7 395 -7 c 256
 227 -7 109 119 109 282 c 0
525 608 m 0
 376 608 223 466 223 301 c 0
 223 182 310 105 418 105 c 0
 568 105 721 252 721 409 c 0
 721 517 645 608 525 608 c 0
EndSplineSet
EndChar
StartChar: P
Encoding: 80 80 49
Width: 723
VWidth: 1473
Flags: W
HStem: -1 21G<93.5 131> 258 103<395.721 597.112> 617 105<376.645 611.24>
VStem: 672 115<430.672 564.88>
Fore
787 532 m 0
 787 422 707 258 470 258 c 0
 364 258 282 301 282 341 c 0
 282 359 304 401 345 401 c 0
 376 401 408 361 502 361 c 0
 631 361 672 446 672 503 c 0
 672 555 638 617 496 617 c 0
 339 617 279 549 257 448 c 2
 176 65 l 2
 169 32 152 -1 110 -1 c 0
 77 -1 66 20 66 43 c 0
 66 50 67 58 69 65 c 2
 158 485 l 2
 198 675 403 722 518 722 c 0
 686 722 787 647 787 532 c 0
EndSplineSet
EndChar
StartChar: Q
Encoding: 81 81 50
Width: 802
VWidth: 1473
Flags: W
HStem: -6 105<331.467 522.158> 197 94<371.364 550.678> 610 112<425.585 624.859>
VStem: 115 114<214.283 405.96> 727 114<378.569 505.932>
Fore
115 283 m 0
 115 483 293 722 555 722 c 0
 727 722 841 593 841 432 c 0
 841 404 839 269 715 140 c 1
 738 90 750 47 750 18 c 0
 750 -37 693 -43 686 -43 c 0
 643 -43 659 6 628 66 c 1
 574 31 486 -6 401 -6 c 0
 233 -6 115 120 115 283 c 0
532 610 m 0
 335 610 229 430 229 303 c 0
 229 264 239 228 260 197 c 1
 298 236 372 291 496 291 c 0
 527 291 593 287 661 233 c 1
 718 303 727 377 727 412 c 0
 727 523 651 610 532 610 c 0
309 134 m 1
 327 118 367 99 440 99 c 0
 483 99 515 104 594 156 c 1
 565 183 526 197 472 197 c 0
 393 197 340 164 309 134 c 1
EndSplineSet
EndChar
StartChar: R
Encoding: 82 82 51
Width: 746
VWidth: 1473
Flags: W
HStem: -10 21G<101 138.5 602.5 610> 265 96<532 604.174> 617 105<384.033 620.789>
VStem: 679 116<431.523 565.84>
Fore
668 42 m 0
 668 -2 612 -10 608 -10 c 0
 597 -10 572 -6 558 29 c 0
 526 121 436 206 377 251 c 2
 319 299 l 2
 305 309 290 325 290 342 c 0
 290 356 309 401 352 401 c 0
 385 401 415 361 510 361 c 0
 638 361 679 447 679 504 c 0
 679 573 620 617 519 617 c 0
 338 617 284 541 264 448 c 2
 183 65 l 2
 176 33 159 -1 118 -1 c 0
 84 -1 73 19 73 43 c 0
 73 50 74 58 76 65 c 2
 165 485 l 2
 201 655 379 722 526 722 c 0
 639 722 795 683 795 533 c 0
 795 379 661 265 532 265 c 1
 607 202 668 98 668 42 c 0
EndSplineSet
EndChar
StartChar: S
Encoding: 83 83 52
Width: 685
VWidth: 1473
Flags: W
HStem: -9 112<243.91 480.85> 303 112<295.486 535.014> 611 111<350.399 594.656>
VStem: 144 108<449.675 547.607> 579 112<168.682 269.575>
Fore
473 611 m 0
 296 611 252 539 252 490 c 0
 252 431 340 415 431 415 c 0
 542 415 691 381 691 252 c 0
 691 76 501 -9 341 -9 c 0
 169 -9 71 77 71 135 c 0
 71 172 111 201 141 201 c 0
 150 201 173 198 181 174 c 0
 208 118 308 103 365 103 c 0
 531 103 579 177 579 226 c 0
 579 288 488 303 407 303 c 0
 293 303 144 345 144 468 c 0
 144 620 305 722 496 722 c 0
 660 722 765 639 765 578 c 0
 765 541 727 512 697 512 c 0
 687 512 663 515 654 541 c 0
 637 589 539 611 473 611 c 0
EndSplineSet
EndChar
StartChar: T
Encoding: 84 84 53
Width: 651
VWidth: 1473
Flags: W
HStem: 0 21G<310 335> 608 114<312.184 400 509 599.175>
Fore
765 587 m 0
 765 551 728 523 698 523 c 0
 641 523 684 584 509 608 c 1
 394 65 l 2
 381 7 343 0 327 0 c 0
 293 0 282 19 282 42 c 0
 282 50 283 57 285 65 c 2
 400 608 l 1
 218 585 234 523 177 523 c 0
 152 523 133 540 133 566 c 0
 133 628 266 722 480 722 c 256
 673 722 765 645 765 587 c 0
EndSplineSet
EndChar
StartChar: U
Encoding: 85 85 54
Width: 749
VWidth: 1473
Flags: W
HStem: -7 97<283.693 507.739>
VStem: 120 107<141.14 252.588>
Fore
780 713 m 0
 808 713 821 693 821 666 c 0
 821 661 820 654 819 648 c 2
 740 277 l 2
 708 97 567 -7 375 -7 c 0
 176 -7 120 99 120 206 c 0
 120 231 123 257 128 281 c 2
 206 648 l 2
 212 679 231 713 276 713 c 0
 304 713 317 693 317 666 c 0
 317 661 316 654 315 648 c 2
 233 264 l 2
 229 246 227 229 227 213 c 0
 227 131 283 90 393 90 c 0
 568 90 614 197 627 259 c 2
 710 648 l 2
 716 679 735 713 780 713 c 0
EndSplineSet
EndChar
StartChar: V
Encoding: 86 86 55
Width: 655
VWidth: 1473
Flags: W
HStem: -3 93<296.097 405.518> 696 20G<220.5 244 714 737.5>
VStem: 158 111<117.822 662.719>
Fore
730 716 m 0
 745 716 776 708 776 675 c 0
 776 661 770 644 768 641 c 2
 587 212 l 2
 531 82 455 -3 326 -3 c 256
 198 -3 157 80 158 212 c 2
 159 644 l 1
 158 651 160 657 161 663 c 0
 170 705 213 716 228 716 c 0
 260 716 269 679 269 654 c 2
 269 224 l 2
 269 108 308 90 346 90 c 256
 389 90 433 112 483 225 c 2
 663 656 l 2
 673 678 698 716 730 716 c 0
EndSplineSet
EndChar
StartChar: W
Encoding: 87 87 56
Width: 997
VWidth: 1473
Flags: W
HStem: -12 109<234.494 403.367 659.875 806.341> 702 20G<236 263.5 626 655 1017.5 1045.5>
VStem: 91 113<126.019 198.092 185.295 210.889 210.889 225 225 241.577>
Fore
1040 722 m 0
 1051 722 1082 717 1082 678 c 0
 1082 671 1081 664 1079 656 c 2
 988 225 l 2
 954 68 830 -12 685 -12 c 0
 597 -12 530 37 514 85 c 1
 484 43 390 -12 300 -12 c 0
 175 -12 91 47 91 163 c 0
 91 182 93 203 98 225 c 2
 189 656 l 2
 195 684 214 722 258 722 c 0
 269 722 302 717 302 677 c 0
 302 671 302 664 300 656 c 2
 209 225 l 2
 206 210 204 197 204 184 c 0
 204 131 236 97 324 97 c 0
 397 97 471 146 488 225 c 2
 579 656 l 2
 585 681 604 722 648 722 c 0
 662 722 693 716 693 677 c 0
 693 671 692 664 690 656 c 2
 599 225 l 2
 597 214 595 203 595 194 c 0
 595 106 692 97 709 97 c 0
 804 97 861 140 879 225 c 2
 970 656 l 2
 977 688 995 722 1040 722 c 0
EndSplineSet
EndChar
StartChar: X
Encoding: 88 88 57
Width: 687
VWidth: 1473
Flags: W
HStem: -6 21G<77 97 587 608.5> 311 109<375.469 460.827> 699 20G<226.5 251 741 759.5>
Fore
747 719 m 0
 772 719 792 703 792 675 c 0
 792 659 787 648 780 638 c 2
 632 443 l 2
 607 412 582 390 542 368 c 1
 568 347 587 328 598 290 c 2
 660 74 l 2
 661 69 662 64 662 60 c 0
 662 22 624 -6 593 -6 c 0
 581 -6 558 -1 550 25 c 2
 490 236 l 2
 474 295 439 311 409 311 c 256
 383 311 358 310 296 236 c 2
 146 25 l 2
 128 -2 103 -6 91 -6 c 0
 63 -6 45 16 45 40 c 0
 45 47 45 53 59 74 c 2
 210 289 l 2
 235 325 267 348 300 368 c 1
 255 401 247 436 244 445 c 2
 178 636 l 2
 176 640 176 645 176 650 c 0
 176 681 208 719 245 719 c 0
 257 719 279 714 287 688 c 2
 351 491 l 2
 372 425 397 420 432 420 c 256
 471 420 496 428 545 492 c 2
 691 688 l 2
 711 714 735 719 747 719 c 0
EndSplineSet
EndChar
StartChar: Y
Encoding: 89 89 58
Width: 693
VWidth: 1473
Flags: W
HStem: 0 109<181.856 515.601> 212 109<325.967 519.794> 699 20G<240.5 279 713.5 752>
VStem: 152 111<383.299 479.715>
Fore
163 40 m 0
 163 66 178 109 241 109 c 2
 443 109 l 2
 497 109 558 144 571 206 c 2
 585 271 l 1
 559 250 501 212 391 212 c 0
 241 212 152 286 152 420 c 0
 152 445 155 471 161 499 c 2
 194 654 l 2
 201 685 219 719 262 719 c 0
 296 719 305 698 305 675 c 0
 305 668 304 661 303 654 c 2
 267 495 l 2
 264 481 263 468 263 456 c 0
 263 374 324 321 414 321 c 0
 513 321 595 362 624 455 c 2
 666 654 l 2
 672 683 691 719 736 719 c 0
 768 719 777 698 777 675 c 0
 777 668 776 661 775 654 c 2
 680 206 l 2
 651 72 527 0 420 0 c 2
 218 0 l 2
 191 0 163 8 163 40 c 0
EndSplineSet
EndChar
StartChar: Z
Encoding: 90 90 59
Width: 680
VWidth: 1473
Flags: W
HStem: -1 109<176.972 184 184 642.117> 608 109<197.402 663.028>
VStem: 65 111<77.0089 177.551> 665 110<539.169 638.894>
Fore
663 66 m 0
 663 47 647 -1 583 -1 c 2
 184 -1 l 2
 108 -1 65 45 65 111 c 0
 65 176 106 234 161 261 c 2
 633 532 l 2
 651 541 665 563 665 580 c 0
 665 596 655 608 631 608 c 2
 234 608 l 2
 212 608 177 617 177 651 c 0
 177 672 195 717 257 717 c 2
 656 717 l 2
 732 717 775 671 775 605 c 0
 775 537 732 479 679 455 c 2
 207 184 l 2
 189 175 176 155 176 135 c 0
 176 120 185 108 209 108 c 2
 606 108 l 2
 628 108 663 99 663 66 c 0
EndSplineSet
EndChar
StartChar: bracketleft
Encoding: 91 91 60
Width: 441
VWidth: 1473
Flags: W
HStem: -180 109<182 335.032> 653 109<336 513.91>
VStem: 59 472<-145 720 -145 -145>
Fore
531 720 m 0
 531 676 496 653 465 653 c 2
 336 653 l 1
 182 -71 l 1
 311 -71 l 2
 327 -71 355 -79 355 -109 c 0
 355 -141 330 -180 288 -180 c 2
 99 -180 l 2
 68 -180 59 -163 59 -145 c 0
 59 -138 60 -131 62 -124 c 2
 238 706 l 2
 244 732 260 762 299 762 c 2
 488 762 l 2
 516 762 531 745 531 720 c 0
EndSplineSet
EndChar
StartChar: backslash
Encoding: 92 92 61
Width: 366
VWidth: 1473
Flags: W
HStem: -5 21G<324.5 345.5>
VStem: 128 264
Fore
128 682 m 0
 128 731 173 743 189 743 c 0
 209 743 229 731 234 713 c 2
 391 69 l 2
 392 65 392 61 392 56 c 0
 392 19 360 -5 331 -5 c 0
 318 -5 293 0 287 27 c 2
 130 669 l 2
 129 674 128 678 128 682 c 0
EndSplineSet
EndChar
StartChar: bracketright
Encoding: 93 93 62
Width: 441
VWidth: 1473
Flags: W
HStem: -180 109<48.0898 74 74 225> 653 109<226.968 251 251 379>
VStem: 31 470<-138 725 -161 -10>
Fore
207 691 m 0
 207 723 232 762 274 762 c 2
 463 762 l 2
 492 762 501 746 501 725 c 0
 501 719 500 713 499 706 c 2
 323 -124 l 2
 320 -147 306 -180 263 -180 c 2
 74 -180 l 2
 46 -180 31 -163 31 -138 c 0
 31 -94 66 -71 97 -71 c 2
 225 -71 l 1
 379 653 l 1
 251 653 l 2
 235 653 207 661 207 691 c 0
EndSplineSet
EndChar
StartChar: asciicircum
Encoding: 94 94 63
Width: 718
VWidth: 1473
Flags: W
HStem: 253 473
VStem: 198 461<261 311 290 315 290 290>
Fore
659 315 m 0
 659 261 615 251 597 251 c 0
 566 251 557 271 553 286 c 2
 486 575 l 1
 297 286 l 2
 290 277 270 253 240 253 c 0
 227 253 198 261 198 290 c 0
 198 311 216 338 219 343 c 2
 473 701 l 2
 480 710 494 726 519 726 c 256
 537 726 549 715 553 701 c 2
 655 343 l 2
 657 333 659 324 659 315 c 0
EndSplineSet
EndChar
StartChar: underscore
Encoding: 95 95 64
Width: 736
VWidth: 1473
Flags: W
HStem: -169 95<-16 701>
Fore
-36 -169 m 1
 -16 -74 l 1
 721 -74 l 1
 701 -169 l 1
 -36 -169 l 1
EndSplineSet
EndChar
StartChar: grave
Encoding: 96 96 65
Width: 343
VWidth: 1473
Flags: W
HStem: 435 282<281.642 319.236>
VStem: 227 147<477 671 477 477>
Fore
330 717 m 0
 364 717 374 694 374 671 c 0
 374 665 373 659 372 653 c 2
 339 499 l 2
 327 443 289 435 270 435 c 0
 237 435 227 454 227 477 c 0
 227 484 228 491 230 499 c 2
 263 653 l 2
 269 684 287 717 330 717 c 0
EndSplineSet
EndChar
StartChar: a
Encoding: 97 97 66
Width: 633
VWidth: 1473
Flags: W
HStem: -7 92<220.987 384.555> 273 95<257.457 473.945> 429 101<272.18 507.058>
VStem: 80 105<117.668 214.828> 540 100<317.43 396.891>
Fore
160 419 m 0
 160 483 303 530 406 530 c 0
 559 530 640 483 640 364 c 0
 640 342 637 317 631 289 c 2
 580 46 l 2
 573 13 542 -7 515 -7 c 256
 492 -7 476 7 476 28 c 0
 476 37 478 39 480 46 c 1
 424 1 339 -7 297 -7 c 0
 173 -7 80 36 80 136 c 0
 80 275 220 368 384 368 c 0
 446 368 525 348 538 314 c 1
 539 323 540 331 540 339 c 0
 540 405 497 429 387 429 c 0
 279 429 227 380 196 380 c 0
 183 380 160 395 160 419 c 0
360 273 m 0
 269 273 185 229 185 162 c 0
 185 116 238 85 316 85 c 0
 403 85 507 118 507 196 c 0
 507 257 436 273 360 273 c 0
EndSplineSet
Substitution2: "Single Substitution lookup 22 subtable" uni0E38
Substitution2: "Single Substitution lookup 22 subtable" uni0E38
EndChar
StartChar: b
Encoding: 98 98 67
Width: 674
VWidth: 1473
Flags: W
HStem: -7 109<274.766 464.066> 427 107<342.471 526.371> 815 20G<284 310.5>
VStem: 74 151<21 279.5> 580 108<214.52 377.049>
Back
75 44 m 0
 103 177 103 177 125 279.5 c 128
 147 382 147 382 163.5 458.5 c 128
 180 535 180 535 191 588.5 c 128
 202 642 202 642 209 678 c 2
 230 781 l 2
 232.667 795.667 240.833 808.333 254.5 819 c 128
 268.167 829.667 282.667 835 298 835 c 256
 312.667 835 323.833 829.667 331.5 819 c 128
 339.167 808.333 341.667 795.667 339 781 c 2
 273 468 l 1
 294.333 484 319.167 497.333 347.5 508 c 128
 375.833 518.667 412.333 524 457 524 c 0
 500.333 524 537.833 517.5 569.5 504.5 c 128
 601.167 491.5 626.333 473.167 645 449.5 c 128
 663.667 425.833 676 397.833 682 365.5 c 128
 688 333.167 687 297.667 679 259 c 256
 671 221 657.167 185.833 637.5 153.5 c 128
 617.833 121.167 593.833 92.8333 565.5 68.5 c 128
 537.167 44.1667 504.167 25.5 466.5 12.5 c 128
 428.833 -0.5 387.667 -7 343 -7 c 0
 309 -7 278 -2.33333 250 7 c 128
 222 16.3333 199.667 30.6667 183 50 c 1
 179.667 35.3333 172.667 21.8333 162 9.5 c 128
 151.333 -2.83333 136.667 -9 118 -9 c 0
 103.333 -9 91.8333 -3.83333 83.5 6.5 c 128
 75.1667 16.8333 72.3333 29.3333 75 44 c 0
228 259 m 1
 216.667 204.333 224 164.5 250 139.5 c 128
 276 114.5 315 102 367 102 c 256
 419 102 463.667 115 501 141 c 128
 538.333 167 562.333 206.333 573 259 c 0
 583.667 308.333 576.5 347 551.5 375 c 128
 526.5 403 487.667 417 435 417 c 0
 389.667 417 347 404 307 378 c 128
 267 352 240.667 313 228 261 c 1
 228 259 l 1
EndSplineSet
Fore
688 329 m 0
 688 179 573 -7 345 -7 c 0
 292 -7 221 5 183 50 c 1
 179 25 160 -9 119 -9 c 0
 92 -9 74 9 74 33 c 0
 74 37 74 40 75 44 c 2
 232 781 l 2
 239 812 270 835 298 835 c 256
 323 835 341 818 341 793 c 0
 341 789 341 785 340 781 c 2
 276 478 l 1
 333 523 397 534 460 534 c 0
 610 534 688 448 688 329 c 0
368 102 m 256
 512 102 580 210 580 305 c 0
 580 381 528 427 437 427 c 0
 324 427 225 340 225 219 c 0
 225 129 296 102 368 102 c 256
EndSplineSet
Substitution2: "Single Substitution lookup 22 subtable" uni0E39
Substitution2: "Single Substitution lookup 22 subtable" uni0E39
EndChar
StartChar: c
Encoding: 99 99 68
Width: 595
VWidth: 1473
Flags: W
HStem: -13 102<260.64 439.176> 424 103<326.302 506.792>
VStem: 95 109<141.631 298.067>
Fore
577 124 m 0
 577 52 434 -13 329 -13 c 0
 234 -13 95 28 95 184 c 0
 95 360 235 527 443 527 c 0
 553 527 638 468 638 413 c 0
 638 372 598 350 574 350 c 0
 522 350 543 424 421 424 c 0
 291 424 204 320 204 211 c 0
 204 115 289 89 346 89 c 0
 470 89 481 164 534 164 c 0
 552 164 577 152 577 124 c 0
EndSplineSet
Substitution2: "Single Substitution lookup 22 subtable" uni0E3A
Substitution2: "Single Substitution lookup 22 subtable" uni0E3A
EndChar
StartChar: d
Encoding: 100 100 69
Width: 674
VWidth: 1473
Flags: W
HStem: -7 109<258.325 441.838> 427 107<320.829 501.598> 815 20G<714.5 743>
VStem: 98 108<149.515 311.681>
Back
616 44 m 0
 612.667 29.3333 604.5 16.8333 591.5 6.5 c 128
 578.5 -3.83333 564.667 -9 550 -9 c 0
 531.333 -9 519 -2.83333 513 9.5 c 128
 507 21.8333 506.333 35.3333 511 50 c 1
 485.667 30.6667 456.833 16.3333 424.5 7 c 128
 392.167 -2.33333 358.667 -7 324 -7 c 0
 280 -7 242 -0.5 210 12.5 c 128
 178 25.5 153 44.1667 135 68.5 c 128
 117 92.8333 105.167 121.167 99.5 153.5 c 128
 93.8333 185.833 95 221 103 259 c 256
 111 297.667 124.833 333.167 144.5 365.5 c 128
 164.167 397.833 188.5 425.833 217.5 449.5 c 128
 246.5 473.167 279.667 491.5 317 504.5 c 128
 354.333 517.5 394.667 524 438 524 c 0
 482 524 516.167 518.667 540.5 508 c 128
 564.833 497.333 584 484 598 468 c 1
 664 781 l 2
 667.333 795.667 675.333 808.333 688 819 c 128
 700.667 829.667 714.333 835 729 835 c 256
 743.667 835 755.167 829.667 763.5 819 c 128
 771.833 808.333 774.667 795.667 772 781 c 0
 768 762 768 762 750 678 c 0
 742 642 742 642 730.5 588.5 c 128
 719 535 719 535 703 458.5 c 128
 687 382 687 382 665.5 279.5 c 128
 644 177 644 177 616 44 c 0
554 261 m 1
 558.667 286.333 558.333 308.833 553 328.5 c 128
 547.667 348.167 538.667 364.667 526 378 c 128
 513.333 391.333 497.333 401.167 478 407.5 c 128
 458.667 413.833 437.667 417 415 417 c 0
 362.333 417 317.5 403 280.5 375 c 128
 243.5 347 219.667 308.333 209 259 c 0
 198.333 206.333 205.833 167 231.5 141 c 128
 257.167 115 296 102 348 102 c 256
 400 102 444.333 114.5 481 139.5 c 128
 517.667 164.5 542 204.333 554 259 c 1
 554 261 l 1
EndSplineSet
Fore
98 197 m 0
 98 360 224 534 441 534 c 0
 504 534 562 523 601 478 c 1
 665 781 l 2
 672 812 700 835 729 835 c 256
 757 835 774 816 774 792 c 0
 774 788 774 785 773 781 c 2
 616 44 l 2
 610 15 582 -9 550 -9 c 0
 518 -9 509 10 509 30 c 0
 509 37 510 44 512 50 c 1
 454 5 379 -7 326 -7 c 0
 153 -7 98 94 98 197 c 0
418 427 m 0
 279 427 206 320 206 220 c 0
 206 129 280 102 349 102 c 256
 517 102 559 238 559 301 c 0
 559 377 502 427 418 427 c 0
EndSplineSet
EndChar
StartChar: e
Encoding: 101 101 70
Width: 645
VWidth: 1473
Flags: W
HStem: -7 97<257.978 454.07> 222 98<233 552.972> 436 96<329.911 489.566>
VStem: 97 107<140.255 214.243> 557 103<321.512 390.908>
Fore
660 351 m 0
 660 288 634 222 530 222 c 2
 205 222 l 1
 205 217 204 212 204 207 c 0
 204 133 262 90 348 90 c 0
 479 90 494 159 542 159 c 0
 564 159 582 143 582 120 c 0
 582 109 579 86 552 68 c 0
 469 7 402 -7 329 -7 c 0
 220 -7 97 34 97 187 c 0
 97 381 250 532 443 532 c 0
 606 532 660 435 660 351 c 0
557 320 m 1
 555 435 458 436 426 436 c 0
 319 436 245 364 233 320 c 1
 557 320 l 1
EndSplineSet
EndChar
StartChar: f
Encoding: 102 102 71
Width: 371
VWidth: 1473
Flags: W
HStem: -4 21G<113 136> 420 107<330.847 436.088> 737 107<372.141 593.635>
Fore
456 484 m 0
 456 465 438 420 379 420 c 2
 334 420 l 2
 301 420 271 413 258 354 c 2
 196 60 l 2
 184 3 143 -4 129 -4 c 0
 97 -4 88 16 88 39 c 0
 88 46 89 53 90 60 c 2
 210 625 l 2
 235 745 331 844 465 844 c 2
 559 844 l 2
 582 844 612 835 612 804 c 0
 612 781 597 737 537 737 c 2
 443 737 l 2
 361 737 326 675 316 625 c 2
 288 496 l 1
 300 523 342 527 365 527 c 2
 402 527 l 2
 450 527 456 498 456 484 c 0
EndSplineSet
EndChar
StartChar: g
Encoding: 103 103 72
Width: 667
VWidth: 1473
Flags: W
HStem: -262 107<219.103 397.67> -1 109<254.085 437.552> 423 109<313.867 504.327>
VStem: 96 108<153.64 310.914>
Fore
96 200 m 0
 96 354 214 532 440 532 c 0
 543 532 590 484 600 473 c 1
 603 492 620 533 665 533 c 256
 701 533 708 506 708 488 c 0
 708 483 708 479 707 476 c 2
 707 473 705 471 704 468 c 2
 604 -6 l 2
 566 -183 407 -262 283 -262 c 0
 159 -262 99 -197 99 -153 c 0
 99 -124 133 -92 163 -92 c 0
 182 -92 201 -101 206 -119 c 1
 213 -134 241 -155 307 -155 c 0
 357 -155 471 -134 498 -6 c 2
 513 65 l 1
 465 25 400 -1 327 -1 c 0
 191 -1 96 70 96 200 c 0
417 423 m 0
 247 423 204 292 204 222 c 0
 204 132 279 108 350 108 c 0
 517 108 559 240 559 301 c 0
 559 376 503 423 417 423 c 0
EndSplineSet
EndChar
StartChar: h
Encoding: 104 104 73
Width: 662
VWidth: 1473
Flags: W
HStem: -7 21G<104 132.5 530 557.5> 421 109<347.174 517.267> 836 20G<286.5 313>
VStem: 554 107<285.948 387.362>
Fore
444 530 m 0
 613 530 661 435 661 338 c 0
 661 313 658 288 653 264 c 2
 607 47 l 2
 600 16 572 -7 543 -7 c 256
 517 -7 500 14 500 37 c 0
 500 40 500 44 501 47 c 2
 547 264 l 2
 552 286 554 304 554 321 c 0
 554 400 502 421 420 421 c 0
 332 421 247 352 230 273 c 2
 182 47 l 2
 175 16 147 -7 118 -7 c 0
 90 -7 75 12 75 35 c 0
 75 39 75 43 76 47 c 2
 237 803 l 2
 243 835 272 856 301 856 c 0
 325 856 344 839 344 813 c 0
 344 810 344 807 343 803 c 2
 269 458 l 1
 309 500 385 530 444 530 c 0
EndSplineSet
EndChar
StartChar: i
Encoding: 105 105 74
Width: 237
VWidth: 1473
Flags: W
HStem: -6 533<118 231> 585 132<212.829 296.949>
VStem: 189 135<611.905 692.117>
Fore
118 -6 m 0
 132 -6 171 2 184 59 c 2
 269 463 l 2
 271 471 272 479 272 487 c 0
 272 509 262 527 231 527 c 0
 189 527 171 492 164 463 c 2
 79 59 l 2
 77 52 76 44 76 37 c 0
 76 14 86 -6 118 -6 c 0
189 632 m 0
 189 662 205 717 270 717 c 0
 294 717 324 708 324 671 c 0
 324 646 308 585 242 585 c 0
 201 585 189 608 189 632 c 0
EndSplineSet
EndChar
StartChar: j
Encoding: 106 106 75
Width: 238
VWidth: 1473
Flags: W
HStem: -303 106<-110.125 6.27496> 586 133<213.055 298.708>
VStem: -128 452<-262 673 10.9041 32.0308> 189 135<612.665 694.524>
Fore
-63 -197 m 0xe0
 -102 -197 -128 -231 -128 -262 c 0
 -128 -287 -110 -303 -85 -303 c 0
 31 -303 122 -245 158 -68 c 2
 271 466 l 2
 272 471 273 478 273 484 c 0
 273 506 264 529 231 529 c 256
 189 529 170 489 165 466 c 2
 52 -68 l 2
 31 -165 16 -197 -63 -197 c 0xe0
189 635 m 0xd0
 189 665 205 719 271 719 c 0
 296 719 324 710 324 673 c 0xe0
 324 646 308 586 243 586 c 0
 201 586 189 610 189 635 c 0xd0
EndSplineSet
EndChar
StartChar: k
Encoding: 107 107 76
Width: 561
VWidth: 1473
Flags: W
HStem: -8 21G<101 125 480.5 500> 508 20G<620 636> 818 20G<275 312>
VStem: 449 111<11.0719 183.984>
Fore
560 71 m 0
 560 1 510 -8 490 -8 c 0
 471 -8 449 4 449 31 c 2
 449 45 l 2
 449 211 373 290 354 305 c 1
 221 237 l 1
 184 59 l 2
 171 1 133 -7 117 -7 c 0
 85 -7 75 14 75 37 c 0
 75 43 76 50 77 57 c 2
 229 773 l 2
 236 805 254 838 296 838 c 0
 328 838 338 818 338 795 c 0
 338 788 337 780 335 773 c 2
 245 349 l 1
 446 442 l 2
 496 466 580 506 610 526 c 1
 614 527 618 528 622 528 c 0
 650 528 662 506 662 486 c 0
 662 449 624 431 590 416 c 2
 458 354 l 1
 540 269 560 132 560 71 c 0
EndSplineSet
EndChar
StartChar: l
Encoding: 108 108 77
Width: 238
VWidth: 1473
Flags: W
HStem: -1 21G<104 128> 827 20G<279 316.5>
VStem: 77 263<43 801 43 43>
Fore
301 847 m 0
 332 847 340 823 340 801 c 0
 340 794 339 787 338 782 c 2
 185 63 l 2
 173 6 135 -1 121 -1 c 0
 87 -1 77 20 77 43 c 0
 77 50 78 56 79 63 c 2
 232 782 l 2
 239 812 257 847 301 847 c 0
EndSplineSet
EndChar
StartChar: m
Encoding: 109 109 78
Width: 932
VWidth: 1473
Flags: W
HStem: -1 21G<104.5 130.5 454.5 481.5 806.5 833.5> 433 102<327.652 458.125 656.363 807.308>
VStem: 833 110<313.651 407.999>
Fore
758 535 m 0
 899 535 943 466 943 373 c 0
 943 345 939 316 933 286 c 2
 883 53 l 2
 877 22 848 -1 819 -1 c 0
 794 -1 776 20 776 43 c 0
 776 46 776 50 777 53 c 2
 826 284 l 2
 831 307 833 326 833 343 c 0
 833 411 795 433 736 433 c 0
 673 433 605 392 593 333 c 2
 533 53 l 2
 527 22 495 -1 468 -1 c 0
 441 -1 424 19 424 42 c 0
 424 46 424 49 425 53 c 2
 485 333 l 2
 486 340 487 347 487 353 c 0
 487 402 445 433 391 433 c 0
 287 433 244 361 229 284 c 2
 180 53 l 2
 174 22 145 -1 116 -1 c 0
 93 -1 73 19 73 43 c 0
 73 47 73 50 74 53 c 2
 165 480 l 2
 171 509 204 535 230 535 c 0
 257 535 272 514 272 491 c 0
 272 483 270 472 269 470 c 1
 303 512 370 535 413 535 c 0
 491 535 540 503 567 454 c 1
 606 503 696 535 758 535 c 0
EndSplineSet
EndChar
StartChar: n
Encoding: 110 110 79
Width: 662
VWidth: 1473
Flags: W
HStem: -1 21G<109 135.5 532 558.5> 426 107<351.267 510.008>
VStem: 553 109<284.522 385.438>
Fore
447 535 m 0
 590 535 662 460 662 342 c 0
 662 319 660 294 654 268 c 2
 608 53 l 2
 602 22 573 -1 544 -1 c 0
 520 -1 501 18 501 43 c 0
 501 46 501 50 502 53 c 2
 548 268 l 2
 551 284 553 300 553 315 c 0
 553 374 524 426 424 426 c 0
 318 426 253 372 230 264 c 2
 185 53 l 2
 179 22 150 -1 121 -1 c 0
 97 -1 76 18 76 43 c 0
 76 47 76 50 77 53 c 2
 168 479 l 2
 174 507 206 533 232 533 c 0
 259 533 277 513 277 489 c 0
 277 481 274 468 272 463 c 1
 319 505 383 535 447 535 c 0
EndSplineSet
EndChar
StartChar: o
Encoding: 111 111 80
Width: 659
VWidth: 1473
Flags: W
HStem: 1 107<253.65 456.863> 429 106<318.111 513.293>
VStem: 99 106<154.074 314.644> 566 105<218.073 378.033>
Fore
99 199 m 0
 99 359 220 535 443 535 c 0
 607 535 671 435 671 328 c 0
 671 187 563 1 329 1 c 0
 183 1 99 74 99 199 c 0
420 429 m 0
 241 429 205 290 205 223 c 0
 205 132 279 108 352 108 c 0
 523 108 566 240 566 307 c 0
 566 366 535 429 420 429 c 0
EndSplineSet
EndChar
StartChar: p
Encoding: 112 112 81
Width: 674
VWidth: 1473
Flags: W
HStem: -312 21G<40 66> -1 107<271.815 468.528> 421 111<352 526.44>
VStem: 576 112<215.764 372.431>
Fore
688 338 m 0
 688 222 619 -1 343 -1 c 0
 271 -1 216 21 183 53 c 1
 117 -258 l 2
 110 -290 80 -312 52 -312 c 0
 28 -312 7 -294 7 -269 c 0
 7 -265 7 -262 8 -258 c 2
 164 477 l 2
 171 506 203 532 229 532 c 0
 254 532 271 514 271 490 c 0
 271 486 271 481 270 477 c 2
 267 460 l 1
 284 475 352 530 456 530 c 0
 604 530 688 463 688 338 c 0
432 421 m 0
 254 421 221 275 221 219 c 0
 221 146 274 106 366 106 c 0
 546 106 576 248 576 303 c 0
 576 362 543 421 432 421 c 0
EndSplineSet
EndChar
StartChar: q
Encoding: 113 113 82
Width: 674
VWidth: 1473
Flags: W
HStem: -312 21G<471 502> -1 107<260.964 445.278> 421 109<318.183 509.528>
VStem: 98 110<156.252 311.259> 563 148<281.5 502.5>
Fore
98 202 m 0
 98 353 217 530 442 530 c 0
 546 530 589 481 601 467 c 1
 603 477 l 2
 610 508 639 532 668 532 c 0
 691 532 711 514 711 491 c 0
 711 486 711 482 709 477 c 1
 552 -258 l 2
 545 -290 516 -312 488 -312 c 0
 454 -312 445 -289 445 -270 c 0
 445 -266 445 -262 446 -258 c 2
 512 53 l 1
 450 12 380 -1 329 -1 c 0
 188 -1 98 78 98 202 c 0
418 421 m 0
 271 421 208 311 208 225 c 0
 208 151 261 106 352 106 c 0
 532 106 563 256 563 307 c 0
 563 380 504 421 418 421 c 0
EndSplineSet
EndChar
StartChar: r
Encoding: 114 114 83
Width: 439
VWidth: 1473
Flags: W
HStem: -1 21G<97 123.5> 420 107<353.58 510.791>
VStem: 66 464<43 488 458.648 503.665>
Fore
530 488 m 0
 530 466 514 420 453 420 c 2
 418 420 l 1
 350 410 242 375 204 196 c 2
 173 53 l 2
 167 22 138 -1 109 -1 c 0
 85 -1 66 18 66 43 c 0
 66 46 66 50 67 53 c 2
 154 463 l 2
 168 526 209 527 221 527 c 0
 253 527 263 508 263 485 c 0
 263 478 262 470 260 463 c 2
 255 438 l 1
 301 485 370 527 454 527 c 2
 476 527 l 2
 502 527 530 518 530 488 c 0
EndSplineSet
EndChar
StartChar: s
Encoding: 115 115 84
Width: 531
VWidth: 1473
Flags: W
HStem: -10 94<218.848 381.316> 438 97<274.565 435.954>
VStem: 141 112<345.504 415.361> 413 111<113.683 186.215>
Back
550 379 m 0
 532.667 367 515.5 362.667 498.5 366 c 128
 481.5 369.333 470.667 376.333 466 387 c 0
 456.667 407 440.5 421.333 417.5 430 c 128
 394.5 438.667 371.167 442.5 347.5 441.5 c 128
 323.833 440.5 302.5 435 283.5 425 c 128
 264.5 415 254.333 401 253 383 c 0
 252.333 370.333 258.167 359.333 270.5 350 c 128
 282.833 340.667 297 332.5 313 325.5 c 128
 329 318.5 344.167 313 358.5 309 c 128
 372.833 305 381.667 302.667 385 302 c 0
 399.667 297.333 414.833 291.667 430.5 285 c 128
 446.167 278.333 460.667 270.333 474 261 c 128
 487.333 251.667 498.667 241 508 229 c 128
 517.333 217 522 203 522 187 c 0
 523.333 153 516.167 122.833 500.5 96.5 c 128
 484.833 70.1667 464 48.5 438 31.5 c 128
 412 14.5 382.667 1.83333 350 -6.5 c 128
 317.333 -14.8333 284.667 -18.6667 252 -18 c 0
 226.667 -18 203.333 -14.3333 182 -7 c 128
 160.667 0.333333 142.167 10 126.5 22 c 128
 110.833 34 98.3333 47.3333 89 62 c 128
 79.6667 76.6667 73.6667 92 71 108 c 0
 67.6667 121.333 70.5 135.667 79.5 151 c 128
 88.5 166.333 101.333 176.333 118 181 c 0
 133.333 185 147.167 184 159.5 178 c 128
 171.833 172 179.667 162.333 183 149 c 0
 185.667 138.333 190.5 128.5 197.5 119.5 c 128
 204.5 110.5 212.667 102.833 222 96.5 c 128
 231.333 90.1667 241.333 85.3333 252 82 c 128
 262.667 78.6667 272.333 77 281 77 c 0
 294.333 75.6667 308.5 76.5 323.5 79.5 c 128
 338.5 82.5 352.667 87 366 93 c 128
 379.333 99 390.333 106.833 399 116.5 c 128
 407.667 126.167 411.667 138 411 152 c 0
 411 164.667 402.833 175.833 386.5 185.5 c 128
 370.167 195.167 351 204.167 329 212.5 c 128
 307 220.833 285.167 228 263.5 234 c 128
 241.833 240 226.333 245.333 217 250 c 0
 194.333 260 176.5 273.833 163.5 291.5 c 128
 150.5 309.167 143.333 328.667 142 350 c 128
 140.667 371.333 145.167 393.167 155.5 415.5 c 128
 165.833 437.833 182.667 459 206 479 c 0
 232 500.333 263.667 516.167 301 526.5 c 128
 338.333 536.833 375.333 540.833 412 538.5 c 128
 448.667 536.167 482 527.333 512 512 c 128
 542 496.667 562.333 475.333 573 448 c 0
 577.667 435.333 577.667 422.5 573 409.5 c 128
 568.333 396.5 560.667 386.333 550 379 c 0
EndSplineSet
Fore
578 426 m 0
 578 388 538 363 511 363 c 0
 491 363 473 372 467 385 c 0
 447 424 399 438 355 438 c 0
 300 438 253 415 253 380 c 0
 253 332 358 311 385 302 c 0
 503 266 524 217 524 179 c 0
 524 66 405 -10 261 -10 c 0
 125 -10 71 77 71 123 c 0
 71 150 96 187 137 187 c 0
 151 187 178 182 185 153 c 0
 193 112 239 84 295 84 c 0
 336 84 413 102 413 151 c 0
 413 210 269 227 217 250 c 0
 162 273 141 316 141 357 c 0
 141 457 257 535 392 535 c 0
 511 535 578 474 578 426 c 0
EndSplineSet
EndChar
StartChar: t
Encoding: 116 116 85
Width: 409
VWidth: 1473
Flags: W
HStem: 0 108<239.507 399.144> 420 107<284 427.715> 812 20G<276 313.5>
VStem: 105 110<131.085 206.243> 105 341
Fore
446 487 m 0xe8
 446 464 432 420 369 420 c 2
 261 420 l 1
 219 220 l 2
 216 207 215 196 215 186 c 0
 215 124 261 108 313 108 c 2
 365 108 l 2
 388 108 418 100 418 68 c 0
 418 36 395 0 342 0 c 2
 290 0 l 2
 200 0 105 33 105 154 c 0xf0
 105 174 108 196 113 220 c 2
 229 768 l 2
 236 800 254 832 298 832 c 0
 329 832 338 812 338 790 c 0
 338 783 337 775 335 768 c 2
 284 527 l 1
 392 527 l 2
 417 527 446 518 446 487 c 0xe8
EndSplineSet
EndChar
StartChar: u
Encoding: 117 117 86
Width: 658
VWidth: 1473
Flags: W
HStem: -7 109<262.619 431.204> 507 20G<215 242>
VStem: 110 109<143.903 241.627>
Fore
653 527 m 0
 676 527 696 509 696 485 c 0
 696 481 696 478 695 474 c 2
 604 49 l 2
 598 19 572 -6 540 -6 c 0
 516 -6 495 9 495 32 c 0
 495 35 496 40 497 44 c 2
 500 56 l 1
 451 18 392 -7 328 -7 c 0
 158 -7 110 88 110 185 c 0
 110 210 113 235 118 259 c 2
 164 474 l 2
 170 504 202 527 228 527 c 0
 256 527 272 512 272 488 c 0
 272 484 271 479 270 474 c 2
 224 259 l 2
 221 244 219 228 219 213 c 0
 219 154 249 102 351 102 c 0
 461 102 520 151 543 259 c 2
 589 474 l 2
 595 505 624 527 653 527 c 0
EndSplineSet
EndChar
StartChar: v
Encoding: 118 118 87
Width: 589
VWidth: 1473
Flags: W
HStem: -8 103<274.256 361.064> 507 20G<163 186.5 624 642>
Fore
112 463 m 0
 112 493 146 527 180 527 c 0
 193 527 219 520 222 491 c 2
 266 149 l 2
 271 111 282 95 313 95 c 256
 348 95 367 117 384 149 c 2
 572 491 l 2
 590 520 618 527 630 527 c 0
 654 527 675 510 675 483 c 0
 675 478 674 471 667 456 c 2
 474 109 l 2
 422 15 347 -8 291 -8 c 256
 197 -8 170 53 159 109 c 2
 113 456 l 2
 113 458 112 461 112 463 c 0
EndSplineSet
EndChar
StartChar: w
Encoding: 119 119 88
Width: 880
VWidth: 1473
Flags: W
HStem: -7 109<220.5 373.3 555.54 716.458> 507 20G<185.5 212 537.5 565 888.5 915>
VStem: 80 109<134.536 229.623>
Fore
903 527 m 0
 927 527 946 510 946 484 c 0
 946 481 946 478 945 474 c 2
 898 255 l 2
 854 45 720 -7 607 -7 c 0
 506 -7 462 46 452 63 c 1
 399 14 321 -7 270 -7 c 0
 124 -7 80 73 80 170 c 0
 80 198 84 229 90 259 c 2
 136 474 l 2
 142 505 171 527 200 527 c 0
 224 527 243 510 243 484 c 0
 243 481 243 478 242 474 c 2
 195 255 l 2
 192 238 189 221 189 204 c 0
 189 150 213 102 293 102 c 0
 350 102 414 131 427 193 c 2
 487 474 l 2
 493 505 524 527 551 527 c 0
 579 527 595 512 595 488 c 0
 595 484 594 479 593 474 c 2
 533 193 l 2
 532 186 531 180 531 174 c 0
 531 127 575 102 630 102 c 0
 708 102 766 130 793 259 c 2
 839 474 l 2
 845 505 874 527 903 527 c 0
EndSplineSet
EndChar
StartChar: x
Encoding: 120 120 89
Width: 573
VWidth: 1473
Flags: W
HStem: -4 21G<61.5 88 485.5 511> 224 84<332.456 370.589> 511 20G<166 203 605 622.5>
Fore
121 463 m 0
 121 485 141 531 191 531 c 0
 215 531 221 518 226 508 c 2
 318 326 l 2
 324 314 334 308 351 308 c 0
 366 308 380 314 391 325 c 2
 562 508 l 2
 581 529 601 530 609 530 c 0
 636 530 653 513 653 488 c 0
 653 484 652 463 633 442 c 2
 496 296 l 2
 487 287 459 268 436 265 c 1
 468 261 483 240 486 234 c 2
 559 84 l 2
 562 79 563 73 563 67 c 0
 563 23 526 -4 496 -4 c 0
 475 -4 462 6 456 19 c 2
 385 172 l 2
 367 210 366 224 334 224 c 0
 310 224 293 208 262 172 c 2
 123 19 l 2
 117 12 101 -4 75 -4 c 0
 48 -4 31 14 31 39 c 0
 31 59 40 74 49 84 c 2
 186 234 l 2
 203 253 228 265 248 265 c 1
 226 268 206 287 200 296 c 2
 126 442 l 2
 123 449 121 456 121 463 c 0
EndSplineSet
EndChar
StartChar: y
Encoding: 121 121 90
Width: 602
VWidth: 1473
Flags: W
HStem: -284 107<175.204 352.439> -3 109<228.459 415.008> 512 20G<188 215.5 602 644>
VStem: 83 107<142.756 241.023>
Fore
121 -114 m 0
 184 -114 128 -177 262 -177 c 0
 314 -177 427 -153 454 -27 c 2
 470 49 l 1
 450 34 395 -3 300 -3 c 0
 131 -3 83 92 83 190 c 0
 83 215 86 240 91 264 c 2
 137 479 l 2
 143 509 175 532 201 532 c 0
 230 532 244 515 244 492 c 0
 244 488 244 483 243 479 c 2
 197 264 l 2
 193 243 190 225 190 209 c 0
 190 137 234 106 324 106 c 0
 411 106 483 133 516 264 c 2
 560 470 l 2
 563 485 578 533 626 533 c 256
 662 533 670 507 670 488 c 0
 670 477 668 477 666 470 c 2
 560 -27 l 2
 526 -190 383 -284 240 -284 c 0
 116 -284 55 -219 55 -177 c 0
 55 -150 88 -114 121 -114 c 0
EndSplineSet
EndChar
StartChar: z
Encoding: 122 122 91
Width: 545
VWidth: 1473
Flags: W
HStem: -1 109<186.781 491.168> 418 109<162.832 465.812>
VStem: 70 103<76.7385 165.089> 481 103<362.946 447.161>
Fore
143 460 m 0
 143 481 160 527 222 527 c 2
 464 527 l 2
 548 527 584 478 584 419 c 0
 584 335 520 292 489 278 c 2
 211 174 l 2
 186 165 173 147 173 130 c 0
 173 112 190 108 215 108 c 2
 455 108 l 2
 477 108 511 99 511 66 c 0
 511 45 494 -1 432 -1 c 2
 190 -1 l 2
 112 -1 70 44 70 108 c 0
 70 172 110 226 165 250 c 2
 443 355 l 2
 471 364 481 380 481 396 c 0
 481 413 462 418 440 418 c 2
 199 418 l 2
 177 418 143 427 143 460 c 0
EndSplineSet
EndChar
StartChar: braceleft
Encoding: 123 123 92
Width: 441
VWidth: 1473
Flags: W
VStem: 122 382<278 702 604.005 875.957> 153 112<-46.0817 24.9126 11.4802 38.3449 38.3449 52 52 68.2105> 183 109<142.684 230.616>
Fore
330 -102 m 0x40
 330 -138 290 -168 263 -168 c 0
 235 -168 207 -147 179 -106 c 0
 162 -81 153 -49 153 -11 c 0x40
 153 8 155 29 160 52 c 2
 179 140 l 2
 182 153 183 165 183 175 c 0x20
 183 246 122 240 122 278 c 0
 122 346 217 321 243 440 c 2
 262 530 l 2
 276 597 305 650 348 688 c 0
 395 729 431 748 458 748 c 0
 486 748 504 724 504 702 c 0x80
 504 638 397 655 371 530 c 2
 352 440 l 2
 336 369 293 320 240 290 c 1
 283 258 292 215 292 182 c 0x20
 292 165 290 150 288 140 c 2
 269 52 l 2
 266 37 265 25 265 14 c 0
 265 -63 330 -61 330 -102 c 0x40
EndSplineSet
EndChar
StartChar: bar
Encoding: 124 124 93
Width: 294
VWidth: 1473
Flags: W
HStem: 777 20G<296 334.5>
VStem: 59 300<-168 751 -168 -168>
Fore
318 797 m 0
 351 797 359 773 359 751 c 0
 359 744 358 737 357 731 c 2
 171 -146 l 2
 159 -204 120 -211 104 -211 c 0
 70 -211 59 -191 59 -168 c 0
 59 -161 60 -153 62 -146 c 2
 248 731 l 2
 255 763 274 797 318 797 c 0
EndSplineSet
EndChar
StartChar: braceright
Encoding: 125 125 94
Width: 441
VWidth: 1473
Flags: W
VStem: 62 380<-122 297 -231.192 -167.958> 273 109<347.401 436.228> 300 113<543.196 625.176>
Fore
233 683 m 0x20
 233 709 263 748 301 748 c 0
 318 748 337 740 357 720 c 0
 375 702 413 671 413 595 c 0x20
 413 576 410 554 405 529 c 2
 386 439 l 2
 383 425 382 413 382 403 c 0x40
 382 332 442 340 442 297 c 0
 442 256 404 255 356 210 c 0
 341 196 330 172 322 138 c 2
 304 50 l 2
 279 -66 217 -113 174 -143 c 0
 147 -161 123 -172 104 -172 c 0
 74 -172 62 -142 62 -122 c 0x80
 62 -109 66 -88 119 -59 c 0
 157 -39 183 -6 195 50 c 2
 213 138 l 2
 229 210 272 259 325 289 c 1
 282 321 273 364 273 397 c 0x40
 273 414 275 429 277 439 c 2
 296 529 l 2
 299 543 300 555 300 566 c 0
 300 642 233 643 233 683 c 0x20
EndSplineSet
EndChar
StartChar: asciitilde
Encoding: 126 126 95
Width: 636
VWidth: 1473
Flags: W
HStem: 158 112<463.828 537.875> 269 118<211.068 302.389>
Fore
91 216 m 0x40
 91 235 121 387 239 387 c 0x40
 268 387 303 374 318 365 c 2
 437 296 l 2
 472 275 490 270 505 270 c 0
 531 270 544 291 551 323 c 0
 556 346 564 376 613 376 c 0
 631 376 659 373 659 333 c 0
 659 300 616 158 494 158 c 0x80
 468 158 442 165 417 178 c 2
 303 247 l 2
 292 255 270 269 247 269 c 0
 217 269 208 249 201 228 c 0
 196 203 172 175 137 175 c 0
 104 175 91 193 91 216 c 0x40
EndSplineSet
EndChar
StartChar: uni0E33.alt1
Encoding: 65539 -1 96
Width: 623
VWidth: 1473
Flags: W
HStem: 0 21G<494 514.5> 496 108<317.509 501.249> 698 84<-214.046 -109.648> 888 84<-214.719 -94.7399>
VStem: -322 86<790.964 867.602> -89 85<802.296 880.637> 530 108<366.521 383 383 396.288 396.288 396.977 396.633 465.847>
Fore
132 433 m 0
 132 476 272 604 436 604 c 0
 558 604 643 537 643 431 c 0
 643 416 642 400 638 383 c 2
 566 44 l 2
 559 9 525 0 504 0 c 256
 484 0 457 7 457 34 c 0
 457 37 457 40 458 43 c 2
 530 383 l 2
 532 392 533 401 533 411 c 0
 533 452 510 496 413 496 c 0
 309 496 241 426 228 411 c 0
 216 396 202 391 188 391 c 0
 167 391 132 407 132 433 c 0
-322 806 m 0
 -322 898 -225 972 -133 972 c 0
 -48 972 -4 920 -4 861 c 0
 -4 783 -78 698 -192 698 c 0
 -271 698 -322 741 -322 806 c 0
-151 888 m 0
 -214 888 -236 850 -236 825 c 0
 -236 791 -200 782 -174 782 c 0
 -125 782 -89 807 -89 849 c 0
 -89 868 -101 888 -151 888 c 0
EndSplineSet
EndChar
StartChar: quotedbl
Encoding: 34 34 97
Width: 380
VWidth: 1473
Flags: W
HStem: 435 282<205.875 241.852 380.142 417.509>
VStem: 151 321<479 671 604.142 641.509>
Fore
429 717 m 0
 463 717 472 694 472 671 c 0
 472 665 471 659 470 653 c 2
 437 499 l 2
 425 442 388 435 369 435 c 0
 336 435 325 453 325 476 c 0
 325 484 326 491 328 499 c 2
 361 653 l 2
 368 685 385 717 429 717 c 0
255 717 m 0
 288 717 297 694 297 671 c 0
 297 665 296 659 295 653 c 2
 262 499 l 2
 250 441 210 435 195 435 c 0
 161 435 151 456 151 479 c 0
 151 485 152 492 153 499 c 2
 186 653 l 2
 192 681 210 717 255 717 c 0
EndSplineSet
EndChar
StartChar: exclam
Encoding: 33 33 98
Width: 307
VWidth: 1473
Flags: W
HStem: -7 132<129.94 214.23>
VStem: 103 257<40 704 40 40> 103 135<17.4761 98.2538>
Fore
315 738 m 0xc0
 332 738 360 736 360 704 c 0
 360 699 359 694 358 688 c 2
 245 224 l 2
 240 205 226 172 195 172 c 0
 180 172 163 175 163 208 c 0
 163 213 163 218 164 224 c 2
 248 688 l 2
 258 736 293 738 315 738 c 0xc0
103 40 m 0
 103 66 120 125 186 125 c 0
 220 125 238 107 238 77 c 0xa0
 238 47 222 -7 158 -7 c 0
 115 -7 103 17 103 40 c 0
EndSplineSet
EndChar
StartChar: uni0E4E.alt1
Encoding: 65540 -1 99
Width: 0
VWidth: 1473
Flags: W
HStem: 664 61<-210.122 -150.898> 988 46<-60.971 33.777 16 51.5541>
VStem: -307 95<729.831 799.74> -174 78<888.445 957.112>
Back
29 1027 m 0
 37 1025 43.3333 1021.5 48 1016.5 c 128
 52.6667 1011.5 55 1006.83 55 1002.5 c 128
 55 998.167 52.5 994.5 47.5 991.5 c 128
 42.5 988.5 35 987 25 987 c 1
 0.333334 991 -25 986.167 -51 972.5 c 128
 -77 958.833 -91.5 940.667 -94.5 918 c 128
 -97.5 895.333 -85.6667 882.667 -59 880 c 0
 -49 878 -43.8333 873.167 -43.5 865.5 c 128
 -43.1667 857.833 -44 852.667 -46 850 c 256
 -48 847.333 -50.3333 843.667 -53 839 c 128
 -55.6667 834.333 -63.6667 831.667 -77 831 c 0
 -154.333 829.667 -198.333 807.667 -209 765 c 1
 -210.333 738.333 -195.667 725 -165 725 c 128
 -134.333 725 -113.667 728.333 -103 735 c 1
 -127 681 l 1
 -173.667 662.333 -215.5 659 -252.5 671 c 128
 -289.5 683 -306.333 711.333 -303 756 c 1
 -284.333 827.333 -235.333 864 -156 866 c 1
 -174.667 892 -178.167 919.833 -166.5 949.5 c 128
 -154.833 979.167 -131 1002.33 -95 1019 c 128
 -59 1035.67 -17.6667 1038.33 29 1027 c 0
EndSplineSet
Fore
-174 916 m 0
 -174 976 -109 1034 -26 1034 c 0
 36 1034 54 1017 54 1004 c 0
 54 997 50 987 25 987 c 0
 19 987 13 988 7 988 c 0
 -40 988 -96 957 -96 911 c 0
 -96 871 -45 891 -45 863 c 0
 -45 849 -52 833 -77 831 c 0
 -184 830 -212 787 -212 757 c 0
 -212 735 -189 725 -167 725 c 0
 -136 725 -116 728 -106 735 c 1
 -128 681 l 1
 -157 670 -184 664 -209 664 c 0
 -233 664 -307 674 -307 736 c 0
 -307 775 -280 863 -157 866 c 1
 -168 882 -174 898 -174 916 c 0
EndSplineSet
EndChar
StartChar: exclamdown
Encoding: 161 161 100
Width: 307
VWidth: 1473
Flags: W
HStem: 399 133<215.518 298.193>
VStem: 65 260<-180 487 -180 -180> 190 135<426.395 506.471>
Fore
113 -214 m 0xc0
 93 -214 65 -212 65 -180 c 0
 65 -175 66 -170 67 -164 c 2
 180 301 l 2
 196 348 216 352 233 352 c 0
 255 352 262 336 262 316 c 0
 262 311 262 306 261 301 c 2
 177 -164 l 2
 167 -212 132 -214 113 -214 c 0xc0
190 447 m 0xa0
 190 475 206 532 272 532 c 0
 297 532 325 523 325 487 c 0xc0
 325 461 309 399 244 399 c 0
 209 399 190 417 190 447 c 0xa0
EndSplineSet
EndChar
StartChar: cent
Encoding: 162 162 101
Width: 636
VWidth: 1473
Flags: W
HStem: 66 113<354.569 481.268> 514 112<354.403 461.012 444.023 452>
VStem: 126 110<226.102 388.987>
Fore
683 504 m 0
 683 469 647 442 616 442 c 0
 566 442 594 484 513 507 c 1
 353 183 l 1
 366 180 379 179 392 179 c 0
 457 179 508 206 524 224 c 0
 543 249 567 252 576 252 c 0
 593 252 620 239 620 209 c 0
 620 144 482 66 367 66 c 0
 345 66 324 69 302 75 c 1
 246 -31 l 2
 239 -47 223 -52 215 -52 c 0
 201 -52 186 -43 186 -29 c 0
 186 -25 187 -22 189 -18 c 2
 246 91 l 1
 166 123 126 182 126 268 c 0
 126 456 278 626 463 626 c 0
 478 626 492 624 505 622 c 1
 555 722 l 2
 561 732 575 741 590 741 c 0
 603 741 614 732 614 721 c 0
 614 718 614 719 611 709 c 1
 566 614 l 1
 648 594 683 539 683 504 c 0
436 514 m 0
 325 514 236 417 236 296 c 0
 236 248 257 215 297 196 c 1
 452 513 l 1
 447 514 442 514 436 514 c 0
EndSplineSet
EndChar
StartChar: sterling
Encoding: 163 163 102
Width: 586
VWidth: 1473
Flags: W
HStem: -2 102<290.018 506.878> 29 92<217.005 338.004> 330 57<139 212 319 409> 644 90<349.684 495.241>
VStem: 176 105<437.627 581.104> 231 89<232.252 319.023 319 319.046 319.046 330> 537 104<496 505.931 505.931 511.091 508.511 598.59>
Fore
71 97 m 1x76
 84 107 231 192 231 308 c 0x76
 231 316 230 324 229 330 c 1
 139 330 l 1
 131 387 l 1
 212 387 l 1
 210 399 176 452 176 512 c 0
 176 629 310 734 454 734 c 0
 609 734 646 628 646 546 c 0
 646 528 644 510 641 496 c 1
 537 496 l 1
 538 501 538 508 538 516 c 0
 538 561 523 644 429 644 c 0
 348 644 281 584 281 516 c 0x7a
 281 473 309 439 316 387 c 1
 409 387 l 1
 418 330 l 1
 319 330 l 1
 320 323 320 315 320 308 c 0
 320 208 241 147 187 103 c 1
 226 118 270 121 289 121 c 0x76
 366 121 374 100 423 100 c 0
 464 100 507 116 536 130 c 1
 559 41 l 1
 522 27 472 -2 400 -2 c 0xb6
 343 -2 287 29 216 29 c 0
 173 29 135 14 103 -1 c 1
 71 97 l 1x76
EndSplineSet
EndChar
StartChar: currency
Encoding: 164 164 103
Width: 715
VWidth: 1473
Flags: W
HStem: 85 95<320.49 475.745> 488 97<377.534 539.811> 488 111<263.156 501.518>
VStem: 171 102<239.006 379.346> 589 102<320.069 426.275>
Fore
216 535 m 0xd8
 216 566 258 599 287 599 c 0xb8
 295 599 302 595 309 588 c 1
 340 545 l 1
 383 572 420 585 482 585 c 0
 536 585 570 576 609 542 c 1
 656 582 l 2
 665 590 675 594 685 594 c 0
 695 594 732 590 732 549 c 0
 732 542 730 525 712 513 c 2
 667 476 l 1
 685 437 691 411 691 386 c 0
 691 353 683 278 604 194 c 1
 631 161 l 2
 637 153 641 145 641 137 c 0
 641 115 616 85 579 85 c 0
 568 85 559 89 551 99 c 2
 523 133 l 1
 481 105 441 85 376 85 c 0
 320 85 285 97 246 134 c 1
 204 99 l 2
 192 89 182 85 172 85 c 0
 142 85 132 112 132 131 c 0
 132 144 138 156 148 165 c 2
 192 202 l 1
 177 231 171 253 171 278 c 0
 171 358 209 423 254 477 c 1
 223 517 l 2
 218 522 216 528 216 535 c 0xd8
397 180 m 256
 509 180 589 275 589 368 c 0
 589 437 542 488 463 488 c 256xd8
 351 488 273 389 273 296 c 0
 273 226 323 180 397 180 c 256
EndSplineSet
EndChar
StartChar: yen
Encoding: 165 165 104
Width: 562
VWidth: 1473
Flags: W
HStem: -4 21G<267 298.5> 156 68<119 255 391 525> 275 70<144 280 419 550> 704 20G<214 240.5 636.5 658>
Fore
162 648 m 0
 162 688 194 724 234 724 c 0
 247 724 270 718 281 691 c 2
 380 452 l 1
 583 692 l 2
 603 720 630 724 643 724 c 0
 673 724 690 702 690 677 c 0
 690 656 680 641 670 631 c 2
 419 345 l 1
 565 345 l 1
 550 275 l 1
 401 275 l 1
 391 224 l 1
 540 224 l 1
 525 156 l 1
 376 156 l 1
 354 53 l 2
 347 19 315 -4 282 -4 c 0
 252 -4 232 16 232 43 c 0
 232 46 232 49 233 53 c 2
 255 156 l 1
 104 156 l 1
 119 224 l 1
 270 224 l 1
 280 275 l 1
 129 275 l 1
 144 345 l 1
 293 345 l 1
 165 632 l 2
 163 637 162 642 162 648 c 0
EndSplineSet
EndChar
StartChar: brokenbar
Encoding: 166 166 105
Width: 241
VWidth: 1473
Flags: W
VStem: 41 271<-195 735 -522.133 -146.828>
Fore
229 703 m 2
 240 755 258 765 282 765 c 0
 300 765 312 760 312 735 c 0
 312 727 311 716 308 703 c 2
 246 411 l 2
 235 359 217 348 193 348 c 0
 175 348 164 356 164 382 c 0
 164 390 165 399 167 411 c 2
 229 703 l 2
107 128 m 2
 118 180 136 190 159 190 c 0
 177 190 190 186 190 160 c 0
 190 152 189 141 186 128 c 2
 124 -165 l 2
 113 -217 95 -228 71 -228 c 0
 53 -228 41 -221 41 -195 c 0
 41 -187 42 -177 45 -165 c 2
 107 128 l 2
EndSplineSet
EndChar
StartChar: section
Encoding: 167 167 106
Width: 695
VWidth: 1473
Flags: W
HStem: -149 94<276.525 406.97> 529 21G<608 634> 691 100<441.184 564.702>
VStem: 142 114<-34.4645 75.4751 58.9473 92.0029> 170 108<322.017 415.594> 272 124<545.637 645.84> 448 117<-16.9426 94.0717> 558 115<235.627 325.861> 579 117<554.015 587.227 570.621 670.721>
Fore
142 2 m 0xf2
 142 60 157 119 218 119 c 256
 244 119 262 106 262 81 c 0
 262 69 256 53 256 25 c 0xf2
 256 -12 270 -55 341 -55 c 0
 394 -55 448 -19 448 44 c 0
 448 70 436 89 420 99 c 2
 226 224 l 2
 190 243 170 284 170 332 c 0xea
 170 400 212 480 288 523 c 1
 277 542 272 561 272 581 c 0
 272 676 369 791 520 791 c 0
 619 791 696 728 696 630 c 0
 696 542 646 529 622 529 c 0
 594 529 579 546 579 569 c 0
 579 578 584 592 584 616 c 0
 584 678 537 691 504 691 c 0
 444 691 396 638 396 589 c 0
 396 556 423 541 447 524 c 2
 579 439 l 2xe480
 606 422 673 390 673 310 c 0xe1
 673 208 578 137 547 130 c 1
 559 107 565 85 565 62 c 0
 565 -47 438 -149 326 -149 c 0
 241 -149 142 -119 142 2 c 0xf2
491 202 m 1
 518 209 558 247 558 289 c 0
 558 308 548 320 534 329 c 2
 344 446 l 1
 294 432 278 382 278 360 c 0xe9
 278 339 290 326 296 323 c 2
 491 202 l 1
EndSplineSet
EndChar
StartChar: dieresis
Encoding: 168 168 107
Width: 402
VWidth: 1473
Flags: W
HStem: 575 138<188.465 272.34 405.865 488.34>
VStem: 157 145<604.485 681.359> 374 144<604.485 681.359>
Fore
302 659 m 0
 302 610 259 575 218 575 c 0
 174 575 157 602 157 629 c 0
 157 667 193 713 248 713 c 0
 280 713 302 692 302 659 c 0
518 659 m 0
 518 610 475 575 434 575 c 0
 399 575 374 596 374 628 c 0
 374 667 410 713 464 713 c 0
 496 713 518 692 518 659 c 0
EndSplineSet
EndChar
StartChar: copyright
Encoding: 169 169 108
Width: 847
VWidth: 1473
Flags: W
HStem: -21 73<324.44 543.358> 125 69<427.157 555.283> 513 67<457.9 612.562> 666 68<447.195 668.629>
VStem: 111 74<190.41 403.408> 280 73<242.823 402.27> 812 71<311.874 527.233>
Fore
111 280 m 0
 111 519 340 734 579 734 c 0
 746 734 883 620 883 441 c 0
 883 203 662 -21 419 -21 c 0
 226 -21 111 113 111 280 c 0
565 666 m 0
 366 666 185 481 185 295 c 0
 185 163 275 52 434 52 c 0
 640 52 812 242 812 424 c 0
 812 566 705 666 565 666 c 0
559 580 m 0
 409 580 280 448 280 304 c 0
 280 195 361 125 462 125 c 0
 535 125 588 154 633 192 c 0
 641 197 649 214 649 226 c 0
 649 241 636 252 621 252 c 0
 613 252 603 248 595 240 c 0
 577 226 525 194 479 194 c 0
 459 194 353 205 353 313 c 0
 353 411 429 513 545 513 c 0
 585 513 617 496 642 463 c 0
 648 455 655 451 664 451 c 0
 685 451 709 470 709 497 c 0
 709 522 653 580 559 580 c 0
EndSplineSet
EndChar
StartChar: ordfeminine
Encoding: 170 170 109
Width: 431
VWidth: 1473
Flags: W
HStem: 271 59<197.875 358.948> 454 62<215.997 361.33> 526 21G<185.5 204> 558 67<223.145 407.887>
VStem: 115 68<346.341 425.269> 417 61<480 493.023 493.023 500.286 496.654 543.775>
Fore
167 554 m 0
 167 597 265 625 330 625 c 0
 453 625 485 578 485 519 c 0
 485 501 482 483 478 464 c 2
 444 305 l 2
 438 278 414 271 401 271 c 0
 389 271 376 278 376 292 c 0
 376 295 377 298 378 302 c 1
 348 285 302 271 258 271 c 0
 185 271 115 290 115 363 c 0
 115 439 186 516 316 516 c 0
 357 516 407 502 417 480 c 1
 419 489 420 498 420 506 c 0
 420 537 401 558 319 558 c 0
 241 558 216 526 192 526 c 0
 179 526 167 539 167 554 c 0
300 454 m 0
 261 454 183 437 183 383 c 0
 183 341 234 330 270 330 c 0
 319 330 396 345 396 404 c 0
 396 447 334 454 300 454 c 0
EndSplineSet
EndChar
StartChar: guillemotleft
Encoding: 171 171 110
Width: 578
VWidth: 1473
Flags: W
HStem: 38 459<217 315 315 315>
VStem: 101 492<263 456 263 263>
Fore
315 497 m 0
 341 497 357 478 357 455 c 0
 357 440 350 426 342 418 c 2
 258 322 l 2
 237 296 222 279 215 268 c 1
 218 257 222 248 225 240 c 2
 278 118 l 2
 293 77 253 38 217 38 c 0
 205 38 189 44 180 65 c 2
 113 233 l 2
 108 245 101 252 101 263 c 0
 101 270 103 277 119 296 c 2
 267 473 l 2
 285 495 307 497 315 497 c 0
517 103 m 0
 517 68 484 38 453 38 c 0
 440 38 425 44 416 65 c 2
 348 233 l 2
 342 247 337 256 337 265 c 0
 337 271 339 278 355 296 c 2
 503 473 l 2
 519 495 543 497 551 497 c 0
 577 497 593 479 593 456 c 0
 593 427 576 419 527 359 c 2
 494 322 l 2
 473 296 458 279 450 268 c 1
 454 257 458 248 461 240 c 2
 489 177 l 2
 510 125 517 116 517 103 c 0
EndSplineSet
EndChar
StartChar: logicalnot
Encoding: 172 172 111
Width: 855
VWidth: 1473
Flags: W
HStem: 327 109<135.349 729>
Fore
118 371 m 0
 118 406 146 436 187 436 c 2
 865 436 l 1
 801 137 l 2
 795 108 767 82 734 82 c 0
 708 82 687 98 687 125 c 0
 687 129 687 133 688 137 c 2
 729 327 l 1
 164 327 l 2
 138 327 118 344 118 371 c 0
EndSplineSet
EndChar
StartChar: registered
Encoding: 174 174 112
Width: 782
VWidth: 1473
Flags: W
HStem: -19 71<295.134 512.097> 311 56<524 584.995> 524 65<414.827 595.157> 666 72<418.305 641.853>
VStem: 80 71<194.503 403.001> 618 69<399.437 501.52> 781 73<318.273 529.553>
Fore
80 280 m 0
 80 518 310 738 547 738 c 256
 726 738 854 610 854 437 c 0
 854 206 630 -19 386 -19 c 256
 203 -19 80 109 80 280 c 0
532 666 m 0
 327 666 151 479 151 295 c 0
 151 156 251 52 401 52 c 0
 591 52 781 224 781 427 c 0
 781 570 674 666 532 666 c 0
375 356 m 0
 375 369 388 388 416 388 c 0
 444 388 457 367 514 367 c 0
 593 367 618 418 618 454 c 0
 618 484 600 524 517 524 c 0
 401 524 372 474 360 418 c 2
 311 186 l 2
 304 156 290 146 273 146 c 0
 257 146 246 152 246 171 c 0
 246 175 247 180 248 186 c 2
 303 445 l 2
 324 548 434 589 523 589 c 0
 591 589 687 565 687 474 c 0
 687 385 617 311 524 311 c 1
 569 279 609 207 609 172 c 0
 609 147 578 141 569 141 c 256
 552 141 547 156 545 165 c 1
 520 221 483 259 399 329 c 1
 382 337 375 346 375 356 c 0
EndSplineSet
EndChar
StartChar: macron
Encoding: 175 175 113
Width: 483
VWidth: 1473
Flags: W
HStem: 622 101<196.227 216 216 570.27 242 522 242 242>
VStem: 179 407<638.625 705.847>
Fore
586 683 m 0
 586 646 551 622 522 622 c 2
 216 622 l 2
 195 622 179 639 179 662 c 0
 179 698 216 723 242 723 c 2
 544 723 l 2
 568 723 586 708 586 683 c 0
EndSplineSet
EndChar
StartChar: degree
Encoding: 176 176 114
Width: 318
VWidth: 1473
Flags: W
HStem: 466 63<225.128 324.428> 661 64<244.099 342.758>
VStem: 151 65<538.466 631.424> 352 64<556.835 651.823>
Fore
416 625 m 0
 416 540 340 466 257 466 c 256
 191 466 151 509 151 567 c 0
 151 651 228 725 312 725 c 256
 373 725 416 685 416 625 c 0
270 529 m 256
 315 529 352 567 352 611 c 0
 352 642 329 661 298 661 c 256
 259 661 216 626 216 581 c 0
 216 549 239 529 270 529 c 256
EndSplineSet
EndChar
StartChar: plusminus
Encoding: 177 177 115
Width: 632
VWidth: 1473
Flags: W
HStem: 0 109<86.59 561.55> 299 109<148.25 323 457 631.119>
Fore
130 341 m 0
 130 381 161 408 209 408 c 2
 346 408 l 1
 365 498 l 2
 371 527 390 563 435 563 c 0
 469 563 478 538 478 516 c 0
 478 509 477 503 476 498 c 2
 457 408 l 1
 594 408 l 2
 621 408 650 399 650 368 c 0
 650 344 636 299 571 299 c 2
 434 299 l 1
 415 214 l 2
 403 154 363 147 346 147 c 0
 311 147 302 170 302 194 c 0
 302 201 303 208 304 214 c 2
 323 299 l 1
 186 299 l 2
 160 299 130 308 130 341 c 0
67 41 m 0
 67 82 100 109 145 109 c 2
 525 109 l 2
 550 109 580 100 580 69 c 0
 580 49 569 0 502 0 c 2
 122 0 l 2
 97 0 67 8 67 41 c 0
EndSplineSet
EndChar
StartChar: twosuperior
Encoding: 178 178 116
Width: 455
VWidth: 1473
Flags: W
HStem: 280 84<294 457.01> 631 84<302.409 417.466>
VStem: 429 85<552.902 618.17>
Fore
183 551 m 0
 183 572 225 715 388 715 c 0
 472 715 514 659 514 598 c 0
 514 574 506 510 437 461 c 2
 338 393 l 2
 321 382 307 372 294 364 c 1
 435 364 l 2
 458 364 467 348 467 331 c 0
 467 301 440 280 418 280 c 2
 163 280 l 2
 139 280 127 298 127 317 c 0
 127 339 142 354 150 359 c 2
 392 526 l 2
 398 529 429 547 429 579 c 0
 429 606 403 631 370 631 c 0
 299 631 272 580 265 557 c 0
 260 536 237 519 217 519 c 0
 200 519 183 532 183 551 c 0
EndSplineSet
EndChar
StartChar: threesuperior
Encoding: 179 179 117
Width: 412
VWidth: 1473
Flags: W
HStem: 274 77<237 351.085> 471 80<257.219 375.195> 636 79<297.827 391.287>
VStem: 138 90<361.073 425.615 409.569 441.537> 379 75<377.281 468.67> 397 84<557.937 629.191>
Fore
481 610 m 0xf4
 481 565 441 527 415 516 c 1
 439 507 454 478 454 441 c 0
 454 351 370 274 272 274 c 0
 161 274 138 328 138 375 c 0
 138 442 172 454 194 454 c 0
 218 454 231 442 231 422 c 0
 231 412 228 410 228 397 c 0
 228 361 263 351 290 351 c 0
 353 351 379 396 379 429 c 0xf8
 379 452 367 471 345 471 c 2
 283 471 l 2
 261 471 249 488 249 506 c 0
 249 535 281 551 300 551 c 2
 359 551 l 2
 367 551 397 565 397 596 c 0
 397 618 376 636 347 636 c 0
 324 636 286 634 273 598 c 0
 262 569 243 555 218 555 c 0
 196 555 183 568 183 588 c 0
 183 639 256 715 366 715 c 0
 461 715 481 647 481 610 c 0xf4
EndSplineSet
EndChar
StartChar: acute
Encoding: 180 180 118
Width: 372
VWidth: 1473
Flags: W
HStem: 588 149<317 363 363 363>
Fore
363 737 m 1
 488 737 l 1
 317 588 l 1
 250 588 l 1
 363 737 l 1
EndSplineSet
EndChar
StartChar: mu
Encoding: 181 181 119
Width: 707
VWidth: 1473
Flags: W
HStem: -7 109<286.108 452.038> 507 20G<238.5 266 661.5 688.5>
VStem: 25 148<-141.605 -85.1494>
Fore
351 -7 m 0
 239 -7 192 51 180 72 c 1
 176 46 l 2
 171 6 169 -19 169 -36 c 0
 169 -62 173 -70 173 -86 c 0
 173 -98 171 -113 165 -143 c 0
 154 -191 132 -236 84 -236 c 0
 39 -236 25 -206 25 -173 c 0
 25 -96 75 -54 103 74 c 2
 188 474 l 2
 194 505 225 527 252 527 c 0
 280 527 296 512 296 488 c 0
 296 484 295 479 294 474 c 2
 248 259 l 2
 245 244 243 228 243 213 c 0
 243 155 273 102 374 102 c 0
 483 102 543 149 566 259 c 2
 612 474 l 2
 618 505 647 527 676 527 c 0
 701 527 720 511 720 487 c 0
 720 483 719 479 718 474 c 2
 627 49 l 2
 621 19 595 -6 563 -6 c 0
 546 -6 518 5 518 32 c 0
 518 36 519 40 520 44 c 2
 523 56 l 1
 474 18 415 -7 351 -7 c 0
EndSplineSet
EndChar
StartChar: paragraph
Encoding: 182 182 120
Width: 593
VWidth: 1473
Flags: W
HStem: 589 112<440 539>
VStem: 134 502<435 620>
Fore
134 435 m 0
 134 592 276 701 399 701 c 2
 557 701 l 2
 584 701 636 684 636 620 c 0
 636 611 635 600 633 589 c 2
 471 -175 l 2
 465 -200 448 -234 410 -234 c 0
 388 -234 374 -225 374 -199 c 0
 374 -193 375 -184 377 -175 c 2
 539 589 l 1
 440 589 l 1
 279 -169 l 2
 274 -191 258 -225 222 -225 c 256
 195 -225 187 -206 187 -187 c 0
 187 -180 188 -174 189 -169 c 2
 284 277 l 1
 206 277 134 331 134 435 c 0
EndSplineSet
EndChar
StartChar: periodcentered
Encoding: 183 183 121
Width: 338
VWidth: 1473
Flags: W
HStem: 253 190<199.927 288.022>
VStem: 146 195<306.202 389.315>
Fore
146 328 m 0
 146 390 207 443 263 443 c 0
 311 443 341 410 341 368 c 0
 341 312 288 253 223 253 c 0
 180 253 146 283 146 328 c 0
EndSplineSet
EndChar
StartChar: cedilla
Encoding: 184 184 122
Width: 318
VWidth: 1473
Flags: W
HStem: -224 67<45.1374 149.15>
VStem: 154 101<-141.813 -93.2385>
Fore
255 -104 m 0
 255 -152 197 -224 97 -224 c 0
 54 -224 22 -212 -4 -197 c 1
 42 -136 l 1
 59 -153 96 -157 107 -157 c 0
 145 -157 154 -133 154 -116 c 0
 154 -95 131 -88 70 -84 c 1
 148 6 l 1
 235 6 l 1
 167 -47 l 1
 174 -46 181 -46 187 -46 c 0
 231 -46 255 -72 255 -104 c 0
EndSplineSet
EndChar
StartChar: onesuperior
Encoding: 185 185 123
Width: 355
VWidth: 1473
Flags: W
HStem: 271 437
VStem: 185 205<619 676>
Fore
354 708 m 0
 376 708 390 695 390 676 c 0
 390 673 390 669 389 666 c 2
 314 315 l 2
 309 292 287 271 260 271 c 0
 242 271 225 288 225 308 c 0
 225 310 225 313 226 315 c 1
 288 605 l 1
 238 588 l 2
 231 585 226 584 220 584 c 0
 201 584 185 598 185 619 c 0
 185 638 201 658 226 667 c 2
 337 706 l 2
 343 708 348 708 354 708 c 0
EndSplineSet
EndChar
StartChar: ordmasculine
Encoding: 186 186 124
Width: 433
VWidth: 1473
Flags: W
HStem: 275 80<253.532 359.84> 548 80<269.46 390.577>
VStem: 131 86<375.425 491.259> 410 87<406.221 528.922>
Fore
131 408 m 0
 131 521 233 628 350 628 c 0
 452 628 497 564 497 492 c 0
 497 368 382 275 275 275 c 0
 190 275 131 327 131 408 c 0
334 548 m 0
 251 548 217 467 217 425 c 0
 217 368 270 355 293 355 c 0
 356 355 410 407 410 473 c 0
 410 507 395 548 334 548 c 0
EndSplineSet
EndChar
StartChar: guillemotright
Encoding: 187 187 125
Width: 576
VWidth: 1473
Flags: W
HStem: 38 459<369 467 369 467 467 467>
VStem: 92 490<77 276 -21 77>
Fore
369 38 m 0
 353 38 327 48 327 78 c 0
 327 113 349 122 434 227 c 2
 469 268 l 1
 406 418 l 1
 403 423 402 429 402 435 c 0
 402 464 433 497 467 497 c 0
 475 497 495 495 505 473 c 2
 577 296 l 2
 581 288 582 281 582 276 c 0
 582 256 568 247 529 200 c 2
 429 78 l 2
 412 57 400 38 369 38 c 0
92 77 m 0
 92 111 104 114 234 268 c 1
 170 418 l 2
 167 423 166 429 166 435 c 0
 166 465 199 497 231 497 c 0
 239 497 261 495 269 473 c 2
 341 296 l 2
 345 286 347 278 347 272 c 0
 347 267 346 262 334 247 c 2
 193 78 l 2
 176 57 164 38 133 38 c 0
 118 38 92 46 92 77 c 0
EndSplineSet
EndChar
StartChar: onequarter
Encoding: 188 188 126
Width: 894
VWidth: 1473
Flags: W
HStem: 1 21G<749 770.5> 77 82<632 735 835 872.912> 585 20G<238 283.724>
Fore
175 -15 m 1
 748 712 l 1
 835 712 l 1
 262 -15 l 1
 175 -15 l 1
884 130 m 0
 884 109 870 77 817 77 c 1
 810 44 l 2
 806 22 781 1 760 1 c 0
 738 1 727 18 727 36 c 0
 727 38 727 41 728 44 c 2
 735 77 l 1
 527 77 l 2
 508 77 499 92 499 109 c 0
 499 113 499 131 516 146 c 2
 811 421 l 2
 817 426 833 439 852 439 c 0
 872 439 886 422 886 404 c 0
 886 401 886 398 885 395 c 2
 835 161 l 1
 860 161 884 156 884 130 c 0
632 159 m 1
 750 159 l 1
 779 298 l 1
 632 159 l 1
354 708 m 0
 376 708 390 695 390 676 c 0
 390 673 390 669 389 666 c 2
 314 315 l 2
 309 292 287 271 260 271 c 0
 242 271 225 288 225 308 c 0
 225 310 225 313 226 315 c 1
 288 605 l 1
 238 588 l 2
 231 585 226 584 220 584 c 0
 201 584 185 598 185 619 c 0
 185 638 201 658 226 667 c 2
 337 706 l 2
 343 708 348 708 354 708 c 0
EndSplineSet
LCarets2: 2 0 0 
Ligature2: "'frac' Diagonal Fractions in Latin lookup 0 subtable" one fraction four
Ligature2: "'frac' Diagonal Fractions in Latin lookup 0 subtable" one slash four
EndChar
StartChar: onehalf
Encoding: 189 189 127
Width: 875
VWidth: 1473
Flags: W
HStem: 0 84<666 828.77> 351 84<675.334 789.155> 580 20G<220 267.739> 696 20G<686.215 790>
VStem: 801 85<256.334 338.773>
Fore
129 -10 m 1
 702 716 l 1
 790 716 l 1
 216 -10 l 1
 129 -10 l 1
340 702 m 0
 363 702 370 687 370 673 c 0
 370 668 369 664 368 660 c 2
 294 309 l 2
 289 286 266 265 245 265 c 256
 225 265 209 283 209 301 c 0
 209 304 209 307 210 309 c 1
 272 600 l 1
 220 582 l 2
 214 580 208 578 203 578 c 0
 181 578 170 597 170 614 c 0
 170 633 185 652 206 661 c 2
 323 700 l 2
 329 702 335 702 340 702 c 0
555 272 m 0
 555 300 601 435 759 435 c 0
 845 435 886 379 886 319 c 0
 886 218 791 170 756 146 c 0
 738 133 694 102 666 84 c 1
 808 84 l 2
 833 84 839 66 839 52 c 0
 839 21 810 0 790 0 c 2
 535 0 l 2
 511 0 500 17 500 36 c 0
 500 76 532 84 624 150 c 2
 764 246 l 2
 770 249 801 267 801 299 c 0
 801 325 777 351 742 351 c 0
 672 351 645 299 638 277 c 0
 630 256 610 239 589 239 c 0
 572 239 555 252 555 272 c 0
EndSplineSet
LCarets2: 2 0 0 
Ligature2: "'frac' Diagonal Fractions in Latin lookup 0 subtable" one fraction two
Ligature2: "'frac' Diagonal Fractions in Latin lookup 0 subtable" one slash two
EndChar
StartChar: threequarters
Encoding: 190 190 128
Width: 900
VWidth: 1473
Flags: W
HStem: 1 21G<749 770.5> 77 82<632 735 835 871.813> 274 77<229.049 345.138> 461 80<248.774 273 273 357.109> 638 77<275.503 382.668>
VStem: 130 91<359.877 424.925 409.069 440.781> 371 76<377.625 450.488> 389 84<552.447 631.474>
Fore
300 -13 m 1xfc
 877 713 l 1
 788 713 l 1
 214 -13 l 1
 300 -13 l 1xfc
883 130 m 0
 883 98 857 77 817 77 c 1
 810 44 l 2
 806 22 781 1 760 1 c 0
 738 1 727 18 727 36 c 0
 727 38 727 41 728 44 c 2
 735 77 l 1
 528 77 l 2
 509 77 499 92 499 109 c 0
 499 113 499 131 516 146 c 2
 811 421 l 1
 815 427 833 439 851 439 c 0
 871 439 886 423 886 403 c 0
 886 401 886 398 885 395 c 2
 835 161 l 1
 864 161 883 154 883 130 c 0
632 159 m 1
 750 159 l 1
 779 298 l 1
 632 159 l 1
473 617 m 0xfd
 473 573 443 521 405 505 c 1
 426 498 447 476 447 437 c 0
 447 359 369 274 264 274 c 0
 153 274 130 329 130 376 c 0
 130 442 164 454 187 454 c 0
 211 454 224 441 224 422 c 0
 224 412 221 409 221 396 c 0
 221 360 255 351 283 351 c 0
 343 351 371 395 371 424 c 0xfe
 371 439 366 461 335 461 c 2
 273 461 l 2
 251 461 240 479 240 496 c 0
 240 523 272 541 290 541 c 2
 349 541 l 2
 357 541 389 565 389 595 c 0
 389 622 366 638 341 638 c 0
 302 638 275 627 265 598 c 0
 254 569 236 555 211 555 c 0
 189 555 176 568 176 588 c 0
 176 639 249 715 358 715 c 0
 435 715 473 669 473 617 c 0xfd
EndSplineSet
LCarets2: 2 0 0 
Ligature2: "'frac' Diagonal Fractions in Latin lookup 0 subtable" three fraction four
Ligature2: "'frac' Diagonal Fractions in Latin lookup 0 subtable" three slash four
EndChar
StartChar: questiondown
Encoding: 191 191 129
Width: 683
VWidth: 1473
Flags: W
HStem: -225 107<218.714 367.8> 398 144<468.12 551.602>
VStem: 67 112<-82.0722 49.8394> 433 153<430.692 507.591>
Fore
285 -225 m 0
 117 -225 67 -135 67 -48 c 0
 67 186 328 218 346 222 c 0
 357 224 405 236 417 290 c 0
 421 312 432 349 484 349 c 0
 499 349 526 347 526 307 c 0
 526 300 526 293 524 284 c 0
 508 208 471 178 407 143 c 0
 328 99 179 120 179 -26 c 0
 179 -99 249 -118 305 -118 c 0
 373 -118 441 -83 491 -38 c 0
 495 -35 512 -21 537 -21 c 0
 565 -21 581 -41 581 -65 c 0
 581 -85 572 -103 556 -115 c 0
 429 -223 319 -225 285 -225 c 0
586 484 m 0
 586 436 538 398 495 398 c 256
 457 398 433 423 433 456 c 0
 433 496 474 542 525 542 c 256
 562 542 586 516 586 484 c 0
EndSplineSet
EndChar
StartChar: Aring
Encoding: 197 197 134
Width: 736
VWidth: 1473
Flags: W
HStem: 0 21G<108.5 124 613 630.5> 302 109<256 628> 617 103<382.077 603.311> 772 53<512.456 583.764> 909 54<520.973 594.45>
VStem: 456 54<827.871 897.454> 596 56<835.954 907.133> 665 110<460.546 561.078>
Fore
652 888 m 0
 652 825 594 772 534 772 c 256
 486 772 456 805 456 848 c 0
 456 909 516 963 575 963 c 256
 623 963 652 930 652 888 c 0
545 825 m 256
 574 825 596 854 596 878 c 0
 596 897 582 909 563 909 c 256
 537 909 510 886 510 859 c 0
 510 838 525 825 545 825 c 256
521 720 m 0
 718 720 775 622 775 515 c 0
 775 489 771 463 766 438 c 2
 687 66 l 2
 675 10 641 0 620 0 c 0
 606 0 575 4 575 44 c 0
 575 50 576 58 578 66 c 2
 628 302 l 1
 233 302 l 1
 183 66 l 2
 170 7 133 0 115 0 c 0
 102 0 71 4 71 44 c 0
 71 50 72 58 74 66 c 2
 152 433 l 2
 180 563 275 720 521 720 c 0
499 617 m 0
 343 617 282 532 263 442 c 2
 256 411 l 1
 653 411 l 1
 660 442 l 2
 663 458 665 474 665 489 c 0
 665 559 624 617 499 617 c 0
EndSplineSet
EndChar
StartChar: AE
Encoding: 198 198 135
Width: 1231
VWidth: 1473
Flags: W
HStem: -3 106<815.12 1035.81> 302 109<256 628 761 1061.36> 617 103<382.077 603.225 908.278 1130.07>
VStem: 575 154<24 252>
Fore
499 617 m 0
 343 617 282 532 263 442 c 2
 256 411 l 1
 653 411 l 1
 660 442 l 2
 663 458 665 474 665 489 c 0
 665 559 624 617 499 617 c 0
1081 371 m 0
 1081 351 1068 302 1001 302 c 2
 737 302 l 1
 731 273 l 2
 730 264 729 256 729 248 c 0
 729 151 828 103 907 103 c 0
 1030 103 1091 144 1116 171 c 0
 1136 190 1156 198 1173 198 c 0
 1195 198 1215 183 1215 161 c 0
 1215 106 1097 -3 884 -3 c 0
 803 -3 707 45 694 97 c 1
 687 66 l 2
 675 10 641 0 620 0 c 0
 606 0 575 4 575 44 c 0
 575 50 576 58 578 66 c 2
 628 302 l 1
 233 302 l 1
 183 66 l 2
 170 7 133 0 115 0 c 0
 102 0 71 4 71 44 c 0
 71 50 72 58 74 66 c 2
 152 433 l 2
 180 563 275 720 521 720 c 0
 642 720 717 682 753 616 c 1
 831 694 943 723 1039 723 c 0
 1213 723 1303 641 1303 578 c 0
 1303 540 1270 519 1241 519 c 0
 1224 519 1208 526 1196 545 c 0
 1182 572 1138 613 1015 613 c 0
 924 613 794 571 771 460 c 2
 761 412 l 1
 1024 411 l 2
 1051 411 1081 402 1081 371 c 0
EndSplineSet
EndChar
StartChar: Eth
Encoding: 208 208 145
Width: 769
VWidth: 1473
Flags: W
HStem: 0 109<227.006 228 228 463.323> 331 90<89 160 288 429> 610 110<326.484 568.618>
VStem: 116 111<73.0639 138.31> 687 109<316.346 506.011>
Fore
796 438 m 0
 796 198 592 0 317 0 c 2
 228 0 l 2
 171 1 116 37 116 107 c 0
 116 118 117 129 120 141 c 2
 160 331 l 1
 70 331 l 1
 89 421 l 1
 179 421 l 1
 213 579 l 2
 231 664 306 720 383 720 c 2
 468 720 l 2
 682 720 796 606 796 438 c 0
341 109 m 2
 590 109 687 302 687 417 c 0
 687 518 619 610 448 610 c 2
 360 610 l 2
 339 610 327 600 322 580 c 2
 288 421 l 1
 448 421 l 1
 429 331 l 1
 269 331 l 1
 228 138 l 2
 227 135 227 132 227 129 c 0
 227 116 235 109 253 109 c 2
 341 109 l 2
EndSplineSet
EndChar
StartChar: multiply
Encoding: 215 215 152
Width: 677
VWidth: 1473
Flags: W
HStem: 22 469<525 623 623 623>
Fore
197 422 m 0
 197 458 236 488 261 488 c 0
 271 488 289 484 304 463 c 2
 407 331 l 1
 569 466 l 2
 594 487 613 491 623 491 c 0
 641 491 664 474 664 446 c 0
 664 426 654 409 630 389 c 2
 468 255 l 1
 573 122 l 2
 584 110 589 99 589 86 c 0
 589 50 550 22 525 22 c 0
 509 22 492 31 480 46 c 2
 375 177 l 1
 215 46 l 2
 197 31 176 22 160 22 c 0
 137 22 118 43 118 65 c 0
 118 80 129 102 154 122 c 2
 315 255 l 1
 212 386 l 2
 202 399 197 411 197 422 c 0
EndSplineSet
EndChar
StartChar: Oslash
Encoding: 216 216 153
Width: 798
VWidth: 1473
Flags: W
HStem: -8 113<354.032 520.282> 607 112<430.094 618.021>
VStem: 113 112<208.006 399.046> 723 112<310.246 505.963>
Fore
113 276 m 0
 113 487 305 719 553 719 c 0
 616 719 665 703 703 682 c 1
 773 765 l 2
 788 785 807 787 814 787 c 0
 836 787 849 771 849 751 c 0
 849 739 843 727 837 720 c 2
 761 636 l 1
 810 574 835 511 835 437 c 0
 835 206 621 -8 395 -8 c 0
 350 -8 300 0 253 28 c 1
 180 -57 l 2
 168 -69 154 -77 139 -77 c 0
 120 -77 107 -62 107 -44 c 0
 107 -34 112 -24 121 -15 c 2
 190 74 l 1
 138 127 113 199 113 276 c 0
526 607 m 0
 377 607 225 464 225 299 c 0
 225 213 272 172 273 168 c 1
 619 585 l 1
 596 598 565 607 526 607 c 0
421 105 m 0
 596 105 723 270 723 411 c 0
 723 463 706 507 681 538 c 1
 331 121 l 1
 358 110 388 105 421 105 c 0
EndSplineSet
EndChar
StartChar: Thorn
Encoding: 222 222 159
Width: 698
VWidth: 1473
Flags: W
HStem: 138 86<247 531.228> 517 102<331 589.788>
VStem: 623 109<329.069 485.428>
Fore
732 444 m 0
 732 268 595 138 440 138 c 2
 228 138 l 1
 203 21 l 2
 195 -18 151 -25 141 -25 c 256
 130 -25 93 -18 93 12 c 0
 93 15 93 18 94 21 c 2
 237 691 l 2
 245 729 292 737 303 737 c 256
 313 737 347 731 347 701 c 0
 347 698 347 695 346 691 c 2
 331 619 l 1
 527 619 l 2
 621 619 732 582 732 444 c 0
458 224 m 2
 542 224 623 301 623 417 c 0
 623 500 564 517 520 517 c 2
 309 517 l 1
 247 224 l 1
 458 224 l 2
EndSplineSet
EndChar
StartChar: uni00DF
Encoding: 223 223 160
Width: 671
VWidth: 1473
Flags: W
HStem: 3 99<266.612 434.405> 415 93<366 483.771> 657 80<375.811 518.42>
VStem: 540 102<203.301 361.219 539.508 635.533>
Fore
439 508 m 2
 515 508 539 563 539 593 c 0
 539 635 497 657 453 657 c 0
 370 657 315 600 298 524 c 2
 197 47 l 2
 191 18 167 -1 138 -1 c 256
 116 -1 100 14 100 36 c 0
 100 40 100 43 101 47 c 2
 204 532 l 2
 232 665 337 737 459 737 c 0
 598 737 640 662 640 598 c 0
 640 558 620 497 555 463 c 1
 626 429 642 359 642 307 c 0
 642 158 508 6 335 3 c 2
 299 3 l 2
 279 3 249 11 249 41 c 0
 249 80 290 100 315 102 c 2
 345 102 l 2
 474 107 540 199 540 289 c 0
 540 378 466 415 411 415 c 2
 346 415 l 1
 366 508 l 1
 439 508 l 2
EndSplineSet
EndChar
StartChar: ae
Encoding: 230 230 167
Width: 1087
VWidth: 1473
Flags: W
HStem: -12 92<223.659 435.284 702.666 895.774> 221 102<676 1003.46> 274 93<264.43 481.948> 442 96<281.876 509.279 773.561 932.803>
VStem: 79 111<114.298 217.588> 519 126<138.115 218.864> 1004 106<323.828 397.044>
Fore
162 424 m 0xbe
 162 480 282 538 416 538 c 0
 527 538 600 509 643 436 c 1
 709 505 798 538 887 538 c 0
 979 538 1110 499 1110 368 c 0
 1110 315 1090 247 1039 230 c 0
 1020 224 999 221 978 221 c 2
 647 221 l 1xde
 645 213 645 205 645 198 c 0
 645 122 720 85 791 85 c 0
 930 85 940 160 995 160 c 0
 1009 160 1031 152 1031 123 c 0
 1031 103 1022 80 1004 65 c 0
 920 3 849 -13 770 -13 c 0
 684 -13 603 17 563 85 c 1
 500 22 409 -12 299 -12 c 0
 172 -12 79 30 79 133 c 0
 79 273 224 367 393 367 c 0
 477 367 534 328 556 306 c 1
 558 311 558 318 558 330 c 0
 558 392 530 442 397 442 c 0
 290 442 230 388 197 388 c 0
 183 388 162 402 162 424 c 0xbe
369 274 m 0xbe
 298 274 190 240 190 168 c 0
 190 105 248 80 323 80 c 0
 418 80 519 114 519 194 c 0
 519 260 437 274 369 274 c 0xbe
1004 323 m 1xde
 1003 442 896 442 870 442 c 0
 762 442 685 368 676 323 c 1
 1004 323 l 1xde
EndSplineSet
EndChar
StartChar: eth
Encoding: 240 240 177
Width: 696
VWidth: 1473
Flags: W
HStem: 1 111<268.993 451.115> 436 108<330.659 517.909> 772 20G<493.5 509.5>
VStem: 98 110<169.579 319.28> 614 95<489 583.25>
Fore
98 209 m 0
 98 394 266 544 447 544 c 0
 507 544 573 534 614 489 c 1
 614 542 593 587 576 613 c 1
 497 583 l 1
 464 632 l 1
 537 663 l 1
 506 685 498 699 477 709 c 256
 460 716 454 728 454 740 c 0
 454 765 481 792 506 792 c 0
 513 792 536 788 543 784 c 0
 588 760 633 712 641 703 c 1
 720 734 l 1
 757 679 l 1
 676 648 l 1
 692 617 709 561 709 484 c 0
 709 447 705 406 695 359 c 2
 631 55 l 2
 624 22 592 -1 563 -1 c 256
 537 -1 520 16 520 39 c 0
 520 44 521 53 522 56 c 1
 460 12 384 1 331 1 c 0
 180 1 98 87 98 209 c 0
424 436 m 0
 303 436 208 340 208 242 c 0
 208 175 253 112 355 112 c 0
 528 112 571 253 571 319 c 0
 571 411 492 436 424 436 c 0
EndSplineSet
EndChar
StartChar: divide
Encoding: 247 247 184
Width: 738
VWidth: 1473
Flags: W
HStem: 6 141<334.664 413.333> 368 140<412.038 491.023>
VStem: 301 144<37.6337 114.501> 379 143<399.917 475.159>
Fore
167 315 m 2xc0
 125 315 94 277 94 243 c 0
 94 214 115 194 141 194 c 2
 674 194 l 2
 714 194 747 230 747 271 c 0
 747 297 729 315 700 315 c 2
 167 315 l 2xc0
522 454 m 0xd0
 522 408 480 368 437 368 c 256
 404 368 379 393 379 425 c 0
 379 472 429 508 467 508 c 256
 499 508 522 486 522 454 c 0xd0
445 93 m 0xe0
 445 47 404 6 360 6 c 256
 328 6 301 28 301 62 c 0
 301 109 348 147 390 147 c 256
 422 147 445 125 445 93 c 0xe0
EndSplineSet
EndChar
StartChar: oslash
Encoding: 248 248 185
Width: 649
VWidth: 1473
Flags: W
HStem: -19 84<281.971 423.014> 463 88<335.644 476.564> 579 20G<641 651.5>
VStem: 96 87<137.712 312.661> 577 88<218.226 389.492>
Fore
96 207 m 0
 96 398 279 551 444 551 c 0
 481 551 522 543 558 519 c 1
 615 583 l 2
 626 594 637 599 645 599 c 0
 658 599 672 584 672 567 c 0
 672 561 670 553 664 547 c 2
 609 480 l 1
 634 448 665 401 665 329 c 0
 665 154 507 -19 319 -19 c 0
 279 -19 234 -11 193 15 c 1
 135 -52 l 2
 127 -61 115 -67 105 -67 c 0
 92 -67 79 -55 79 -40 c 0
 79 -30 85 -21 90 -15 c 2
 148 53 l 1
 112 96 96 151 96 207 c 0
423 463 m 0
 293 463 183 345 183 219 c 0
 183 184 192 154 211 128 c 1
 497 446 l 1
 475 457 450 463 423 463 c 0
335 65 m 0
 447 65 577 177 577 308 c 0
 577 350 563 384 541 408 c 1
 260 87 l 1
 282 72 307 65 335 65 c 0
EndSplineSet
EndChar
StartChar: thorn
Encoding: 254 254 191
Width: 674
VWidth: 1473
Flags: W
HStem: -16 101<288.334 461.528> 430 109<371.733 526.849>
VStem: 582 105<213.547 371.98>
Fore
687 321 m 0
 687 158 551 -16 345 -16 c 0
 256 -16 209 31 207 32 c 1
 160 -190 l 2
 153 -222 126 -247 93 -247 c 0
 59 -247 50 -228 50 -205 c 0
 50 -198 51 -191 52 -184 c 2
 238 692 l 2
 245 723 263 757 307 757 c 0
 340 757 349 736 349 713 c 0
 349 706 348 699 347 692 c 2
 302 482 l 1
 344 508 409 539 472 539 c 0
 609 539 687 446 687 321 c 0
455 430 m 0
 341 430 235 342 235 211 c 0
 235 131 288 85 376 85 c 0
 527 85 582 237 582 298 c 0
 582 360 540 430 455 430 c 0
EndSplineSet
EndChar
StartChar: Lslash
Encoding: 321 321 193
Width: 701
VWidth: 1473
Flags: W
HStem: -1 109<233.004 234 234 657.876> 697 20G<281.5 320.5>
VStem: 119 114<81.8461 135.492>
Fore
677 67 m 0
 677 45 661 -1 601 -1 c 2
 234 -1 l 2
 145 -1 119 47 119 99 c 0
 119 113 121 127 124 141 c 2
 163 323 l 1
 60 265 l 1
 77 342 l 1
 179 399 l 1
 232 651 l 2
 238 677 258 717 305 717 c 0
 336 717 346 696 346 674 c 0
 346 666 345 658 343 651 c 2
 304 467 l 1
 399 517 l 1
 383 440 l 1
 288 390 l 1
 234 138 l 2
 233 135 233 132 233 129 c 0
 233 118 239 108 257 108 c 2
 624 108 l 2
 656 108 677 95 677 67 c 0
EndSplineSet
EndChar
StartChar: lslash
Encoding: 322 322 194
Width: 296
VWidth: 1473
Flags: W
HStem: -1 21G<133 151.5> 818 20G<306 335.5>
VStem: 66 335<255 569 176.326 296.09>
Fore
322 838 m 0
 349 838 366 827 366 797 c 0
 366 790 365 781 363 772 c 2
 305 501 l 1
 401 569 l 1
 385 495 l 1
 290 426 l 1
 213 65 l 2
 200 5 159 -1 144 -1 c 0
 122 -1 101 4 101 39 c 0
 101 46 102 55 104 65 c 2
 160 329 l 1
 66 255 l 1
 82 331 l 1
 176 404 l 1
 254 772 l 2
 265 823 290 838 322 838 c 0
EndSplineSet
EndChar
StartChar: OE
Encoding: 338 338 195
Width: 1311
VWidth: 1473
Flags: W
HStem: -9 112<325.482 516.636 845.731 1106.81> 302 110<838 1136.48> 607 112<426.058 617.261 956.536 1220.97>
VStem: 108 114<206.234 401.984> 720 76<204 408>
Fore
1292 159 m 0
 1292 93 1148 -7 961 -7 c 0
 828 -7 724 31 693 121 c 1
 621 51 515 -9 394 -9 c 0
 226 -9 108 117 108 280 c 0
 108 499 324 719 549 719 c 0
 667 719 747 659 790 591 c 1
 858 682 982 723 1116 723 c 0
 1292 723 1380 639 1380 578 c 0
 1380 540 1345 518 1317 518 c 0
 1297 518 1281 531 1272 545 c 0
 1258 572 1213 613 1092 613 c 0
 993 613 876 591 852 482 c 2
 838 412 l 1
 1101 411 l 2
 1128 411 1158 402 1158 371 c 0
 1158 344 1136 302 1078 302 c 2
 814 302 l 1
 800 236 l 2
 798 224 796 214 796 204 c 0
 796 124 873 103 984 103 c 0
 1105 103 1167 144 1192 171 c 0
 1211 190 1232 197 1250 197 c 0
 1274 197 1292 182 1292 159 c 0
525 607 m 0
 374 607 222 461 222 300 c 0
 222 181 310 103 418 103 c 0
 569 103 720 252 720 408 c 0
 720 518 643 607 525 607 c 0
EndSplineSet
EndChar
StartChar: oe
Encoding: 339 339 196
Width: 1113
VWidth: 1473
Flags: W
HStem: -15 100<725.698 925.373> -10 107<259.411 452.757> 220 100<699 1027.76> 426 109<319.559 511.544> 439 97<798.524 985.094>
VStem: 94 105<153.902 308.799> 1030 104<321.056 394.774>
Fore
94 204 m 0x66
 94 346 205 535 443 535 c 0x76
 549 535 623 498 656 423 c 1
 692 463 774 536 914 536 c 0
 1084 536 1134 435 1134 357 c 0
 1134 302 1108 220 1005 220 c 2
 670 220 l 1
 670 210 l 2
 670 132 724 85 816 85 c 0
 955 85 971 157 1019 157 c 0
 1031 157 1053 147 1053 117 c 0
 1053 94 1043 75 1025 62 c 0
 943 0 870 -15 797 -15 c 0xae
 693 -15 620 21 581 94 c 1
 543 54 466 -10 327 -10 c 0
 174 -10 94 86 94 204 c 0x66
420 426 m 0
 257 426 199 300 199 225 c 0
 199 157 243 97 350 97 c 0
 509 97 571 220 571 296 c 0
 571 365 525 426 420 426 c 0
1030 320 m 1
 1030 329 l 0
 1030 370 1014 439 896 439 c 0x2e
 789 439 712 368 699 320 c 1
 1030 320 l 1
EndSplineSet
EndChar
StartChar: florin
Encoding: 402 402 202
Width: 531
VWidth: 1473
Flags: W
HStem: -202 140<20.64 118.276> 362 87<228 305 447 513> 594 138<508.918 599.4>
Fore
631 678 m 0
 631 638 593 594 544 594 c 0
 527 594 515 598 508 607 c 1
 451 485 479 519 447 448 c 1
 544 448 l 1
 513 362 l 1
 413 362 l 1
 381 285 l 2
 283 44 198 -202 45 -202 c 0
 13 -202 -9 -178 -9 -146 c 0
 -9 -96 36 -62 75 -62 c 0
 101 -62 118 -71 127 -88 c 1
 158 -30 165 10 200 96 c 0
 239 189 273 286 305 362 c 1
 201 362 l 1
 228 449 l 1
 341 449 l 1
 435 638 483 732 574 732 c 256
 610 732 631 708 631 678 c 0
EndSplineSet
EndChar
StartChar: circumflex
Encoding: 710 710 203
Width: 472
VWidth: 1473
Flags: W
HStem: 775 146<468 469>
VStem: 228 332<775 775 775 775>
Fore
469 921 m 1
 560 775 l 1
 468 775 l 1
 413 854 l 1
 324 775 l 1
 228 775 l 1
 386 921 l 1
 469 921 l 1
EndSplineSet
EndChar
StartChar: caron
Encoding: 711 711 204
Width: 472
VWidth: 1473
Flags: W
HStem: 754 146<269 359 269 269>
VStem: 269 329<900 900 900 900>
Fore
359 754 m 1
 269 900 l 1
 356 900 l 1
 412 810 l 1
 506 900 l 1
 598 900 l 1
 441 754 l 1
 359 754 l 1
EndSplineSet
EndChar
StartChar: breve
Encoding: 728 728 205
Width: 441
VWidth: 1473
Flags: W
HStem: 626 74<312.888 435.442> 626 170
VStem: 222 329<654 760 745 796 772.688 796> 222 78<713.136 767.881 763.074 772.688 772.688 796> 474 77<722.803 796>
Fore
551 796 m 1x60
 525 653 402 626 357 626 c 0xa0
 298 626 222 654 222 745 c 0
 222 760 224 777 229 796 c 1
 306 796 l 1x60
 302 782 300 770 300 759 c 0
 300 716 331 700 370 700 c 0x90
 420 700 461 726 474 796 c 1x58
 551 796 l 1x60
EndSplineSet
EndChar
StartChar: dotaccent
Encoding: 729 729 206
Width: 274
VWidth: 1473
Flags: W
HStem: 619 144<243.044 328.252>
VStem: 209 153<652.115 729.101>
Fore
362 705 m 0
 362 658 316 619 270 619 c 256
 232 619 209 644 209 677 c 0
 209 726 259 763 300 763 c 256
 338 763 362 737 362 705 c 0
EndSplineSet
EndChar
StartChar: ring
Encoding: 730 730 207
Width: 409
VWidth: 1473
Flags: W
HStem: 597 54<312.521 382.249> 734 54<320.809 391.561>
VStem: 254 56<653.107 722.548> 394 56<662.844 731.71>
Fore
450 712 m 0
 450 658 399 597 332 597 c 256
 284 597 254 630 254 672 c 0
 254 735 313 788 372 788 c 256
 420 788 450 755 450 712 c 0
343 651 m 256
 366 651 394 674 394 701 c 0
 394 720 379 734 361 734 c 256
 332 734 310 706 310 685 c 0
 310 667 324 651 343 651 c 256
EndSplineSet
EndChar
StartChar: tilde
Encoding: 732 732 209
Width: 434
VWidth: 1473
Flags: W
HStem: 585 84<375.779 480.113> 636 84<246.168 347.332>
VStem: 155 404<597 710 597 597>
Fore
557 699 m 1xa0
 543 633 494 585 437 585 c 0xa0
 377 585 328 636 289 636 c 0
 255 636 246 618 237 597 c 1
 155 597 l 1
 180 673 233 720 292 720 c 0x60
 351 720 387 669 442 669 c 0
 464 669 481 681 487 710 c 1
 559 710 l 1
 558 706 557 702 557 699 c 1xa0
EndSplineSet
EndChar
StartChar: uni0E01
Encoding: 3585 3585 212
Width: 761
VWidth: 1473
Flags: W
HStem: 0 21G<211 230.5 626.5 647.5> 510 87<386.193 611.915>
VStem: 664 106<367.426 463.693>
Fore
149 355 m 0
 149 397 270 597 523 597 c 0
 700 597 770 526 770 414 c 0
 770 392 767 368 762 343 c 2
 698 43 l 2
 691 9 659 0 636 0 c 256
 617 0 591 7 591 33 c 0
 591 36 591 40 592 43 c 2
 659 357 l 2
 662 372 664 386 664 399 c 0
 664 467 619 510 495 510 c 0
 367 510 278 434 257 390 c 1
 279 378 l 2
 288 373 296 369 303 365 c 1
 323 377 353 409 377 409 c 0
 391 409 414 380 414 356 c 0
 414 342 405 334 394 330 c 0
 351 311 329 256 326 239 c 2
 284 41 l 2
 276 7 241 0 220 0 c 0
 202 0 177 6 177 31 c 0
 177 51 213 261 244 295 c 1
 159 340 l 2
 152 345 149 350 149 355 c 0
EndSplineSet
EndChar
StartChar: uni0E02
Encoding: 3586 3586 213
Width: 679
VWidth: 1473
Flags: W
HStem: -7 98<336.195 494.148> 357 74<224.709 315.246> 526 79<241.815 403.893>
VStem: 143 79<434.453 504.641> 202 116<110.958 215.559> 337 69<452.766 501.954> 428 84<400.027 486.446>
Fore
512 472 m 0xf6
 512 318 318 282 318 160 c 0
 318 123 340 91 398 91 c 0
 473 91 522 109 537 181 c 2
 618 558 l 2
 625 592 659 601 680 601 c 256
 700 601 727 594 727 567 c 0
 727 564 727 561 726 558 c 2
 645 181 l 2
 609 44 528 -7 378 -7 c 0
 302 -7 202 21 202 127 c 0xee
 202 258 332 334 350 346 c 0
 412 388 428 431 428 453 c 0
 428 469 421 485 406 502 c 1
 406 439 344 357 244 357 c 0
 173 357 143 404 143 450 c 0
 143 504 195 605 348 605 c 0
 473 605 512 533 512 472 c 0xf6
261 431 m 0
 301 431 337 465 337 493 c 0
 337 511 321 526 297 526 c 0
 264 526 222 501 222 465 c 0xf6
 222 444 239 431 261 431 c 0
EndSplineSet
EndChar
StartChar: uni0E03
Encoding: 3587 3587 214
Width: 739
VWidth: 1473
Flags: W
HStem: -7 100<392.881 552.604> 302 56<217.377 307.22> 430 53<257.047 313.401> 516 84<282.216 372.811 468.977 528.639>
VStem: 135 81<361.853 420.326> 266 112<108.507 216.999> 315 54<368.237 426.221> 532 90<435.58 506.269>
Fore
135 393 m 0xfb
 135 506 243 600 348 600 c 0
 388 600 418 586 429 563 c 1
 430 564 460 600 515 600 c 0
 552 600 622 580 622 501 c 0
 622 316.656 378 287.717 378 154 c 0
 378 125 394 93 461 93 c 0
 521 93 583 106 600 190 c 2
 678 554 l 2
 685 589 719 598 740 598 c 0
 760 598 786 591 786 564 c 0
 786 561 786 558 785 554 c 2
 707 190 l 2
 689 104 622 -7 444 -7 c 0
 341 -7 266 39 266 134 c 0xfd
 266 250 371 332 435 368 c 0
 464 387 532 436 532 481 c 0
 532 500 517 509 501 509 c 0
 484 509 465 498 460 477 c 0
 455 459 427 451 413 451 c 0
 350 451 409 516 324 516 c 0
 304 516 266 508 251 476 c 1
 262 480 274 483 286 483 c 0
 324 483 369 459 369 411 c 0
 369 347 304 302 242 302 c 0
 190 302 135 321 135 393 c 0xfb
272 430 m 256
 232 430 216 404 216 387 c 0
 216 374 226 358 257 358 c 0
 287 358 315 375 315 400 c 0xfb
 315 419 295 430 272 430 c 256
EndSplineSet
EndChar
StartChar: uni0E04
Encoding: 3588 3588 215
Width: 727
VWidth: 1473
Flags: W
HStem: -1 21G<115 136 590 614.5> 186 72<389.749 479.027> 343 72<397.028 487.592> 498 97<367.296 579.949>
VStem: 491 76<270.869 337.315> 626 107<346.745 455.603>
Fore
567 322 m 0
 567 251 494 186 414 186 c 0
 347 186 322 232 316 252 c 1
 262 213 212 149 195 69 c 2
 189 41 l 2
 181 7 147 -1 125 -1 c 256
 105 -1 80 5 80 30 c 0
 80 33 80 37 81 41 c 2
 140 321 l 2
 178 498 312 595 500 595 c 0
 641 595 733 531 733 398 c 0
 733 375 730 349 724 321 c 2
 665 41 l 2
 657 7 626 -1 603 -1 c 256
 577 -1 558 8 558 30 c 0
 558 33 558 37 559 41 c 2
 619 323 l 2
 624 344 626 365 626 383 c 0
 626 451 591 498 480 498 c 256
 359 498 275 446 248 321 c 2
 244 301 l 1
 283 335 l 2
 313 360 388 415 462 415 c 0
 525 415 567 375 567 322 c 0
447 343 m 0
 419 343 386 324 386 293 c 0
 386 272 403 258 429 258 c 0
 457 258 491 278 491 308 c 0
 491 328 471 343 447 343 c 0
EndSplineSet
EndChar
StartChar: uni0E05
Encoding: 3589 3589 216
Width: 729
VWidth: 1473
Flags: W
HStem: -1 21G<115 136.5 594 615.5> 175 71<384.816 475.83> 334 71<414.631 485.9> 429 90<451.751 534.92> 575 20G<365.5 406 626.5 634>
VStem: 490 76<260.132 328.389>
Fore
566 314 m 0
 566 238 488 175 411 175 c 0
 343 175 318 218 311 237 c 1
 275 220 209 135 194 66 c 2
 189 41 l 2
 181 7 148 -1 125 -1 c 0
 105 -1 80 5 80 30 c 0
 80 34 80 37 81 41 c 2
 155 389 l 2
 193 569 337 595 394 595 c 0
 418 595 424 586 437 558 c 1
 455 532 474 519 496 519 c 0
 510 519 535 524 575 557 c 1
 608 594 621 594 632 594 c 0
 636 594 759 586 759 491 c 0
 759 482 758 474 756 464 c 2
 666 41 l 2
 658 7 627 -1 604 -1 c 0
 584 -1 559 5 559 30 c 0
 559 34 559 37 560 41 c 2
 652 477 l 2
 652 478 653 480 653 481 c 0
 653 489 644 493 630 498 c 1
 630 497 561 429 478 429 c 0
 416 429 369 468 355 496 c 1
 322 492 281 477 263 389 c 2
 242 290 l 1
 338 391 435 404 462 405 c 0
 511 405 566 375 566 314 c 0
445 334 m 256
 416 334 382 314 382 281 c 0
 382 260 400 246 426 246 c 256
 467 246 490 276 490 298 c 0
 490 319 471 334 445 334 c 256
EndSplineSet
EndChar
StartChar: uni0E06
Encoding: 3590 3590 217
Width: 824
VWidth: 1473
Flags: W
HStem: -7 92<247.819 322.327 584.222 660.661> 200 91<264.924 337.804> 303 55<222.011 313.235> 433 53<269.446 320.264> 521 82<280.448 370.59 468.216 520.974>
VStem: 145 75<362.173 421.898> 150 95<95.455 164.444> 322 57<367.954 422.95> 523 98<447.179 513.44>
Fore
145 406 m 0xfd80
 145 508 241 603 343 603 c 0
 377 603 415 590 428 561 c 1
 432 564 461 602 515 602 c 0
 579 602 621 557 621 499 c 0
 621 449 592 403 553 374 c 2
 513 342 l 2
 464 305 458 283 455 268 c 2
 447 231 l 1
 454 225 460 218 468 211 c 2
 518 160 l 2
 581 93 603 92 625 92 c 0
 642 92 669 103 681 161 c 2
 764 552 l 2
 772 586 802 595 826 595 c 256
 847 595 871 588 871 563 c 0
 871 560 871 556 870 552 c 2
 787 161 l 2
 769 74 706 -12 607 -12 c 0
 564 -12 505 -1 415 105 c 1
 393 48 338 -7 262 -7 c 0
 185 -7 150 50 150 109 c 0xfb80
 150 206 241 291 324 291 c 0
 336 291 347 289 359 286 c 1
 374 340 395 370 435 396 c 0
 499 438 523 463 523 489 c 0
 523 505 510 515 496 515 c 0
 465 515 461 480 460 474 c 0
 457 460 430 448 412 448 c 0
 380 448 377 466 377 481 c 0
 377 500 356 521 330 521 c 0
 301 521 277 503 269 485 c 1
 275 486 281 486 287 486 c 0
 336 486 379 463 379 415 c 0
 379 357 322 303 251 303 c 0
 207 303 145 331 145 406 c 0xfd80
279 433 m 256
 237 433 220 406 220 388 c 0xfd80
 220 370 236 358 263 358 c 0
 289 358 322 373 322 402 c 0
 322 416 313 433 279 433 c 256
307 200 m 0
 257 200 245 142 245 124 c 0xfb80
 245 108 250 85 280 85 c 256
 333 85 339 153 339 167 c 0
 339 192 326 200 307 200 c 0
EndSplineSet
EndChar
StartChar: uni0E07
Encoding: 3591 3591 218
Width: 596
VWidth: 1473
Flags: W
HStem: -5 102<294.148 419.9> 360 73<433.237 486.513 479.488 493.538> 523 72<444.035 535.764>
VStem: 107 109<189.932 330.507 310.947 350.067> 352 77<438.627 506.426> 540 86<455.689 518.081>
Fore
107 257 m 0
 107 351 136 367 176 367 c 0
 199 367 222 360 222 332 c 0
 222 316 216 310 216 278 c 0
 216 183 287 97 353 97 c 0
 399 97 441 111 461 206 c 2
 494 364 l 1
 481 362 469 360 458 360 c 0
 388 360 352 404 352 455 c 0
 352 523 422 595 509 595 c 0
 572 595 626 575 626 502 c 0
 626 489 625 474 621 458 c 2
 568 206 l 2
 532 37 419 -5 349 -5 c 0
 230 -5 107 107 107 257 c 0
494 523 m 0
 455 523 429 491 429 470 c 0
 429 449 450 433 475 433 c 0
 513 433 540 459 540 486 c 0
 540 508 521 523 494 523 c 0
EndSplineSet
EndChar
StartChar: uni0E08
Encoding: 3592 3592 219
Width: 699
VWidth: 1473
Flags: W
HStem: -3 91<479.11 540.686> 175 71<298.62 368.101> 334 71<307.849 400.738> 499 96<342.207 568.206>
VStem: 220 75<250.34 319.321> 378 99<89.292 151.75> 405 86<261.331 328.559> 602 111<378.854 468.478>
Fore
129 381 m 0xfd
 129 408 220 595 481 595 c 0
 670 595 713 508 713 427 c 0
 713 406 710 386 706 367 c 2
 653 127 l 2
 631 23 556 -3 491 -3 c 0xfb
 407 -3 378 35 378 84 c 2
 378 94 l 1xfd
 384 193 l 1
 369 178 335 175 324 175 c 0
 263 175 220 215 220 267 c 0
 220 344 300 405 373 405 c 0
 475 405 491 349 491 304 c 0xfb
 491 270 477 153 477 128 c 0
 477 100 485 88 512 88 c 0
 532 88 543 110 547 127 c 2
 594 348 l 2
 599 371 602 391 602 409 c 0
 602 471 565 499 460 499 c 0
 325 499 251 431 230 380 c 0
 218 354 195 345 173 345 c 0
 153 345 129 358 129 381 c 0xfd
358 334 m 0
 329 334 295 314 295 281 c 0
 295 260 313 246 339 246 c 0
 382 246 405 276 405 298 c 0
 405 320 386 334 358 334 c 0
EndSplineSet
EndChar
StartChar: uni0E09
Encoding: 3593 3593 220
Width: 755
VWidth: 1473
Flags: W
HStem: -9 102<336.871 391.69> -9 84<600.119 667.749> 149 73<184.409 233.221> 312 73<194.94 287.035> 496 98<338.197 588.513>
VStem: 104 77<226.198 297.94> 228 108<57.4397 138.77> 292 77<253.569 306.383> 635 112<360.95 454.744> 684 80<91.6912 174.997>
Fore
140 437 m 0xbe80
 140 483 277 594 499 594 c 0
 645 594 747 556 747 418 c 0xbe80
 747 394 744 367 737 336 c 2
 719 247 l 1
 744 231 764 198 764 156 c 0
 764 68 687 -9 611 -9 c 256x7c40
 536 -9 510 31 506 69 c 1
 413 -3 371 -9 341 -9 c 0
 271 -9 228 15 228 93 c 0xbe40
 228 110 230 130 234 152 c 1
 224 150 217 149 212 149 c 0
 145 149 104 191 104 243 c 0
 104 312 172 385 262 385 c 0
 339 385 369 333 369 289 c 0xbd
 369 283 368 277 367 271 c 2
 340 144 l 2
 338 136 336 124 336 115 c 0
 336 103 340 93 354 93 c 0
 378 93 415 112 491 172 c 2
 549 217 l 2
 569 232 591 244 612 252 c 1
 629 336 l 2
 633 355 635 373 635 388 c 0
 635 473 572 496 478 496 c 0
 366 496 292 466 258 440 c 0
 230 421 224 401 186 401 c 0
 165 401 140 415 140 437 c 0xbe80
651 177 m 256
 622 177 597 144 597 112 c 0
 597 91 609 75 629 75 c 256
 656 75 684 106 684 138 c 0x7c40
 684 160 672 177 651 177 c 256
246 312 m 0
 214 312 181 292 181 257 c 0
 181 235 199 222 227 222 c 0
 270 222 292 254 292 275 c 0x3d
 292 297 272 312 246 312 c 0
EndSplineSet
EndChar
StartChar: uni0E0A
Encoding: 3594 3594 221
Width: 679
VWidth: 1473
Flags: W
HStem: -7 98<339.198 496.682> 357 73<223.231 312.979> 525 78<241.282 365.213>
VStem: 143 78<432.947 504.511> 203 117<110.854 213.35> 335 71<466.516 501.461> 568 113<316.8 323 323 327.954 327.954 347.023 337.488 374.366>
Fore
143 449 m 0xf6
 143 509 199 603 344 603 c 0
 398 603 456 594 493 542 c 0
 504 527 512 512 515 495 c 1
 620 570 l 2
 723 644 695 674 744 674 c 0
 755 674 798 671 798 634 c 0
 798 595 743 557 715 536 c 2
 661 496 l 2
 643 484 626 471 612 460 c 1
 640 449 681 419 681 361 c 0
 681 352 680 343 678 333 c 2
 643 171 l 2
 608 7 500 -7 382 -7 c 0
 300 -7 203 21 203 125 c 0xee
 203 258 333 332 344 340 c 0
 407 382 427 430 427 453 c 0
 427 468 420 485 406 502 c 1
 406 489 405 477 403 466 c 0
 390 403 315 357 244 357 c 0
 178 357 143 400 143 449 c 0xf6
259 430 m 0
 291 430 335 458 335 490 c 0
 335 506 325 525 296 525 c 0
 266 525 221 501 221 464 c 0xf6
 221 448 231 430 259 430 c 0
510 417 m 1
 467 308 320 271 320 163 c 0xee
 320 130 338 91 402 91 c 0
 476 91 522 109 537 181 c 2
 568 323 l 1
 568 325 569 329 569 333 c 0
 569 355 561 396 510 417 c 1
EndSplineSet
EndChar
StartChar: uni0E0B
Encoding: 3595 3595 222
Width: 743
VWidth: 1473
Flags: W
HStem: -7 97<393.899 559.164> 302 53<213.977 303.578> 427 56<259.956 309.013> 507 93<463.371 524.701> 516 84<285.24 374.327>
VStem: 135 78<357.682 415.559> 266 112<107.944 218.23> 311 58<364.011 423.282> 633 113<310.703 323 327 328.431 328.431 339.875 334.153 371.823>
Fore
135 393 m 0xed80
 135 504 240 600 348 600 c 0xed80
 380 600 417 590 431 563 c 1
 431 563 455 600 515 600 c 0
 561 600 618 571 627 504 c 1
 667 539 l 2
 788 645 755 639 779 662 c 0
 786 668 799 673 811 673 c 0
 814 673 865 671 865 634 c 0
 865 604 839 569 742 488 c 2
 695 449 l 1
 727 435 746 407 746 364 c 0
 746 353 745 340 742 327 c 2
 710 178 l 2
 679 34 599 -7 444 -7 c 0
 344 -7 266 40 266 135 c 0
 266 249 371 332 435 368 c 0
 467 389 527 433 527 476 c 0
 527 496 511 507 495 507 c 0xf680
 480 507 465 497 460 477 c 0
 457 462 431 451 413 451 c 0
 353 451 410 516 326 516 c 0
 303 516 265 505 254 476 c 1
 266 480 277 483 289 483 c 0
 326 483 369 460 369 412 c 0
 369 356 313 302 244 302 c 0
 191 302 135 321 135 393 c 0xed80
593 402 m 1
 542 304 378 264 378 154 c 0xe680
 378 124 394 90 460 90 c 0
 547 90 588 112 604 187 c 2
 633 323 l 1
 633 325 634 329 634 334 c 0
 634 352 628 382 593 402 c 1
269 427 m 0
 240 427 213 409 213 383 c 0
 213 366 228 355 253 355 c 256
 283 355 311 372 311 397 c 0xe580
 311 417 292 427 269 427 c 0
EndSplineSet
EndChar
StartChar: uni0E0C
Encoding: 3596 3596 223
Width: 1075
VWidth: 1473
Flags: W
HStem: -7 84<554.429 621.86> -6 69<263.186 346.956> -4 97<808.102 908.685> 149 68<321 356.544> 180 82<569.299 635.219> 510 87<387.055 605.841>
VStem: 189 72<67.0806 128.079> 360 69<76.5584 144.728> 468 83<79.8043 163.383> 662 108<364.572 463.229>
Fore
468 95 m 0x87c0
 468 183 545 262 623 262 c 2
 638 262 l 1
 658 357 l 2
 661 371 662 385 662 397 c 0
 662 466 616 510 495 510 c 0
 367 510 283 436 255 390 c 1
 278 378 l 2
 288 373 296 369 302 364 c 1
 340 392 359 409 374 409 c 0
 392 409 413 379 413 357 c 0
 413 329 371 329 334 262 c 0x8fc0
 323 243 322 233 321 217 c 1
 333 217 l 2
 392 217 429 178 429 128 c 0
 429 65 367 -6 286 -6 c 0x57c0
 221 -6 189 43 189 90 c 0
 189 102 194 132 198 150 c 2
 207 193 l 2
 209 205 222 270 253 298 c 1
 195 321 168 336 159 340 c 0
 152 343 147 347 147 353 c 0
 147 388 261 597 522 597 c 0
 700 597 770 526 770 414 c 0
 770 392 767 368 762 343 c 2
 732 202 l 1
 757 166 l 2
 762 160 813 93 860 93 c 0
 904 93 922 122 932 171 c 2
 1013 551 l 2
 1016 578 1047 594 1076 594 c 0
 1095 594 1121 587 1121 561 c 0
 1121 558 1121 554 1120 551 c 2
 1039 171 l 2
 1010 34 928 -4 839 -4 c 0x27c0
 809 -4 763 3 704 71 c 1
 683 37 639 -7 566 -7 c 0
 510 -7 468 34 468 95 c 0x87c0
605 180 m 256
 577 180 551 147 551 114 c 0
 551 92 563 77 583 77 c 256
 616 77 638 113 638 141 c 0
 638 163 626 180 605 180 c 256
319 149 m 256x57c0
 292 149 261 128 261 97 c 0
 261 77 277 63 300 63 c 256
 339 63 360 94 360 114 c 0
 360 135 344 149 319 149 c 256x57c0
EndSplineSet
EndChar
StartChar: uni0E0D
Encoding: 3597 3597 224
Width: 1118
VWidth: 1473
Flags: W
HStem: -282 96<618.946 761.819> -105 67<627.083 715.13> -10 92<741.429 929.586> -6 68<263.749 349.792> 147 70<323 357.813> 510 87<387.267 612.625>
VStem: 191 70<66.3567 128.118> 362 67<74.9298 142.244> 548 68<-180.897 -117.88> 617 108<98.4402 177.563> 665 108<371.661 464.413> 717 69<-162.302 -108.32>
Fore
415 361 m 0xefa0
 415 322 347 328 323 217 c 1
 335 217 l 2
 392 217 429 179 429 128 c 0
 429 59 366 -6 288 -6 c 0
 208 -6 191 55 191 92 c 0
 191 103 192 110 200 150 c 2
 210 196 l 2
 213 213 221 270 255 298 c 1
 160 340 l 2
 153 343 149 347 149 353 c 0
 149 399 274 597 523 597 c 0
 701 597 773 525 773 415 c 0xdfa0
 773 393 770 369 764 343 c 2
 732 203 l 2
 727 182 725 164 725 149 c 0
 725 96 757 82 832 82 c 0
 927 82 961 106 982 205 c 2
 1055 550 l 2
 1062 585 1096 594 1117 594 c 0
 1139 594 1164 587 1164 560 c 0
 1164 557 1164 554 1163 550 c 2
 1090 205 l 2
 1060 64 995 -10 813 -10 c 0
 672 -10 617 30 617 123 c 0xefc0
 617 147 620 174 627 205 c 2
 660 363 l 2
 663 377 665 390 665 402 c 0
 665 468 619 510 497 510 c 0
 365 510 282 434 258 391 c 1
 305 365 l 1
 321 377 357 409 379 409 c 0
 391 409 415 384 415 361 c 0xefa0
786 -124 m 0xcf90
 786 -136 785 -170 749 -206 c 1
 840 -203 925 -177 946 -78 c 0
 950 -59 966 -46 1005 -46 c 0
 1029 -46 1035 -57 1035 -71 c 0
 1035 -99 1004 -235 820 -271 c 0
 785 -278 753 -282 725 -282 c 0xcfc0
 643 -282 548 -250 548 -169 c 0
 548 -91 624 -38 690 -38 c 0
 746 -38 786 -75 786 -124 c 0xcf90
676 -105 m 256
 650 -105 616 -124 616 -151 c 0
 616 -172 635 -186 658 -186 c 0
 696 -186 717 -156 717 -137 c 0xcf90
 717 -118 700 -105 676 -105 c 256
320 147 m 256
 292 147 261 128 261 97 c 0
 261 76 277 62 302 62 c 256xdf80
 330 62 362 84 362 112 c 0
 362 132 343 147 320 147 c 256
EndSplineSet
Substitution2: "Single Substitution lookup 22 subtable" uni0E0D.alt1
Substitution2: "Single Substitution lookup 22 subtable" uni0E0D.alt1
EndChar
StartChar: uni0E0E
Encoding: 3598 3598 225
Width: 780
VWidth: 1473
Flags: W
HStem: -315 68<181.273 281.177> -164 68<190.299 290.022> -7 69<136.264 228.202> 147 68<145.598 230.493> 510 87<407.874 629.964>
VStem: 61 72<67.6057 134.178> 100 77<-240.821 -178.579> 682 108<367.978 464.624>
Fore
167 351 m 0xfd
 167 388 285 597 541 597 c 0
 719 597 790 527 790 415 c 0
 790 393 787 369 782 344 c 2
 674 -164 l 2
 665 -205 544 -311 509 -311 c 0
 490 -311 417 -242 369 -225 c 1
 319 -301 258 -315 211 -315 c 0
 146 -315 100 -279 100 -226 c 0xfb
 100 -163 166 -96 258 -96 c 0
 299 -96 317 -107 323 -110 c 1
 331 -71 l 2
 335 -51 350 -37 381 -37 c 256
 402 -37 423 -42 423 -61 c 0
 423 -66 418 -99 416 -108 c 2
 408 -144 l 1
 432 -154 467 -172 519 -209 c 1
 535 -198 559 -173 567 -162 c 1
 678 363 l 2
 681 376 682 389 682 401 c 0
 682 468 635 510 515 510 c 0
 372 510 292 424 276 391 c 1
 289 381 306 377 322 364 c 1
 345 384 377 410 395 410 c 0
 410 410 434 381 434 357 c 0
 434 347 429 336 413 331 c 0
 370 312 349 256 346 239 c 2
 319 112 l 2
 298 13 210 -7 164 -7 c 0
 102 -7 61 30 61 83 c 0
 61 149 129 215 211 215 c 0
 221 215 228 215 232 214 c 1
 238 239 l 1
 250 267 251 282 263 295 c 1
 215 320 l 2
 175 341 167 344 167 351 c 0xfd
196 147 m 0
 169 147 133 129 133 97 c 0xfd
 133 76 152 62 178 62 c 0
 206 62 240 82 240 112 c 0
 240 132 220 147 196 147 c 0
243 -164 m 0
 205 -164 177 -190 177 -212 c 0xfb
 177 -232 200 -247 225 -247 c 0
 254 -247 293 -230 293 -198 c 0
 293 -178 271 -164 243 -164 c 0
EndSplineSet
Substitution2: "Single Substitution lookup 22 subtable" uni0E0E.alt1
Substitution2: "Single Substitution lookup 22 subtable" uni0E0E.alt1
EndChar
StartChar: uni0E0F
Encoding: 3599 3599 226
Width: 780
VWidth: 1473
Flags: W
HStem: -315 68<103.04 200.712> -164 68<112.124 209.795> -7 69<137.081 227.794> 147 68<144.611 230.462> 510 87<406.213 629.989>
VStem: 20 79<-240.705 -178.368> 61 72<66.2429 133.589> 682 108<367.732 463.571>
Fore
231 214 m 1xfb
 236 224 243 275 263 295 c 1
 215 320 l 2
 175 341 167 348 167 354 c 0
 167 386 278 597 541 597 c 0
 718 597 790 526 790 414 c 0
 790 392 787 369 782 344 c 2
 674 -164 l 2
 666 -204 568 -311 528 -311 c 0
 510 -311 460 -256 444 -227 c 1
 436 -235 374 -301 348 -301 c 0
 313 -301 315 -272 279 -242 c 1
 258 -267 211 -315 133 -315 c 0xfb
 67 -315 20 -278 20 -226 c 0xfd
 20 -162 88 -96 180 -96 c 0
 208 -96 228 -101 245 -110 c 1
 253 -69 l 2
 259 -43 283 -37 303 -37 c 256
 333 -37 345 -46 345 -61 c 0
 345 -91 325 -158 325 -158 c 1
 348 -170 357 -187 371 -202 c 1
 403 -183 434 -127 461 -127 c 0
 486 -127 493 -175 533 -203 c 1
 549 -192 559 -182 565 -171 c 1
 677 357 l 2
 680 372 682 385 682 398 c 0
 682 467 636 510 515 510 c 0
 370 510 293 425 275 391 c 1
 293 379 305 377 322 364 c 1
 345 384 377 410 395 410 c 0
 408 410 434 376 434 355 c 0
 434 326 399 341 367 289 c 0
 356 270 349 253 346 239 c 2
 319 112 l 2
 298 16 216 -7 163 -7 c 0
 101 -7 61 30 61 83 c 0
 61 148 126 215 210 215 c 0
 219 215 227 215 231 214 c 1xfb
195 147 m 0
 168 147 133 127 133 97 c 0
 133 76 152 62 177 62 c 0
 205 62 240 81 240 112 c 0
 240 132 220 147 195 147 c 0
165 -164 m 256
 127 -164 99 -190 99 -212 c 0xfd
 99 -232 122 -247 147 -247 c 256
 175 -247 213 -230 213 -198 c 0
 213 -178 192 -164 165 -164 c 256
EndSplineSet
Substitution2: "Single Substitution lookup 22 subtable" uni0E0F.alt1
Substitution2: "Single Substitution lookup 22 subtable" uni0E0F.alt1
EndChar
StartChar: uni0E10
Encoding: 3600 3600 227
Width: 699
VWidth: 1473
Flags: W
HStem: -325 60<414.235 461.765> -315 62<77.8937 169.728> -196 56<440.806 504.774> -178 62<83.3737 177.172> -71 55<446.967 533.338> -8 71<432.299 531.061> 78 74<221.798 297.282> 242 72<233.52 324.286> 334 87<218.455 298.2> 350 93<331.985 556.204> 522 88<351.336 592.202>
VStem: 2 73<-248.877 -189.265> 141 77<157.544 225.814> 374 65<-136.407 -81.1707> 535 66<-129.816 -75.1715> 574 106<250.433 261 267 273.023 273.023 279.202 276.113 330.171>
Back
757 519 m 0
 761 509 761.5 498.5 758.5 487.5 c 128
 755.5 476.5 743.333 465.667 722 455 c 0
 705.333 446.333 692.833 444 684.5 448 c 128
 676.167 452 668 459.333 660 470 c 0
 650 484 628.667 498.5 596 513.5 c 128
 563.333 528.5 520.333 535.667 467 535 c 0
 443.667 535 419.167 531.833 393.5 525.5 c 128
 367.833 519.167 344.5 511.5 323.5 502.5 c 128
 302.5 493.5 285 484.167 271 474.5 c 128
 257 464.833 250 455.333 250 446 c 128
 250 436.667 258.5 433 275.5 435 c 128
 292.5 437 320.333 441.333 359 448 c 0
 395.667 454 430.667 456.667 464 456 c 128
 497.333 455.333 527.833 451.833 555.5 445.5 c 128
 583.167 439.167 606.833 430.333 626.5 419 c 128
 646.167 407.667 659.667 394.667 667 380 c 0
 681 357.333 687.5 336.667 686.5 318 c 128
 685.5 299.333 684 286.667 682 280 c 2
 678 262 l 2
 676 253.333 673 239.167 669 219.5 c 128
 665 199.833 659 172.667 651 138 c 0
 642.333 100 622.833 67.5 592.5 40.5 c 128
 562.167 13.5 525.333 -2.33333 482 -7 c 0
 462 -9 442.5 -8.83333 423.5 -6.5 c 128
 404.5 -4.16667 387.333 0.666667 372 8 c 128
 356.667 15.3333 344.333 24.6667 335 36 c 128
 325.667 47.3333 321 61.3333 321 78 c 2
 320.333 82 320 86.6667 320 92 c 128
 320 97.3333 319.333 102.667 318 108 c 1
 296.667 96.6667 274 91 250 91 c 0
 232.667 91 216.667 94.1667 202 100.5 c 128
 187.333 106.833 175.333 115.167 166 125.5 c 128
 156.667 135.833 150 148.167 146 162.5 c 128
 142 176.833 142 192.333 146 209 c 0
 148.667 225 155.167 240.333 165.5 255 c 128
 175.833 269.667 187.833 282.167 201.5 292.5 c 128
 215.167 302.833 230.667 311.167 248 317.5 c 128
 265.333 323.833 283 327 301 327 c 0
 327 327 347.833 323 363.5 315 c 128
 379.167 307 391.167 297.667 399.5 287 c 128
 407.833 276.333 413.5 264.667 416.5 252 c 128
 419.5 239.333 421.667 228 423 218 c 2
 430 105 l 2
 433.333 89.6667 441.5 80.8333 454.5 78.5 c 128
 467.5 76.1667 479.667 75.6667 491 77 c 256
 501.667 77.6667 512.167 81 522.5 87 c 128
 532.833 93 540 104.333 544 121 c 2
 576 274 l 2
 582 301.333 578.833 321.5 566.5 334.5 c 128
 554.167 347.5 536.667 355.833 514 359.5 c 128
 491.333 363.167 465 364 435 362 c 128
 405 360 375.333 357.667 346 355 c 0
 329.333 353 311 351 291 349 c 128
 271 347 251.667 346.5 233 347.5 c 128
 214.333 348.5 197.667 352 183 358 c 128
 168.333 364 158 374.333 152 389 c 0
 144 406.333 143.167 425.667 149.5 447 c 128
 155.833 468.333 169 488.667 189 508 c 0
 200.333 520.667 215.833 534 235.5 548 c 128
 255.167 562 278 574.667 304 586 c 128
 330 597.333 358.5 606.333 389.5 613 c 128
 420.5 619.667 453.667 623 489 623 c 0
 533 623 571.333 619.333 604 612 c 128
 636.667 604.667 663.667 595.333 685 584 c 128
 706.333 572.667 723 561.167 735 549.5 c 128
 747 537.833 754.333 527.667 757 519 c 0
595 -72 m 0
 599 -80.6667 600.833 -94.6667 600.5 -114 c 128
 600.167 -133.333 596.5 -154 589.5 -176 c 128
 582.5 -198 572.167 -220.5 558.5 -243.5 c 128
 544.833 -266.5 526 -286 502 -302 c 0
 472 -322.667 443.167 -329.5 415.5 -322.5 c 128
 387.833 -315.5 363.667 -299 343 -273 c 1
 337 -279.667 331.333 -284.167 326 -286.5 c 128
 320.667 -288.833 315 -293 309 -299 c 0
 295.667 -309.667 286.333 -315 281 -315 c 128
 275.667 -315 269.333 -311 262 -303 c 2
 257.333 -299.667 251.833 -293.333 245.5 -284 c 128
 239.167 -274.667 232.333 -266 225 -258 c 1
 211.667 -274.667 194.333 -288.333 173 -299 c 128
 151.667 -309.667 129 -315 105 -315 c 0
 70.3333 -315 43.5 -305.5 24.5 -286.5 c 128
 5.5 -267.5 -1.66667 -243.667 3 -215 c 0
 9 -187.667 26 -164.333 54 -145 c 128
 82 -125.667 113 -116 147 -116 c 0
 165 -116 177.333 -117.833 184 -121.5 c 128
 190.667 -125.167 197.667 -128 205 -130 c 1
 207 -124.667 208.667 -117.833 210 -109.5 c 128
 211.333 -101.167 213 -94.6667 215 -90 c 1
 217 -79.3333 223.667 -73.1667 235 -71.5 c 128
 246.333 -69.8333 257.333 -69 268 -69 c 256
 278.667 -69 287.167 -70.5 293.5 -73.5 c 128
 299.833 -76.5 302.333 -83.3333 301 -94 c 0
 297 -110 292.667 -125.833 288 -141.5 c 128
 283.333 -157.167 278.667 -170.333 274 -181 c 1
 278.667 -188.333 283.833 -195.667 289.5 -203 c 128
 298 -214 298 -214 308 -227 c 1
 312.667 -222.333 317.333 -218.167 322 -214.5 c 128
 326.667 -210.833 332.333 -206 339 -200 c 0
 345 -194.667 351.667 -191.667 359 -191 c 128
 366.333 -190.333 372.333 -195 377 -205 c 1
 378.333 -205 380.667 -207.667 384 -213 c 128
 387.333 -218.333 391.5 -224.5 396.5 -231.5 c 128
 401.5 -238.5 407.667 -245.167 415 -251.5 c 128
 422.333 -257.833 430.667 -262.333 440 -265 c 0
 442 -266.333 446 -265 452 -261 c 128
 458 -257 464.667 -251.5 472 -244.5 c 128
 479.333 -237.5 486.167 -229.333 492.5 -220 c 128
 498.833 -210.667 504 -200.667 508 -190 c 1
 496.667 -194 483 -196 467 -196 c 0
 436.333 -196 412.167 -187.333 394.5 -170 c 128
 376.833 -152.667 370.667 -131.333 376 -106 c 256
 380.667 -80.6667 395.833 -59.3333 421.5 -42 c 128
 447.167 -24.6667 475 -16 505 -16 c 0
 527.667 -16 547.167 -21.1667 563.5 -31.5 c 128
 579.833 -41.8333 590.333 -55.3333 595 -72 c 0
330 209 m 0
 332 221.667 328.833 232.5 320.5 241.5 c 128
 312.167 250.5 300 255 284 255 c 0
 269.333 255 255.667 250.5 243 241.5 c 128
 230.333 232.5 223 221.667 221 209 c 0
 218.333 196.333 221.333 185.833 230 177.5 c 128
 238.667 169.167 250.333 165 265 165 c 0
 281 165 295.167 169.167 307.5 177.5 c 128
 319.833 185.833 327.333 196.333 330 209 c 0
533 -106 m 256
 535 -96 532.167 -87.6667 524.5 -81 c 128
 516.833 -74.3333 506.667 -71 494 -71 c 256
 480.667 -71 468.667 -74.3333 458 -81 c 128
 447.333 -87.6667 441 -96 439 -106 c 256
 437 -116 440 -124.167 448 -130.5 c 128
 456 -136.833 466.333 -140 479 -140 c 256
 491.667 -140 503.333 -136.833 514 -130.5 c 128
 524.667 -124.167 531 -116 533 -106 c 256
177 -215 m 256
 179 -204.333 175.833 -195.5 167.5 -188.5 c 128
 159.167 -181.5 148 -178 134 -178 c 256
 120 -178 107 -181.5 95 -188.5 c 128
 83 -195.5 76 -204.333 74 -215 c 256
 72 -225.667 75.3333 -234.667 84 -242 c 128
 92.6667 -249.333 104 -253 118 -253 c 256
 131.333 -253 144 -249.333 156 -242 c 128
 168 -234.667 175 -225.667 177 -215 c 256
EndSplineSet
Fore
144 403 m 0x0fbd
 144 498 297 610 488 610 c 0
 617 610 758 562 758 488 c 0
 758 444.561 696.608 433 692 433 c 0
 678 433 664 449 658 457 c 0
 647 472 592 522 472 522 c 0
 369 522 255 467 249 437 c 0
 247 428 250 421 265 421 c 0x0fbd
 293 421 374 443 451 443 c 0
 571 443 646 407 666 367 c 0
 675 351 684 331 684 302 c 0
 684 291 683 280 680 267 c 2
 650 125 l 2
 633 50 567 -8 455 -8 c 0
 303 -8 318 83 316 95 c 1
 295 84 272 78 248 78 c 0
 185 78 141 120 141 173 c 0
 141 251 221 314 298 314 c 0
 415 314 419 228 421 205 c 2
 428 92 l 1
 431 78 436 63 476 63 c 0
 518 63 536 81 542 108 c 2
 574 261 l 2
 576 269 577 278 577 285 c 0
 577 325 548 350 464 350 c 0x0f7d
 399 350 291 334 250 334 c 0
 188 334 144 348 144 403 c 0x0fbd
374 -122 m 0
 374 -71 431 -16 507 -16 c 0
 553 -16 601 -37 601 -109 c 0
 601 -210 521 -325 438 -325 c 0xaf3e
 422 -325 380 -320 344 -273 c 1
 339 -278 293 -315 281 -315 c 0
 268 -315 249 -288 226 -258 c 1
 201 -290 157 -315 105 -315 c 0
 46 -315 2 -283 2 -233 c 0
 2 -175 65 -116 147 -116 c 0x5f3e
 185 -116 186 -125 205 -130 c 1
 222 -83 202 -69 268 -69 c 256
 294 -69 302 -76 302 -87 c 0
 302 -96 290 -145 276 -181 c 1
 309 -227 l 1
 341 -200 344 -191 359 -191 c 0
 379 -191 406 -265 443 -265 c 0
 450 -265 490 -240 510 -190 c 1
 498 -194 483 -196 468 -196 c 0xaf3e
 414 -196 374 -166 374 -122 c 0
282 242 m 0
 254 242 218 220 218 187 c 0
 218 166 237 152 263 152 c 0
 305 152 329 182 329 204 c 0
 329 227 310 242 282 242 c 0
495 -71 m 256
 471 -71 439 -87 439 -111 c 0
 439 -129 458 -140 480 -140 c 256
 504 -140 535 -126 535 -100 c 0
 535 -82 516 -71 495 -71 c 256
134 -178 m 256x5f3c
 108 -178 75 -195 75 -220 c 0
 75 -240 94 -253 118 -253 c 256
 156 -253 179 -228 179 -209 c 0
 179 -190 159 -178 134 -178 c 256x5f3c
EndSplineSet
Substitution2: "Single Substitution lookup 22 subtable" uni0E10.alt1
Substitution2: "Single Substitution lookup 22 subtable" uni0E10.alt1
EndChar
StartChar: uni0E11
Encoding: 3601 3601 228
Width: 891
VWidth: 1473
Flags: W
HStem: -7 107<352.847 431.509> 302 56<198.713 288.951> 430 50<229.632 295.365> 491 106<755.636 843.838> 521 79<240.618 351.695 417.277 488.693>
VStem: 132 66<361.144 446.902> 297 55<368.068 426.984> 492 90<434.625 516.551> 810 109<453.333 521.498>
Fore
132 400 m 0xef80
 132 498 213 600 328 600 c 0xef80
 362 600 385 588 397 564 c 1
 400 568 438 601 480 601 c 0
 539 601 582 565 582 508 c 0
 582 416 493 360 475 346 c 0
 416 302 408 264 402 237 c 2
 378 121 l 2
 374 104 379 100 388 100 c 0
 459 100 482 233 614 444 c 0
 687 558 747 597 814 597 c 0
 886 597 919 552 919 492 c 0
 919 478 917 464 914 449 c 2
 828 43 l 2
 821 9 787 0 766 0 c 256
 747 0 721 7 721 33 c 0
 721 36 721 40 722 43 c 2
 808 449 l 2
 810 456 810 461 810 466 c 0
 810 486 799 491 791 491 c 0xf780
 769 491 737 468 641 290 c 0
 569 164 520 -7 366 -7 c 0
 327 -7 268 19 268 89 c 0
 268 99 270 110 272 121 c 2
 295 231 l 2
 296 236 305 290 364 351 c 0
 413 402 492 421 492 484 c 0
 492 504 480 519 458 519 c 0
 391 519 429 454 377 454 c 0
 357 454 355 469 355 478 c 2
 355 483 l 2
 357 507 333 521 304 521 c 0
 277 521 232 509 217 468 c 1
 226 474 250 480 270 480 c 0
 303 480 352 466 352 413 c 0
 352 344 283 302 225 302 c 0
 183 302 132 328 132 400 c 0xef80
255 430 m 256
 212 430 198 403 198 385 c 0
 198 367 216 358 240 358 c 0
 270 358 297 375 297 400 c 0
 297 420 279 430 255 430 c 256
EndSplineSet
EndChar
StartChar: uni0E12
Encoding: 3602 3602 229
Width: 1104
VWidth: 1473
Flags: W
HStem: -7 80<588.72 651.276> -7 93<232.08 346.277 837.328 934.251> 176 87<599.983 664.456> 199 65<372.586 413.177> 345 66<379.412 467.666> 443 92<470.141 593.623> 579 20G<355 431.5 645 666 1095.5 1114.5>
VStem: 111 108<99.7149 192.305> 300 69<268.138 333.311> 470 68<278.542 340.708> 509 76<75.0076 161.96>
Fore
654 599 m 0x5fc0
 678 599 820 572 820 488 c 0
 820 481 820 474 818 467 c 2
 762 204 l 1
 765 199 827 89 887 89 c 0
 921 89 948 107 961 169 c 2
 1043 554 l 2
 1050 589 1086 598 1105 598 c 256
 1124 598 1150 591 1150 564 c 0
 1150 561 1150 558 1149 554 c 2
 1067 169 l 2
 1047 77 997 -7 867 -7 c 0x5fc0
 823 -7 790 17 731 84 c 1
 685 -1 636 -7 600 -7 c 0
 543 -7 509 40 509 96 c 0
 509 181 583 263 657 263 c 2
 667 263 l 1xafa0
 711 470 l 1
 698 486 690 492 660 501 c 1
 618 468 569 443 505 443 c 0
 447 443 395 469 371 499 c 1
 350 497 285 478 263 390 c 2
 230 234 l 2
 224 203 219 177 219 156 c 0
 219 111 237 86 287 86 c 0
 348 86 394 155 414 200 c 1
 410 199 405 199 397 199 c 0
 339 199 300 235 300 284 c 0
 300 346 362 411 442 411 c 0
 477 411 538 397 538 316 c 0
 538 199 416 -7 269 -7 c 0
 150 -7 111 57 111 144 c 0
 111 172 115 203 122 234 c 2
 153 383 l 2
 183 524 292 601 418 601 c 0
 445 601 460 535 525 535 c 0
 595 535 636 599 654 599 c 0x5fc0
637 176 m 256xafa0
 610 176 585 144 585 112 c 0
 585 91 596 73 616 73 c 256
 642 73 667 107 667 138 c 0
 667 159 656 176 637 176 c 256xafa0
428 345 m 256
 402 345 369 327 369 298 c 0
 369 278 387 264 411 264 c 256
 444 264 470 289 470 312 c 0x1fc0
 470 331 452 345 428 345 c 256
EndSplineSet
EndChar
StartChar: uni0E13
Encoding: 3603 3603 230
Width: 1181
VWidth: 1473
Flags: W
HStem: -10 107<726.531 827.184> -9 84<1017.72 1085.63> -6 68<263.058 347.314> 510 87<386.117 611.422>
VStem: 191 69<65.9642 127.629> 360 69<74.739 142.833> 613 110<102.122 148.668 135.625 161.711 161.711 175 175 191.333> 664 108<367.084 464.161> 1100 84<88.8563 166.743>
Fore
1184 156 m 0x9e80
 1184 67 1106 -9 1029 -9 c 0x5e80
 968 -9 929 23 930 71 c 1
 892 38 800 -10 745 -10 c 0
 644 -10 613 48 613 115 c 0x9e80
 613 135 616 155 620 175 c 2
 659 357 l 2
 662 372 664 386 664 400 c 0
 664 467 620 510 497 510 c 0
 375 510 293 446 257 391 c 1
 305 365 l 1
 326 380 359 410 382 410 c 0
 398 410 416 386 416 364 c 0
 416 345 403 335 397 332 c 0
 331 289 323 238 323 217 c 1
 335 217 l 2
 392 217 429 179 429 128 c 0
 429 59 366 -6 288 -6 c 0
 206 -6 191 56 191 93 c 0
 191 104 191 104 200 150 c 2
 210 196 l 2
 216 224 224 275 255 298 c 1
 160 340 l 2
 153 343 149 347 149 353 c 0
 149 399 274 597 523 597 c 0
 713 597 772 515 772 414 c 0x3d80
 772 391 769 367 764 343 c 2
 728 175 l 2
 725 161 723 148 723 138 c 0
 723 110 737 97 777 97 c 0
 879 97 1017 236 1030 264 c 1
 1091 551 l 2
 1098 585 1132 594 1154 594 c 256
 1173 594 1199 587 1199 561 c 0
 1199 558 1199 554 1198 551 c 2
 1134 247 l 1
 1158 247 1184 207 1184 156 c 0x9e80
1069 177 m 0
 1042 177 1015 145 1015 113 c 0
 1015 91 1028 75 1047 75 c 256
 1069 75 1100 98 1100 139 c 0
 1100 157 1094 177 1069 177 c 0
320 147 m 256
 293 147 260 128 260 97 c 0x9c80
 260 76 277 62 302 62 c 256x3c80
 337 62 360 90 360 113 c 0
 360 132 344 147 320 147 c 256
EndSplineSet
EndChar
StartChar: uni0E14
Encoding: 3604 3604 231
Width: 777
VWidth: 1473
Flags: W
HStem: -7 98<257.43 413.329> 186 72<398.207 466.135> 348 73<407.273 501.792> 517 100<392.181 605.261>
VStem: 111 107<131.15 326.733> 318 76<263.532 333.623> 505 87<272.619 342.961> 670 108<320.722 337 337 352.095 352.095 379.906 366.001 454.681>
Fore
111 198 m 0
 111 389 255 617 518 617 c 0
 670 617 785 548 785 404 c 0
 785 383 783 361 778 337 c 2
 715 44 l 2
 708 9 676 0 651 0 c 0
 630 0 606 7 606 34 c 0
 606 37 606 40 607 44 c 2
 670 337 l 2
 673 353 675 367 675 381 c 0
 675 470 607 517 497 517 c 0
 301 517 218 338 218 217 c 0
 218 155 241 91 322 91 c 0
 377 91 454 110 474 194 c 1
 455 188 445 186 426 186 c 0
 358 186 318 229 318 281 c 0
 318 345 382 421 475 421 c 0
 550 421 592 364 592 285 c 0
 592 158 490 -7 302 -7 c 0
 182 -7 111 70 111 198 c 0
460 348 m 0
 426 348 394 327 394 295 c 0
 394 272 413 258 441 258 c 0
 470 258 505 278 505 312 c 0
 505 334 486 348 460 348 c 0
EndSplineSet
EndChar
StartChar: uni0E15
Encoding: 3605 3605 232
Width: 760
VWidth: 1473
Flags: W
HStem: -7 93<243.891 387.515> 174 72<376.654 444.186> 336 72<386.864 479.718> 451 97<460.584 589.933> 587 20G<350.5 430.5 642.5 692.5>
VStem: 113 109<109.551 205.121> 296 77<251.684 321.017> 484 91<262.508 329.268>
Fore
296 267 m 0
 296 335 363 408 454 408 c 0
 499 408 575 393 575 289 c 0
 575 162 480 -7 289 -7 c 0
 201 -7 113 27 113 155 c 0
 113 178 116 204 122 234 c 2
 155 390 l 2
 182 520 293 607 408 607 c 0
 453 607 444 548 522 548 c 0
 595 548 617 609 668 609 c 0
 717 609 791 569 791 497 c 0
 791 490 791 482 789 474 c 2
 697 44 l 2
 690 9 655 0 633 0 c 0
 614 0 588 7 588 34 c 0
 588 37 588 40 589 44 c 2
 679 467 l 1
 679 472 l 2
 679 482 676 500 652 508 c 1
 610 476 563 451 501 451 c 0
 445 451 396 478 373 507 c 1
 335 501 280 470 264 396 c 2
 230 234 l 2
 226 215 222 193 222 172 c 0
 222 127 240 86 310 86 c 0
 355 86 442 117 452 181 c 1
 434 176 419 174 404 174 c 0
 337 174 296 215 296 267 c 0
438 336 m 0
 407 336 373 315 373 281 c 0
 373 260 392 246 419 246 c 0
 457 246 484 274 484 298 c 0
 484 320 464 336 438 336 c 0
EndSplineSet
EndChar
StartChar: uni0E16
Encoding: 3606 3606 233
Width: 761
VWidth: 1473
Flags: W
HStem: -7 69<275.988 361.302> 147 67<320.053 334.138 327.096 371.606> 510 87<388.938 611.244>
VStem: 192 81<66.8089 127.776> 374 68<73.9241 143.6> 663 107<367.426 463.693>
Fore
442 126 m 0
 442 58 374 -7 301 -7 c 0
 220 -7 192 51 192 101 c 0
 192 111 196 143 198 153 c 2
 207 196 l 2
 211 215 217 264 253 298 c 1
 163 335 148 343 148 353 c 0
 148 388 261 597 522 597 c 0
 700 597 770 526 770 414 c 0
 770 392 767 368 762 343 c 2
 698 43 l 2
 691 9 659 0 636 0 c 256
 616 0 590 7 590 33 c 0
 590 36 590 40 591 43 c 2
 658 357 l 2
 661 372 663 386 663 399 c 0
 663 467 618 510 495 510 c 0
 367 510 278 434 257 391 c 1
 269 381 286 376 302 364 c 1
 330 384 356 409 377 409 c 0
 392 409 413 379 413 357 c 0
 413 341 402 334 394 330 c 0
 351 311 329 256 326 239 c 2
 320 214 l 1
 337 216 337 217 348 217 c 0
 407 217 442 174 442 126 c 0
333 147 m 256
 306 147 273 128 273 97 c 0
 273 76 290 62 315 62 c 256
 354 62 374 92 374 113 c 0
 374 133 358 147 333 147 c 256
EndSplineSet
EndChar
StartChar: uni0E17
Encoding: 3607 3607 234
Width: 805
VWidth: 1473
Flags: W
HStem: 0 21G<249.5 272.5 671.5 692.5> 362 73<223.337 277.561> 498 99<620.199 712.81> 524 73<233.421 328.543>
VStem: 143 77<440.477 508.719> 333 83<456.04 518.266> 717 107<405.667 419 422 433.546 433.546 435.288 434.417 491.22>
Fore
143 455 m 0xee
 143 527 217 597 301 597 c 0xde
 391 597 416 548 416 497 c 0
 416 485 415 472 412 460 c 2
 382 318 l 1
 408 372 497 489 561 542 c 0
 595 568 646 597 706 597 c 0
 766 597 829 559 829 470 c 0
 829 455 828 439 824 422 c 2
 743 44 l 2
 736 11 704 0 681 0 c 256
 662 0 636 7 636 34 c 0
 636 37 636 40 637 44 c 2
 717 419 l 2
 719 430 720 439 720 448 c 0
 720 489 694 498 675 498 c 0
 573 498 377 196 323 44 c 1
 316 9 285 0 260 0 c 0
 239 0 214 7 214 34 c 0
 214 37 214 40 215 44 c 2
 285 370 l 1
 273 365 259 362 246 362 c 0
 199 362 143 394 143 455 c 0xee
285 524 m 0
 256 524 220 504 220 471 c 0
 220 449 240 435 266 435 c 0
 297 435 333 456 333 486 c 0
 333 508 312 524 285 524 c 0
EndSplineSet
EndChar
StartChar: uni0E18
Encoding: 3608 3608 235
Width: 707
VWidth: 1473
Flags: W
HStem: -7 97<272.769 506.925> 307 93<256.849 456.875> 325 94<272.179 560.342> 505 100<355.047 619.388>
VStem: 144 108<157.565 169 178 185.692 379.882 446.676> 576 109<233.472 245 250 254.523 254.523 263.433 258.978 306.44>
Fore
150 391 m 0xdc
 150 499 312 605 496 605 c 0
 672 605 762 542 762 481 c 0
 762 440 717 426 704 426 c 0
 686 426 666 448 658 458 c 0
 642 483 581 505 471 505 c 0
 359 505 255 452 255 417 c 0
 255 409 260 400 277 400 c 0xdc
 313 400 381 419 452 419 c 0
 535 419 636 398 669 352 c 0
 679 336 689 319 689 288 c 0
 689 277 688 264 685 250 c 2
 667 165 l 2
 651 95 588 -7 369 -7 c 0
 237 -7 139 20 139 125 c 0
 139 138 141 153 144 169 c 2
 157 231 l 2
 165 266 196 275 219 275 c 256
 240 275 265 269 265 243 c 0
 265 240 265 237 264 233 c 2
 252 178 l 2
 250 170 250 163 250 157 c 0
 250 97 318 90 389 90 c 0
 483 90 547 110 564 189 c 2
 576 245 l 2
 577 252 578 258 578 264 c 0
 578 314 528 325 468 325 c 0xbc
 406 325 319 307 263 307 c 0
 170 307 150 353 150 391 c 0xdc
EndSplineSet
EndChar
StartChar: uni0E19
Encoding: 3609 3609 236
Width: 878
VWidth: 1473
Flags: W
HStem: -7 89<703.966 776.296> -7 107<378.127 550.503> 364 72<224.01 278.746> 526 72<235.483 327.32>
VStem: 143 77<441.242 510.104> 244 110<123.442 203.149> 331 84<459.077 520.293> 800 85<106.199 235.031>
Fore
143 457 m 0x7d
 143 521 208 598 301 598 c 0
 388 598 415 552 415 501 c 0x7b
 415 488 413 474 410 461 c 2
 358 217 l 2
 355 203 354 191 354 180 c 0
 354 112 407 100 467 100 c 0x7d
 512 100 546 107 569 122 c 0
 655 175 647 241 705 281 c 1
 762 549 l 2
 769 585 800 594 824 594 c 256
 845 594 871 587 871 559 c 0
 871 556 871 553 870 549 c 2
 816 298 l 1
 867 298 885 261 885 211 c 0
 885 89 808 -7 721 -7 c 0xbd
 681 -7 639 4 622 66 c 1
 601 49 555 -7 445 -7 c 0
 342 -7 244 27 244 151 c 0
 244 171 247 193 252 217 c 2
 285 371 l 1
 272 366 258 364 244 364 c 0
 193 364 143 401 143 457 c 0x7d
761 212 m 0
 716 212 699 153 699 128 c 0
 699 103 710 85 736 82 c 0xb9
 774 82 800 129 800 170 c 0
 800 193 791 212 761 212 c 0
286 526 m 0
 243 526 220 494 220 472 c 0
 220 450 239 436 267 436 c 0
 296 436 331 455 331 489 c 0x3b
 331 510 312 526 286 526 c 0
EndSplineSet
EndChar
StartChar: uni0E1A
Encoding: 3610 3610 237
Width: 802
VWidth: 1473
Flags: W
HStem: -7 103<379.114 606.742> 362 73<223.931 277.614> 524 73<234.249 325.819>
VStem: 143 77<439.632 509.617> 245 110<120.924 200.962> 331 85<456.591 518.015>
Fore
143 456 m 0xf8
 143 524 211 597 301 597 c 0
 389 597 416 553 416 500 c 0xf4
 416 487 415 474 412 460 c 2
 361 221 l 2
 357 203 355 187 355 173 c 0
 355 120 387 96 484 96 c 256
 609 96 650 125 671 224 c 2
 740 551 l 2
 747 585 781 594 802 594 c 256
 822 594 849 587 849 560 c 0
 849 557 849 554 848 551 c 2
 779 224 l 2
 749 85 677 -7 463 -7 c 0
 344 -7 245 24 245 150 c 0
 245 173 248 198 254 224 c 2
 285 370 l 1
 272 365 258 362 245 362 c 0
 198 362 143 395 143 456 c 0xf8
285 524 m 0
 240 524 220 490 220 470 c 0
 220 449 239 435 266 435 c 0
 304 435 331 463 331 487 c 0
 331 509 311 524 285 524 c 0
EndSplineSet
EndChar
StartChar: uni0E1B
Encoding: 3611 3611 238
Width: 802
VWidth: 1473
Flags: W
HStem: -7 100<382.361 605.177> 362 73<223.931 277.614> 524 73<234.249 325.819>
VStem: 143 77<439.632 509.617> 245 110<118.905 200.955> 331 85<456.591 518.015>
Fore
143 456 m 0xf8
 143 524 211 597 301 597 c 0
 389 597 416 553 416 500 c 0xf4
 416 487 415 474 412 460 c 2
 361 221 l 2
 357 204 355 187 355 173 c 0
 355 123 383 93 484 93 c 256
 615 93 651 131 671 224 c 2
 781 742 l 2
 788 776 819 785 843 785 c 256
 864 785 890 778 890 752 c 0
 890 749 890 745 889 742 c 2
 779 224 l 2
 749 85 677 -7 463 -7 c 0
 302 -7 245 53 245 150 c 0
 245 173 248 197 254 224 c 2
 285 370 l 1
 272 365 258 362 245 362 c 0
 198 362 143 395 143 456 c 0xf8
285 524 m 0
 240 524 220 490 220 470 c 0
 220 449 239 435 266 435 c 0
 304 435 331 463 331 487 c 0
 331 509 311 524 285 524 c 0
EndSplineSet
EndChar
StartChar: uni0E1C
Encoding: 3612 3612 239
Width: 776
VWidth: 1473
Flags: W
HStem: -7 98<220.331 304.549 496.973 604.272> 362 73<270.114 364.772> 524 73<282.487 374.081>
VStem: 103 110<99.2449 166.595> 378 77<449.379 518.275>
Fore
455 500 m 0
 455 424 374 362 298 362 c 0
 282 362 268 364 258 368 c 1
 217 175 l 2
 215 164 213 153 213 143 c 0
 213 114 225 91 264 91 c 0
 350 91 369 173 375 194 c 2
 399 308 l 2
 406 337 435 361 466 361 c 256
 492 361 509 344 509 321 c 0
 509 317 508 312 507 308 c 2
 483 194 l 1
 483 190 481 180 481 168 c 0
 481 136 490 90 549 90 c 0
 607 90 625 134 635 180 c 2
 714 552 l 2
 722 586 752 595 777 595 c 0
 798 595 822 588 822 563 c 0
 822 560 822 556 821 552 c 2
 742 180 l 2
 723 89 668 -7 529 -7 c 0
 463 -7 421 28 405 74 c 1
 343 0 274 -7 245 -7 c 0
 172 -7 103 20 103 119 c 0
 103 137 105 157 110 180 c 2
 169 458 l 2
 184 526 229 597 348 597 c 0
 412 597 455 555 455 500 c 0
332 524 m 0
 287 524 267 490 267 470 c 0
 267 449 286 435 313 435 c 0
 351 435 378 463 378 487 c 0
 378 509 358 524 332 524 c 0
EndSplineSet
EndChar
StartChar: uni0E1D
Encoding: 3613 3613 240
Width: 776
VWidth: 1473
Flags: W
HStem: -7 98<220.331 304.549 496.973 605.165> 362 73<270.114 364.772> 524 73<282.487 374.081>
VStem: 103 110<99.2449 166.595> 378 77<449.379 518.275>
Fore
455 500 m 0
 455 424 374 362 298 362 c 0
 282 362 268 364 258 368 c 1
 217 175 l 2
 215 164 213 153 213 143 c 0
 213 114 225 91 264 91 c 0
 350 91 369 173 375 194 c 2
 399 308 l 2
 406 337 435 361 466 361 c 256
 492 361 509 344 509 321 c 0
 509 317 508 312 507 308 c 2
 483 194 l 1
 483 190 481 180 481 168 c 0
 481 136 490 90 549 90 c 0
 607 90 625 134 635 180 c 2
 755 744 l 2
 762 778 794 787 818 787 c 0
 837 787 863 780 863 754 c 0
 863 751 863 747 862 744 c 2
 742 180 l 2
 731 126 708 81 674 46 c 0
 640 11 592 -7 529 -7 c 0
 463 -7 421 28 405 74 c 1
 343 0 274 -7 245 -7 c 0
 172 -7 103 20 103 119 c 0
 103 137 105 157 110 180 c 2
 169 458 l 2
 184 526 229 597 348 597 c 0
 412 597 455 555 455 500 c 0
332 524 m 0
 287 524 267 490 267 470 c 0
 267 449 286 435 313 435 c 0
 351 435 378 463 378 487 c 0
 378 509 358 524 332 524 c 0
EndSplineSet
EndChar
StartChar: uni0E1E
Encoding: 3614 3614 241
Width: 910
VWidth: 1473
Flags: W
HStem: -7 98<354.572 438.033 629.161 735.499> 362 73<223.994 277.614> 524 73<233.86 325.794>
VStem: 143 77<440.969 509.829> 237 109<99.9278 167.93> 331 83<456.463 518.431>
Fore
143 456 m 0xf8
 143 524 211 597 301 597 c 0
 389 597 414 550 414 499 c 0xf4
 414 486 413 473 410 460 c 2
 349 175 l 2
 347 166 346 156 346 146 c 0
 346 117 358 91 398 91 c 0
 476 91 504 161 511 194 c 2
 577 505 l 2
 583 533 607 560 642 560 c 0
 667 560 684 542 684 518 c 0
 684 514 684 509 683 505 c 2
 617 194 l 2
 615 185 614 174 614 163 c 0
 614 128 628 90 683 90 c 256
 710 90 753 102 769 180 c 2
 849 555 l 2
 856 589 890 598 911 598 c 256
 931 598 957 591 957 565 c 0
 957 562 957 558 956 555 c 2
 876 180 l 2
 856 80 795 -7 663 -7 c 0
 597 -7 555 28 539 74 c 1
 477 0 408 -7 379 -7 c 0
 307 -7 237 20 237 119 c 0
 237 137 239 157 244 180 c 2
 285 370 l 1
 272 365 258 362 245 362 c 0
 198 362 143 395 143 456 c 0xf8
285 524 m 256
 256 524 220 504 220 471 c 0
 220 449 240 435 266 435 c 256
 304 435 331 463 331 487 c 0
 331 509 311 524 285 524 c 256
EndSplineSet
EndChar
StartChar: uni0E1F
Encoding: 3615 3615 242
Width: 910
VWidth: 1473
Flags: W
HStem: -7 98<354.572 438.033 629.161 735.474> 362 73<223.994 277.614> 524 73<233.86 325.794>
VStem: 143 77<440.969 509.829> 237 109<99.9278 167.93> 331 83<456.463 518.431>
Fore
143 456 m 0xf8
 143 524 211 597 301 597 c 0
 389 597 414 550 414 499 c 0xf4
 414 486 413 473 410 460 c 2
 349 175 l 2
 347 166 346 156 346 146 c 0
 346 117 358 91 398 91 c 0
 476 91 504 161 511 194 c 2
 577 505 l 2
 583 533 607 560 642 560 c 0
 667 560 684 542 684 518 c 0
 684 514 684 509 683 505 c 2
 617 194 l 2
 615 185 614 174 614 163 c 0
 614 128 628 90 683 90 c 256
 710 90 753 102 769 180 c 2
 889 742 l 2
 896 776 927 785 951 785 c 256
 971 785 997 779 997 752 c 0
 997 749 997 746 996 742 c 2
 876 180 l 2
 855.572 79.7152 794.982 -7 663 -7 c 0
 597 -7 555 28 539 74 c 1
 477 0 408 -7 379 -7 c 0
 307 -7 237 20 237 119 c 0
 237 137 239 157 244 180 c 2
 285 370 l 1
 272 365 258 362 245 362 c 0
 198 362 143 395 143 456 c 0xf8
285 524 m 256
 256 524 220 504 220 471 c 0
 220 449 240 435 266 435 c 256
 304 435 331 463 331 487 c 0
 331 509 311 524 285 524 c 256
EndSplineSet
EndChar
StartChar: uni0E20
Encoding: 3616 3616 243
Width: 782
VWidth: 1473
Flags: W
HStem: -7 69<138.054 228.441> 147 70<146.739 230.529> 505 87<407.618 630.604>
VStem: 61 73<66.2429 133.548> 683 107<362.778 458.693>
Fore
167 349 m 0
 167 383 279 592 541 592 c 0
 718 592 790 521 790 409 c 0
 790 387 787 364 782 339 c 2
 719 42 l 2
 712 8 679 0 656 0 c 256
 630 0 611 9 611 32 c 0
 611 35 611 38 612 42 c 2
 678 352 l 2
 681 367 683 381 683 394 c 0
 683 462 638 505 515 505 c 0
 382 505 303 432 275 386 c 1
 281 383 289 380 297 374 c 1
 323 361 l 1
 336 371 373 405 397 405 c 0
 410 405 432 375 432 352 c 0
 432 341 428 331 414 326 c 0
 368 308 349 249 346 236 c 2
 320 112 l 2
 299 16 217 -7 164 -7 c 0
 102 -7 61 30 61 83 c 0
 61 147 125 217 211 217 c 0
 216 217 223 216 232 214 c 1
 245 253 249 276 262 290 c 1
 214 315 l 2
 174 336 167 343 167 349 c 0
196 147 m 256
 169 147 134 127 134 97 c 0
 134 76 153 62 178 62 c 256
 206 62 240 82 240 112 c 0
 240 132 220 147 196 147 c 256
EndSplineSet
EndChar
StartChar: uni0E21
Encoding: 3617 3617 244
Width: 777
VWidth: 1473
Flags: W
HStem: -6 108<521.918 612.043> -4 88<189.687 262.537> 199 87<204.965 279.036> 363 72<238.966 305.199> 525 72<249.221 341.298>
VStem: 98 88<97.0891 181.002> 158 77<440.453 509.33> 346 93<456.21 518.75>
Fore
158 456 m 0x7b
 158 522 224 597 316 597 c 0
 394 597 439 564 439 497 c 0
 439 486 438 473 435 460 c 2
 391 252 l 1
 407 241 422 229 436 215 c 0
 540 109 527 102 574 102 c 0
 592 102 622 115 635 175 c 2
 716 554 l 2
 723 588 757 597 778 597 c 256
 798 597 824 590 824 564 c 0
 824 561 824 557 823 554 c 2
 740 165 l 2
 720 72 656 -6 554 -6 c 0xbb
 507 -6 482 1 427 61 c 0
 397 94 380 121 360 143 c 1
 352 83 304 -4 209 -4 c 0
 167 -4 98 14 98 96 c 0x7d
 98 188 166 286 267 286 c 0
 276 286 284 285 291 283 c 1
 309 368 l 1
 298 365 283 363 266 363 c 0
 201 363 158 402 158 456 c 0x7b
301 525 m 0
 257 525 235 492 235 470 c 0
 235 449 254 435 281 435 c 0
 311 435 346 456 346 487 c 0
 346 509 327 525 301 525 c 0
247 199 m 0
 206 199 186 155 186 126 c 0
 186 110 192 84 221 84 c 0x7d
 273 84 281 143 281 162 c 0
 281 189 267 199 247 199 c 0
EndSplineSet
EndChar
StartChar: uni0E22
Encoding: 3618 3618 245
Width: 769
VWidth: 1473
Flags: W
HStem: -12 96<335.628 563.964> 228 86<329 341 327.766 468.482> 368 72<299.951 391.985> 530 73<310.847 402.785>
VStem: 154 100<338.294 387.056> 190 109<115.805 217.588> 407 78<454.575 525>
Fore
329 228 m 1xfa
 312 209 299 183 299 161 c 0
 299 126 328 84 441 84 c 0
 569 84 614 117 634 211 c 2
 706 552 l 2
 714 588 748 597 771 597 c 256
 790 597 816 590 816 564 c 0
 816 561 816 557 815 554 c 2
 742 212 l 2
 706 42 602 -12 420 -12 c 0
 237 -12 190 69 190 140 c 0xf6
 190 179 204 219 232 252 c 1
 169 283 154 338 154 381 c 0
 154 501 277 603 373 603 c 0
 430 603 485 568 485 509 c 0
 485 439 412 368 327 368 c 0
 298 368 274 376 255 392 c 1
 255 389 254 386 254 383 c 0
 254 334 307 314 361 314 c 0
 450 314 494 354 525 354 c 0
 555 354 562 333 562 318 c 0
 562 290 540 273 519 264 c 0
 472 244 416 227 353 227 c 0
 345 227 337 228 329 228 c 1xfa
362 530 m 0
 320 530 296 500 296 478 c 0
 296 455 315 440 343 440 c 0
 380 440 407 469 407 494 c 0
 407 515 388 530 362 530 c 0
EndSplineSet
EndChar
StartChar: uni0E23
Encoding: 3619 3619 246
Width: 671
VWidth: 1473
Flags: W
HStem: -7 72<381.277 475.004> 155 70<391.502 478.837> 284 95<191.278 307.47> 320 91<323.687 500.822> 510 97<350.013 586.691>
VStem: 125 101<353.058 435.343> 301 76<70.8727 139.793> 500 105<238.375 255 255 264.881 264.881 271.084 267.983 315.465>
Fore
125 369 m 0xef
 125 516 323 607 502 607 c 0
 725 607 754 471 754 463 c 0
 754 431 706 409 683 409 c 0
 633 409 651 510 478 510 c 0
 342 510 226 445 226 402 c 0
 226 389 239 379 250 379 c 0xef
 267 379 353 411 451 411 c 0
 526 411 608 399 612 291 c 0
 612 273 610 258 605 233 c 2
 583 130 l 2
 575 93 557 60 529 34 c 0
 501 6 462 -7 409 -7 c 0
 341 -7 301 36 301 88 c 0
 301 159 378 225 456 225 c 0
 470 225 482 222 492 217 c 1
 500 255 l 2
 502 262 504 272 504 282 c 0
 504 301 496 320 458 320 c 0xdf
 415 320 273 284 214 284 c 0
 144 284 125 327 125 369 c 0xef
443 155 m 256
 400 155 377 123 377 102 c 0
 377 80 397 65 424 65 c 256
 453 65 488 85 488 119 c 0
 488 141 469 155 443 155 c 256
EndSplineSet
EndChar
StartChar: uni0E24
Encoding: 3620 3620 247
Width: 761
VWidth: 1473
Flags: W
HStem: -261 21G<571.5 592.5> -7 69<277.84 362.053> 147 67<321.104 334.138 327.621 371.477> 510 87<387.16 611.915>
VStem: 192 82<65.8708 121.371 107.546 133.946> 374 69<74.3033 143.116> 664 106<367.426 463.693>
Fore
149 353 m 0
 149 400 275 597 523 597 c 0
 700 597 770 526 770 414 c 0
 770 392 767 368 762 343 c 2
 643 -217 l 2
 635 -252 604 -261 581 -261 c 256
 562 -261 536 -254 536 -228 c 0
 536 -224 536 -221 537 -217 c 2
 659 357 l 2
 662 372 664 386 664 399 c 0
 664 467 619 510 495 510 c 0
 367 510 278 434 257 391 c 1
 270 382 286 376 304 364 c 1
 328 384 l 2
 349 401 364 408 375 408 c 0
 396 408 415 375 415 354 c 0
 415 326 377 333 348 288 c 0
 336 269 329 252 326 239 c 2
 320 214 l 1
 337 216 337 217 348 217 c 0
 406 217 443 179 443 129 c 0
 443 57 377 -7 301 -7 c 0
 218 -7 192 52 192 97 c 0
 192 105 193 112 194 118 c 1
 194 130 211 265 255 298 c 1
 164 335 149 342 149 353 c 0
333 147 m 256
 305 147 274 128 274 97 c 0
 274 76 290 62 315 62 c 256
 354 62 374 92 374 113 c 0
 374 133 358 147 333 147 c 256
EndSplineSet
EndChar
StartChar: uni0E25
Encoding: 3621 3621 248
Width: 770
VWidth: 1473
Flags: W
HStem: -7 69<258.457 353.278> 147 71<291.14 362.734> 295 98<341.986 542.907> 505 98<375.537 614.837>
VStem: 160 95<67.9427 131.851> 366 76<76.3516 141.771> 673 107<356.136 362 373 378.132 378.132 387.523 382.828 459.665>
Fore
149 373 m 0
 149 434 285 603 508 603 c 0
 727 603 780 502 780 413 c 0
 780 395 778 378 775 362 c 2
 705 34 l 2
 698 -1 664 -10 642 -10 c 0
 624 -9 597 -3 597 24 c 0
 597 27 597 31 598 34 c 2
 611 94 l 2
 612 100 614 114 614 132 c 0
 614 192 592 295 449 295 c 0
 370 295 302 275 277 206 c 1
 297 214 316 218 335 218 c 0
 397 218 442 178 442 125 c 0
 442 60 375 -7 288 -7 c 0
 226 -7 160 22 160 115 c 0
 160 218 238 393 464 393 c 0
 540 393 609 375 659 320 c 1
 670 373 l 2
 672 383 673 393 673 402 c 0
 673 484 581 505 487 505 c 0
 377 505 283 447 244 374 c 0
 234 353 215 342 190 342 c 0
 173 342 149 348 149 373 c 0
320 147 m 0
 279 147 255 119 255 97 c 0
 255 76 274 62 302 62 c 0
 331 62 366 82 366 112 c 0
 366 132 345 147 320 147 c 0
EndSplineSet
EndChar
StartChar: uni0E26
Encoding: 3622 3622 249
Width: 779
VWidth: 1473
Flags: W
HStem: -9 69<134.791 225.515> 146 69<143.267 225.351 215.679 229> 511 86<402.5 629.31>
VStem: 60 71<65.1471 131.352> 681 107<367.661 465.39>
Fore
166 355 m 0
 166 399 285 597 539 597 c 0
 717 597 788 526 788 414 c 0
 788 392 785 368 780 343 c 2
 661 -215 l 2
 654 -250 623 -259 599 -259 c 0
 578 -259 553 -252 553 -225 c 0
 553 -222 553 -219 554 -215 c 2
 676 357 l 2
 679 373 681 387 681 401 c 0
 681 468 638 511 514 511 c 0
 373 511 291 425 275 392 c 1
 279 388 287 384 296 378 c 2
 321 365 l 1
 337 379 375 409 395 409 c 0
 412 409 432 372 432 354 c 0
 432 327 372 337 344 240 c 2
 316 110 l 2
 296 12 200 -9 160 -9 c 0
 99 -9 60 29 60 80 c 0
 60 149 126 215 208 215 c 0
 221 215 220 214 229 214 c 1
 236 227 242 275 262 295 c 1
 177 340 l 2
 170 345 166 349 166 355 c 0
193 146 m 0
 167 146 131 127 131 95 c 0
 131 74 150 60 175 60 c 0
 203 60 238 79 238 111 c 0
 238 132 219 146 193 146 c 0
EndSplineSet
EndChar
StartChar: uni0E27
Encoding: 3623 3623 250
Width: 671
VWidth: 1473
Flags: W
HStem: -7 73<425.347 519.574> 156 69<436.819 522.257> 501 102<334.031 532.214>
VStem: 345 76<71.3727 140.616> 573 109<368.839 463.077>
Fore
124 367 m 0
 124 437 248 603 451 603 c 0
 630 603 682 516 682 418 c 0
 682 394 679 370 674 346 c 2
 628 131 l 2
 614 68 570 -7 453 -7 c 0
 385 -7 345 36 345 88 c 0
 345 170 434 225 500 225 c 0
 514 225 527 222 538 217 c 1
 568 357 l 2
 571 373 573 387 573 401 c 0
 573 462 536 501 429 501 c 0
 323 501 243 430 231 374 c 0
 223 346 199 333 174 333 c 0
 149 333 124 340 124 367 c 0
487 156 m 256
 449 156 421 127 421 103 c 0
 421 81 442 66 468 66 c 256
 497 66 532 85 532 119 c 0
 532 141 513 156 487 156 c 256
EndSplineSet
EndChar
StartChar: uni0E28
Encoding: 3624 3624 251
Width: 729
VWidth: 1473
Flags: W
HStem: 0 21G<117.5 138 594.5 614.5> 187 72<390.025 480.388> 345 72<399.627 488.229> 499 98<366.993 583.183>
VStem: 492 76<272.286 340.551> 627 107<346.339 445.645>
Fore
871 628 m 0
 871 587 755 503 718 482 c 1
 727 458 734 429 734 394 c 0
 734 372 731 349 726 323 c 2
 666 43 l 2
 659 9 625 0 604 0 c 256
 585 0 559 7 559 33 c 0
 559 36 559 40 560 43 c 2
 620 324 l 2
 625 347 627 367 627 385 c 0
 627 463 583 499 482 499 c 256
 382 499 280 464 250 323 c 2
 245 302 l 1
 279 333 371 417 465 417 c 0
 529 417 568 376 568 324 c 0
 568 260 504 187 416 187 c 0
 349 187 325 232 318 253 c 1
 264 214 213 151 196 71 c 2
 190 43 l 2
 183 9 149 0 127 0 c 256
 108 0 82 7 82 33 c 0
 82 36 82 40 83 43 c 2
 143 323 l 2
 180 499 316 597 503 597 c 0
 568 597 620 583 660 555 c 1
 697 572 749 615 782 657 c 0
 792 669 803 676 814 676 c 0
 821 676 871 661 871 628 c 0
449 345 m 0
 409 345 387 315 387 294 c 0
 387 273 405 259 431 259 c 0
 457 259 492 279 492 309 c 0
 492 330 473 345 449 345 c 0
EndSplineSet
EndChar
StartChar: uni0E29
Encoding: 3625 3625 252
Width: 864
VWidth: 1473
Flags: W
HStem: -7 95<384.097 597.868> 195 89<621 632.523 564.785 660.937> 363 72<223.952 277.275> 371 67<496.709 572.69> 525 72<234.339 329.956>
VStem: 145 75<440.946 509.339> 245 110<114.741 200.802> 333 84<459.463 519.826> 417 71<297.528 359.578> 582 73<316.902 368.685>
Fore
961 398 m 0xdec0
 961 374 893 273 780 225 c 1
 780 224 l 1
 750 83 674 -7 465 -7 c 0
 302 -7 245 53 245 149 c 0
 245 171 248 195 253 221 c 2
 285 371 l 1xdec0
 272 366 258 363 245 363 c 0xeec0
 196 363 145 395 145 455 c 0
 145 536 224 597 302 597 c 0
 363 597 417 577 417 503 c 0xedc0
 417 490 415 476 412 460 c 2
 361 221 l 2
 357 203 355 187 355 172 c 0
 355 120 384 88 485 88 c 0
 584 88 641 114 666 200 c 1
 660 199 636 195 617 195 c 0
 581 195 499 201 449 239 c 0
 427 254 417 285 417 312 c 0
 417 382 493 438 559 438 c 0
 617 438 655 400 655 353 c 0
 655 332 643 297 621 284 c 1
 629 284 637 283 644 283 c 0
 659 283 672 284 686 286 c 1
 742 550 l 2
 749 585 780 594 804 594 c 256
 825 594 849 587 849 561 c 0
 849 557 849 554 848 550 c 2
 801 330 l 1
 871 377 880 437 912 437 c 0
 929 437 961 422 961 398 c 0xdec0
524 295 m 0
 548 295 582 304 582 341 c 0
 582 365 562 371 548 371 c 0
 506 371 488 344 488 326 c 0
 488 312 500 295 524 295 c 0
287 525 m 0
 244 525 220 494 220 472 c 0
 220 450 240 435 267 435 c 0
 296 435 333 455 333 489 c 0xedc0
 333 511 314 525 287 525 c 0
EndSplineSet
EndChar
StartChar: uni0E2A
Encoding: 3626 3626 253
Width: 771
VWidth: 1473
Flags: W
HStem: -7 69<258.457 353.278> 147 71<291.14 362.734> 295 98<341.986 542.907> 505 98<375.537 616.38>
VStem: 160 95<67.9427 131.851> 366 76<76.3516 141.771> 673 108<356.136 362 373 377.76 377.76 387.523 382.642 449.564>
Fore
919 628 m 0
 919 591 813 508 768 482 c 1
 776 461 781 438 781 413 c 0
 781 397 779 380 775 362 c 2
 705 34 l 2
 698 -1 664 -10 642 -10 c 0
 624 -9 597 -3 597 24 c 0
 597 27 597 31 598 34 c 2
 611 94 l 2
 612 100 614 114 614 132 c 0
 614 192 592 295 449 295 c 0
 370 295 302 275 277 206 c 1
 297 214 316 218 335 218 c 0
 397 218 442 178 442 125 c 0
 442 60 375 -7 288 -7 c 0
 226 -7 160 22 160 115 c 0
 160 218 238 393 464 393 c 0
 540 393 609 375 659 320 c 1
 670 373 l 2
 672 383 673 393 673 402 c 0
 673 484 581 505 487 505 c 0
 377 505 283 447 244 374 c 0
 234 353 215 342 190 342 c 0
 173 342 149 348 149 373 c 0
 149 434 285 603 508 603 c 0
 595 603 663 587 709 554 c 1
 736 568 792 609 831 657 c 0
 841 669 852 676 862 676 c 0
 870 676 919 661 919 628 c 0
320 147 m 0
 279 147 255 119 255 97 c 0
 255 76 274 62 302 62 c 0
 331 62 366 82 366 112 c 0
 366 132 345 147 320 147 c 0
EndSplineSet
EndChar
StartChar: uni0E2B
Encoding: 3627 3627 254
Width: 802
VWidth: 1473
Flags: W
HStem: 1 21G<249 268.5 668.5 688.5> 341 83<618.708 668.377> 361 74<224.141 279.534> 524 73<233.167 327.206 636.841 731.996>
VStem: 143 77<440.243 510.028> 331 83<456.085 518.133> 521 94<430.113 502.983> 681 105<247.617 258 258 271.5 271.5 271.547 271.523 326.36> 740 94<453.184 512.401>
Fore
834 496 m 0xbe80
 834 472 826 419 764 376 c 1
 780 357 790 331 790 297 c 0
 790 285 789 272 786 258 c 2xbf
 740 44 l 2xbe80
 733 10 699 1 678 1 c 256
 659 1 633 8 633 34 c 0
 633 37 633 41 634 44 c 2
 681 264 l 2
 682 269 683 274 683 279 c 0
 683 308 664 341 615 341 c 0xdf
 504 341 362 172 320 44 c 0
 313 9 279 0 258 0 c 256
 240 0 211 7 211 35 c 0
 211 38 211 41 212 44 c 2
 281 365 l 1
 271 362 261 361 250 361 c 0
 197 361 143 397 143 457 c 0
 143 524 209 597 301 597 c 0
 373 597 414 561 414 497 c 0
 414 486 413 473 410 460 c 2
 374 290 l 1
 452 378 508 400 538 410 c 1
 524 418 521 434 521 448 c 0
 521 520 594 600 705 600 c 0
 791 600 834 553 834 496 c 0xbe80
687 519 m 0
 634 519 615 484 615 461 c 0
 615 431 648 424 669 424 c 0
 721 424 740 457 740 480 c 0xde80
 740 498 728 519 687 519 c 0
285 524 m 0
 254 524 220 504 220 471 c 0
 220 449 239 435 266 435 c 0xbe
 295 435 331 455 331 488 c 0
 331 510 311 524 285 524 c 0
EndSplineSet
EndChar
StartChar: uni0E2C
Encoding: 3628 3628 255
Width: 911
VWidth: 1473
Flags: W
HStem: -7 98<354.481 438.44 630.973 738.272> 368 72<225.509 278.182> 504 83<781.298 838> 530 73<235.524 327.128> 670 91<786.217 846.42>
VStem: 144 77<445.661 513.239> 237 110<98.7505 151.12 139.968 162.272 162.272 175 180 191.427> 332 85<461.697 525.18> 689 87<594.421 659.188>
Fore
689 609 m 0xee80
 689 685 758 761 837 761 c 0
 928 761 964 701 964 626 c 1
 1012 658 1024 691 1043 691 c 0
 1056 691 1085 670 1085 646 c 0
 1085 615 1029 563 949 529 c 1
 876 180 l 2
 857 89 802 -7 663 -7 c 0
 597 -7 555 28 539 74 c 1
 477 0 408 -7 379 -7 c 0
 305 -7 237 19 237 118 c 0xee80
 237 136 239 157 244 180 c 2
 286 376 l 1
 273 371 259 368 246 368 c 0
 199 368 144 401 144 462 c 0
 144 536 220 603 302 603 c 0
 392 603 417 552 417 502 c 0xdd80
 417 490 415 477 413 466 c 2
 351 175 l 2
 349 164 347 153 347 143 c 0
 347 114 359 91 398 91 c 0
 484 91 502 171 509 194 c 2
 547 374 l 2
 554 403 581 427 614 427 c 0
 640 427 657 410 657 387 c 0
 657 383 656 378 655 374 c 2
 617 194 l 1
 617 190 615 180 615 168 c 0
 615 136 624 90 683 90 c 0
 741 90 759 134 769 180 c 2
 838 504 l 1
 823 504 l 2
 744 504 689 545 689 609 c 0xee80
825 670 m 0
 804 670 776 650 776 623 c 0
 776 604 794 587 840 587 c 0
 845 587 851 587 857 588 c 1
 859 595 861 608 861 622 c 0
 861 663 837 670 825 670 c 0
287 530 m 256xdd80
 258 530 221 508 221 478 c 0
 221 456 242 440 268 440 c 256
 297 440 332 460 332 494 c 0
 332 515 313 530 287 530 c 256xdd80
EndSplineSet
Substitution2: "Single Substitution lookup 22 subtable" uni0E2C.alt1
Substitution2: "Single Substitution lookup 22 subtable" uni0E2C.alt1
EndChar
StartChar: uni0E2D
Encoding: 3629 3629 256
Width: 797
VWidth: 1473
Flags: W
HStem: -7 92<349.97 569.112> 208 65<357.683 443.467> 355 65<366.754 451.577> 514 96<391.173 620.916>
VStem: 209 97<125.041 224.19> 455 69<285.471 350.483> 688 107<323.594 334 340 349.095 349.095 379.705 364.4 451.595>
Fore
163 380 m 0
 163 426 283 610 528 610 c 0
 677 610 802 545 802 402 c 0
 802 383 800 362 795 340 c 2
 779 265 l 2
 744 100 656 -7 415 -7 c 0
 261 -7 209 78 209 165 c 0
 209 287 311 420 425 420 c 0
 484 420 524 387 524 336 c 0
 524 271 458 208 383 208 c 0
 354 208 326 223 317 237 c 1
 311 223 306 206 306 186 c 0
 306 139 335 85 444 85 c 0
 531 85 637 94 672 258 c 2
 688 334 l 2
 691 350 693 364 693 378 c 0
 693 472 615 514 507 514 c 256
 429 514 317 492 259 382 c 256
 250 362 227 343 197 343 c 0
 174 343 163 361 163 380 c 0
414 355 m 256
 381 355 355 330 355 307 c 0
 355 287 373 273 397 273 c 256
 431 273 455 301 455 320 c 0
 455 339 438 355 414 355 c 256
EndSplineSet
EndChar
StartChar: uni0E2E
Encoding: 3630 3630 257
Width: 749
VWidth: 1473
Flags: W
HStem: -10 91<271.069 515.474> 153 66<281.51 369.486> 300 65<291.338 377.845> 383 86<303.66 504.758> 537 73<309.261 520.665>
VStem: 144 92<111.784 171.537> 165 114<431.809 511.427> 380 69<230.955 295.978> 648 108<356.087 430.61>
Fore
860 632 m 0xfb80
 860 611 813 538 740 493 c 1
 752 469 756 441 756 414 c 0
 756 382 750 350 746 328 c 2
 727 242 l 2
 685 40 537 -10 360 -10 c 0
 243 -10 144 30 144 136 c 0
 144 253 245 365 352 365 c 0
 410 365 449 329 449 280 c 0
 449 219 386 153 307 153 c 0
 279 153 252 163 243 177 c 1
 240 169 236 165 236 152 c 0xfd80
 236 120 267 81 381 81 c 0
 510 81 596 115 623 242 c 2
 640 318 l 2
 645 345 648 366 648 384 c 0
 648 404 645 421 641 440 c 1
 570 395 442 383 358 383 c 0
 305 383 165 389 165 459 c 0
 165 519 259 610 464 610 c 0
 521 610 641 597 688 560 c 1
 770 624 752 672 802 672 c 0
 826 672 860 657 860 632 c 0xfb80
279 487 m 0xfb80
 279 471 346 469 387 469 c 0
 451 469 549 477 592 512 c 1
 578 529 511 537 447 537 c 0
 340 537 279 512 279 487 c 0xfb80
338 300 m 256
 299 300 279 271 279 252 c 0
 279 233 297 219 321 219 c 256
 348 219 380 237 380 267 c 0
 380 287 363 300 338 300 c 256
EndSplineSet
EndChar
StartChar: uni0E2F
Encoding: 3631 3631 258
Width: 699
VWidth: 1473
Flags: W
HStem: 0 21G<562.5 584> 311 97<322.211 494.857> 533 72<247.368 341.28>
VStem: 156 78<449.513 518> 345 76<457.48 527.612>
Fore
421 510 m 0
 421 474 401 435 370 410 c 1
 379 409 388 408 397 408 c 0
 494 408 611 471 653 580 c 0
 657 589 667 607 700 607 c 0
 729 607 750 590 750 569 c 0
 750 559 745 548 742 544 c 1
 635 41 l 2
 628 8 593 0 575 0 c 256
 550 0 532 11 532 32 c 0
 532 35 532 38 533 41 c 2
 607 390 l 1
 538 341 456 311 364 311 c 0
 274 311 156 355 156 456 c 0
 156 546 239 605 315 605 c 0
 380 605 421 564 421 510 c 0
299 533 m 0
 270 533 234 513 234 479 c 0
 234 457 253 443 280 443 c 0
 322 443 345 474 345 496 c 0
 345 518 326 533 299 533 c 0
EndSplineSet
EndChar
StartChar: uni0E30
Encoding: 3632 3632 259
Width: 713
VWidth: 1473
Flags: W
HStem: 3 90<334 466.838> 202 72<196.407 288.145> 317 90<401 469.092> 516 72<263.554 355.274>
VStem: 104 77<116.995 185.483> 171 77<429.72 499.59> 292 77<139.266 196.835> 359 76<438.706 510.481>
Fore
754 545 m 0xf5
 754 506 654 317 398 317 c 0
 285 317 171 359 171 446 c 0
 171 525 251 588 328 588 c 0
 396 588 435 546 435 493 c 0
 435 464 423 431 401 407 c 1
 468 407 596 409 654 548 c 0
 663 569 680 579 703 579 c 0
 720 579 754 572 754 545 c 0xf5
688 231 m 0
 688 191 582 3 332 3 c 0
 219 3 104 45 104 133 c 0
 104 210 184 274 261 274 c 0
 328 274 369 232 369 180 c 0xfa
 369 167 368 135 334 93 c 1
 401 93 530 97 588 234 c 0
 596 256 616 266 640 266 c 0
 661 266 688 254 688 231 c 0
313 516 m 0
 284 516 248 494 248 461 c 0
 248 440 267 424 293 424 c 0
 336 424 359 456 359 479 c 0xf5
 359 501 340 516 313 516 c 0
246 202 m 0
 216 202 181 179 181 148 c 0
 181 127 201 112 227 112 c 0
 258 112 292 131 292 165 c 0xfa
 292 187 273 202 246 202 c 0
EndSplineSet
EndChar
StartChar: uni0E31
Encoding: 3633 3633 260
Width: 0
VWidth: 1473
Flags: W
HStem: 682 91<-83 4.07625> 881 72<-208.062 -115.381>
VStem: -300 77<795.845 865.227> -112 77<817.78 875.835>
Fore
-35 859 m 0
 -35 842 -41 788 -83 773 c 1
 -69 773 l 2
 -15 773 206 774 311 931 c 0
 320 944 331 953 349 953 c 0
 362 953 400 943 400 918 c 0
 400 848 220 682 -61 682 c 0
 -211 682 -300 733 -300 811 c 0
 -300 886 -223 953 -142 953 c 256
 -75 953 -35 911 -35 859 c 0
-158 881 m 0
 -188 881 -223 858 -223 827 c 0
 -223 805 -203 790 -177 790 c 0
 -143 790 -112 812 -112 844 c 0
 -112 866 -131 881 -158 881 c 0
EndSplineSet
Substitution2: "Single Substitution lookup 22 subtable" uni0E31.alt1
Substitution2: "Single Substitution lookup 22 subtable" uni0E31.alt1
EndChar
StartChar: uni0E32
Encoding: 3634 3634 261
Width: 634
VWidth: 1473
Flags: W
HStem: 0 21G<500 520.5> 502 102<327.84 503.476>
VStem: 536 108<366.521 383 383 396.454 396.454 398.422 397.438 467.938>
Fore
138 434 m 0
 138 472 274 604 442 604 c 0
 569 604 649 531 649 429 c 0
 649 414 647 399 644 383 c 2
 572 44 l 2
 565 9 531 0 510 0 c 256
 490 0 463 7 463 34 c 0
 463 37 463 40 464 43 c 2
 536 383 l 2
 538 391 539 400 539 410 c 0
 539 452 517 502 416 502 c 0
 335 502 267 450 234 411 c 0
 223 397 211 391 194 391 c 0
 168 391 138 410 138 434 c 0
EndSplineSet
EndChar
StartChar: uni0E33
Encoding: 3635 3635 262
Width: 612
VWidth: 1473
Flags: W
HStem: 0 21G<476 496.5> 502 102<304.489 480.217> 698 84<-44.8328 60.4929> 888 84<-45.3862 77.0944>
VStem: -152 86<791.356 866.744> 82 85<803.441 880.915> 513 107<366.521 383 383 396.288 396.288 396.954 396.621 468.888>
Fore
-152 807 m 0
 -152 902 -50 972 38 972 c 0
 128 972 167 915 167 860 c 0
 167 781 89 698 -21 698 c 0
 -100 698 -152 741 -152 807 c 0
114 434 m 0
 114 471 247 604 418 604 c 0
 541 604 625 537 625 431 c 0
 625 416 624 400 620 383 c 2
 548 44 l 2
 541 9 507 0 486 0 c 256
 466 0 440 7 440 33 c 0
 440 36 440 40 441 43 c 2
 513 383 l 2
 515 391 516 401 516 411 c 0
 516 453 493 502 394 502 c 0
 296 502 225 430 211 411 c 0
 195 392 179 391 170 391 c 0
 144 391 114 410 114 434 c 0
20 888 m 0
 -44 888 -66 850 -66 825 c 0
 -66 791 -29 782 -3 782 c 0
 46 782 82 807 82 849 c 0
 82 868 70 888 20 888 c 0
EndSplineSet
Substitution2: "Single Substitution lookup 22 subtable" uni0E33.alt1
Substitution2: "Single Substitution lookup 22 subtable" uni0E33.alt1
EndChar
StartChar: uni0E34
Encoding: 3636 3636 263
Width: 0
VWidth: 1473
Flags: W
HStem: 654 239<-168 42 -168 -168> 679 70<-345.715 -94.8738> 818 75<-247.901 -99.7733>
Fore
85 714 m 0x80
 85 685 52 654 42 654 c 0x80
 31 654 -58 679 -234 679 c 0x40
 -355 679 -479 662 -480 662 c 0
 -495 662 -520 670 -520 699 c 0
 -520 748 -476 743 -427 786 c 0
 -304 893 -207 893 -168 893 c 0
 -9 893 40 758 73 738 c 0
 83 731 85 721 85 714 c 0x80
-39 729 m 1
 -57 745 -71 818 -184 818 c 0
 -271 818 -333 759 -382 738 c 1
 -331 745 -279 749 -227 749 c 0x60
 -158 749 -98 742 -39 729 c 1
EndSplineSet
Substitution2: "Single Substitution lookup 22 subtable" uni0E34.alt1
Substitution2: "Single Substitution lookup 22 subtable" uni0E34.alt1
EndChar
StartChar: uni0E35
Encoding: 3637 3637 264
Width: 0
VWidth: 1473
Flags: W
HStem: 657 324<19.219 57.5242> 680 69<-345.057 -94.7587> 818 76<-254.264 -101.671>
Fore
84 717 m 0x80
 84 700 65 657 35 657 c 0x80
 30 657 -62 680 -242 680 c 0
 -371 680 -465 663 -479 663 c 0
 -492 663 -518 669 -518 700 c 0
 -518 750 -470 746 -426 786 c 0
 -310 891 -227 894 -172 894 c 0x60
 -123 894 -95 888 -23 840 c 1
 -1 944 l 2
 3 966 19 981 57 981 c 0
 90 981 100 971 100 954 c 0
 100 951 100 948 99 944 c 2
 58 751 l 1
 74 743 84 732 84 717 c 0x80
-41 729 m 1
 -57 747 -80 818 -190 818 c 0
 -278 818 -324 763 -381 738 c 1
 -330 745 -278 749 -227 749 c 0x60
 -158 749 -99 742 -41 729 c 1
EndSplineSet
Substitution2: "Single Substitution lookup 22 subtable" uni0E35.alt1
Substitution2: "Single Substitution lookup 22 subtable" uni0E35.alt1
EndChar
StartChar: uni0E36
Encoding: 3638 3638 265
Width: 0
VWidth: 1473
Flags: W
HStem: 656 306<23 58 35 54 54 54> 680 69<-346.263 -99.0879> 818 76<-255.703 -120.175> 897 65<-1.25981 72.216>
VStem: 74 68<828.53 895.079>
Fore
82 717 m 0x88
 82 699 58 656 35 656 c 0x88
 23 656 -59 680 -244 680 c 0
 -371 680 -467 663 -480 663 c 0
 -490 663 -519 668 -519 698 c 0
 -519 748 -472 748 -427 788 c 0
 -310 892 -230 894 -175 894 c 0x68
 -136 894 -92 884 -70 869 c 1
 -60 923 -10 962 54 962 c 256
 111 962 142 926 142 880 c 0
 142 830 107 777 52 763 c 1
 76 733 82 726 82 717 c 0x88
-44 729 m 1
 -60 747 -83 818 -193 818 c 0
 -281 818 -329 761 -382 738 c 1
 -331 745 -280 749 -228 749 c 0x68
 -161 749 -102 742 -44 729 c 1
41 897 m 256x38
 18 897 -10 878 -10 850 c 0
 -10 830 6 818 24 818 c 256
 49 818 74 841 74 866 c 0
 74 884 61 897 41 897 c 256x38
EndSplineSet
Substitution2: "Single Substitution lookup 22 subtable" uni0E36.alt1
Substitution2: "Single Substitution lookup 22 subtable" uni0E36.alt1
EndChar
StartChar: uni0E37
Encoding: 3639 3639 266
Width: 0
VWidth: 1473
Flags: W
HStem: 657 323<17.7964 60.9033 -76 30 64 64> 680 69<-346.658 -97.5476> 818 162<-201.229 -65> 818 76<-279.759 -140.281>
Fore
83 718 m 0x80
 83 711 72 657 30 657 c 0x80
 23 657 -61 680 -244 680 c 0
 -372 680 -468 663 -481 663 c 0
 -497 663 -520 670 -520 698 c 0
 -520 751 -473 747 -427 786 c 0
 -326 876 -259 894 -175 894 c 2
 -154 894 l 2x50
 -152 894 -146 893 -140 891 c 1
 -128 944 l 2
 -125 958 -110 980 -76 980 c 256
 -47 980 -38 964 -38 950 c 0
 -38 948 -39 946 -39 944 c 1
 -57 863 l 1
 -48 854 -21 841 -13 831 c 1
 11 944 l 2
 14 958 29 980 64 980 c 0
 96 980 103 964 103 951 c 0
 103 949 102 946 102 944 c 1
 61 751 l 1
 75 740 83 729 83 718 c 0x80
-44 729 m 1
 -60 747 -83 818 -193 818 c 0
 -281 818 -329 761 -382 738 c 1
 -331 745 -280 749 -228 749 c 0x60
 -161 749 -102 742 -44 729 c 1
EndSplineSet
Substitution2: "Single Substitution lookup 22 subtable" uni0E37.alt1
Substitution2: "Single Substitution lookup 22 subtable" uni0E37.alt1
EndChar
StartChar: uni0E38
Encoding: 3640 3640 267
Width: 0
VWidth: 1473
Flags: W
HStem: -296 72<-285.256 -243.043 -248 -238.085> -133 73<-274.988 -181.525>
VStem: -367 78<-218.974 -147.632> -178 76<-193.365 -138.495>
Fore
-367 -201 m 0
 -367 -134 -298 -60 -209 -60 c 0
 -141 -60 -102 -104 -102 -156 c 0
 -102 -163 -102 -171 -104 -178 c 2
 -149 -390 l 2
 -155 -419 -181 -435 -211 -435 c 0
 -231 -435 -258 -428 -258 -401 c 0
 -258 -397 -258 -394 -257 -390 c 2
 -237 -295 l 1
 -246 -295 -250 -296 -259 -296 c 0
 -323 -296 -367 -256 -367 -201 c 0
-224 -133 m 256
 -266 -133 -289 -164 -289 -188 c 0
 -289 -209 -271 -224 -244 -224 c 256
 -201 -224 -178 -192 -178 -169 c 0
 -178 -147 -197 -133 -224 -133 c 256
EndSplineSet
Substitution2: "Single Substitution lookup 21 subtable" a
Substitution2: "Single Substitution lookup 22 subtable" uni0E38.alt1
Substitution2: "Single Substitution lookup 21 subtable" a
Substitution2: "Single Substitution lookup 22 subtable" uni0E38.alt1
EndChar
StartChar: uni0E39
Encoding: 3641 3641 268
Width: 0
VWidth: 1473
Flags: W
HStem: -438 81<-333.242 -247.676> -295 73<-483.111 -439.419 -444.5 -434.337> -131 72<-472.999 -379.433>
VStem: -563 76<-216.745 -146.269> -445 111<-389.916 -331.734> -376 78<-190.115 -136.47>
Fore
-563 -199 m 0xf8
 -563 -134 -498 -59 -406 -59 c 0
 -355 -59 -298 -87 -298 -148 c 0xf4
 -298 -156 -299 -164 -301 -172 c 2
 -333 -323 l 2
 -334 -326 -334 -329 -334 -331 c 0
 -334 -349 -320 -357 -291 -357 c 0
 -258 -357 -248 -346 -242 -320 c 2
 -198 -113 l 2
 -191 -78 -154 -69 -134 -69 c 256
 -115 -69 -89 -76 -89 -103 c 0
 -89 -106 -89 -109 -90 -113 c 2
 -136 -331 l 2
 -150 -395 -191 -438 -313 -438 c 0
 -362 -438 -445 -425 -445 -359 c 0
 -445 -353 -445 -347 -443 -340 c 2
 -433 -293 l 1
 -442 -293 -447 -295 -456 -295 c 0
 -523 -295 -563 -253 -563 -199 c 0xf8
-421 -131 m 256
 -464 -131 -487 -163 -487 -185 c 0
 -487 -208 -468 -222 -440 -222 c 256
 -410 -222 -376 -202 -376 -168 c 0
 -376 -146 -395 -131 -421 -131 c 256
EndSplineSet
Substitution2: "Single Substitution lookup 21 subtable" b
Substitution2: "Single Substitution lookup 22 subtable" uni0E39.alt1
Substitution2: "Single Substitution lookup 21 subtable" b
Substitution2: "Single Substitution lookup 22 subtable" uni0E39.alt1
EndChar
StartChar: uni0E3A
Encoding: 3642 3642 269
Width: 0
VWidth: 1473
Flags: W
HStem: -234 162<-230.812 -129.806>
VStem: -273 190<-190.066 -111.737>
Fore
-273 -166 m 0
 -273 -123 -230 -72 -161 -72 c 0
 -107 -72 -83 -105 -83 -136 c 0
 -83 -184 -135 -234 -196 -234 c 0
 -250 -234 -273 -200 -273 -166 c 0
EndSplineSet
Substitution2: "Single Substitution lookup 21 subtable" c
Substitution2: "Single Substitution lookup 22 subtable" uni0E3A.alt1
Substitution2: "Single Substitution lookup 21 subtable" c
Substitution2: "Single Substitution lookup 22 subtable" uni0E3A.alt1
EndChar
StartChar: uni0E3F
Encoding: 3647 3647 270
Width: 748
VWidth: 1473
Flags: W
HStem: 0 105<258.951 311 427 546.517> 302 109<318.086 375 492 583.082> 611 111<371.494 440 558 624.918> 836 20G<527 555>
VStem: 103 112<144.234 219.245 214.134 224.356 224.356 231 236 247.463> 612 113<163.224 277.011> 675 112<462.06 569.251>
Fore
787 541 m 0xfa
 787 496 771 409 671 358 c 1
 715 331 725 286 725 251 c 0xfc
 725 124 609 0 435 0 c 2
 405 0 l 1
 392 -62 l 2
 386 -90 373 -118 334 -118 c 0
 310 -118 295 -108 295 -82 c 0
 295 -77 296 -70 298 -62 c 2
 311 0 l 1
 194 3 103 60 103 176 c 0
 103 193 105 212 109 231 c 2
 163 485 l 2
 196 641 331 707 464 720 c 1
 481 798 l 2
 491 845 513 856 541 856 c 0
 569 856 577 839 577 819 c 0
 577 812 576 805 575 798 c 2
 558 722 l 1
 663 712 787 662 787 541 c 0xfa
301 342 m 0
 301 363 310 411 376 411 c 2
 398 411 l 1
 440 608 l 1
 367 600 290 568 271 482 c 2
 219 236 l 2
 216 224 215 213 215 202 c 0
 215 138 265 113 333 105 c 1
 375 302 l 1
 353 302 l 2
 313 302 301 320 301 342 c 0
457 105 m 2
 528 105 612 145 612 228 c 0
 612 277 572 302 491 302 c 2
 469 302 l 1
 427 105 l 1
 457 105 l 2
514 411 m 2
 648 411 675 483 675 522 c 0xfa
 675 560 645 600 535 611 c 1
 492 411 l 1
 514 411 l 2
EndSplineSet
EndChar
StartChar: uni0E40
Encoding: 3648 3648 271
Width: 402
VWidth: 1473
Flags: W
HStem: -7 72<225.585 319.219> 156 72<266.687 329.385> 577 20G<278.5 301.5>
VStem: 133 89<69.9189 134.817> 333 78<80.2328 150.878>
Fore
411 133 m 0
 411 63 341 -7 254 -7 c 0
 201 -7 133 15 133 94 c 0
 133 105 134 117 137 131 c 2
 226 552 l 2
 234 588 266 597 291 597 c 256
 312 597 335 590 335 564 c 0
 335 560 335 556 334 552 c 2
 265 224 l 1
 276 227 289 228 303 228 c 0
 367 228 411 188 411 133 c 0
288 156 m 256
 254 156 222 134 222 102 c 0
 222 79 241 65 269 65 c 256
 299 65 333 86 333 120 c 0
 333 142 314 156 288 156 c 256
EndSplineSet
EndChar
StartChar: uni0E41
Encoding: 3649 3649 272
Width: 749
VWidth: 1473
Flags: W
HStem: -7 72<225.163 320.252 573.312 666.688> 156 72<266.29 329.003 612.506 676.409> 577 20G<277 300.5 625.5 647.5>
VStem: 133 88<71.7324 134.245> 333 77<80.1115 150.612> 479 90<69.7117 134.602> 680 77<79.3625 151.176>
Fore
757 134 m 0
 757 66 691 -7 600 -7 c 0
 547 -7 479 15 479 94 c 0
 479 105 480 117 483 131 c 2
 572 552 l 2
 580 588 614 597 637 597 c 256
 658 597 681 590 681 564 c 0
 681 560 681 556 680 552 c 2
 611 224 l 1
 622 227 635 228 649 228 c 0
 716 228 757 186 757 134 c 0
410 133 m 0
 410 54 329 -7 254 -7 c 0
 201 -7 133 14 133 94 c 0
 133 105 134 117 137 131 c 2
 226 552 l 2
 234 588 265 597 289 597 c 0
 312 597 335 590 335 564 c 0
 335 560 335 556 334 552 c 2
 265 224 l 1
 276 227 289 228 303 228 c 0
 366 228 410 187 410 133 c 0
634 156 m 256
 586 156 569 121 569 102 c 0
 569 79 587 65 615 65 c 256
 647 65 680 85 680 120 c 0
 680 142 662 156 634 156 c 256
288 156 m 0
 256 156 221 135 221 102 c 0
 221 80 241 65 269 65 c 0
 298 65 333 85 333 119 c 0
 333 141 314 156 288 156 c 0
EndSplineSet
EndChar
StartChar: uni0E42
Encoding: 3650 3650 273
Width: 441
VWidth: 1473
Flags: W
HStem: -7 72<251.321 344.219> 156 72<295.085 354.385> 848 86<216.739 251.069 251.069 305.449> 1050 90<296.969 483.494>
VStem: 116 99<902.444 995.947> 163 84<69.8121 134.678> 358 78<80.2328 150.878>
Fore
436 133 m 0xfa
 436 63 366 -7 279 -7 c 0
 191 -7 163 36 163 93 c 0xf6
 163 110 165 128 169 146 c 2
 305 787 l 2
 307 796 308 804 308 810 c 0
 308 837 293 848 269 848 c 0
 254 848 251 845 233 845 c 0
 201 845 116 859 116 937 c 0
 116 1057 275 1140 438 1140 c 0
 606 1140 670 1056 687 1020 c 0
 700 993 706 983 706 972 c 0
 706 940 664 918 641 918 c 0
 585 918 616 987 517 1030 c 0
 480 1047 420 1050 409 1050 c 0
 309 1050 215 1004 215 960 c 0
 215 949 220 934 245 934 c 2
 301 934 l 2
 397 934 423 882 423 842 c 0
 423 835 422 829 421 824 c 2
 294 224 l 1
 304 227 315 228 328 228 c 0
 392 228 436 188 436 133 c 0xfa
313 156 m 256
 279 156 247 134 247 102 c 0
 247 79 266 65 294 65 c 256
 324 65 358 86 358 120 c 0
 358 142 339 156 313 156 c 256
EndSplineSet
EndChar
StartChar: uni0E43
Encoding: 3651 3651 274
Width: 441
VWidth: 1473
Flags: W
HStem: -7 72<251.175 344.219> 156 72<295.085 354.385> 806 74<226.846 322.122> 969 56<287.141 357.936> 1044 87<350.18 519.166>
VStem: 142 81<886.181 951.915> 162 85<70.2852 134.815> 335 77<894.734 963.998> 358 78<80.2328 150.878> 566 91<892.581 1002.28>
Fore
412 942 m 0xfb40
 412 881 349 811 253 806 c 0
 211 806 142 833 142 907 c 0
 142 1041 289 1131 456 1131 c 0
 560 1131 657 1069 657 963 c 0
 657 880 604 810 518 757 c 0
 473 733 396 708 389 672 c 2
 294 224 l 1
 304 227 315 228 328 228 c 0
 392 228 436 188 436 133 c 0xfcc0
 436 63 366 -7 279 -7 c 0
 190 -7 162 37 162 94 c 0
 162 111 164 128 168 146 c 2
 282 682 l 2
 310 812 566 820 566 950 c 0
 566 1005 511 1044 425 1044 c 0
 382 1044 346 1036 315 1024 c 1
 321 1025 327 1025 332 1025 c 0
 384 1025 412 981 412 942 c 0xfb40
288 969 m 0
 259 969 223 948 223 916 c 0
 223 895 243 880 269 880 c 0
 300 880 335 899 335 933 c 0xfd40
 335 955 315 969 288 969 c 0
313 156 m 256
 279 156 247 134 247 102 c 0
 247 79 266 65 294 65 c 256
 324 65 358 86 358 120 c 0xfac0
 358 142 339 156 313 156 c 256
EndSplineSet
EndChar
StartChar: uni0E44
Encoding: 3652 3652 275
Width: 441
VWidth: 1473
Flags: W
HStem: -9 72<251.429 343.028> 155 72<295.1 353.283> 841 21G<262.5 300> 1005 82<409.853 542.82> 1028 75<83.625 181.765>
VStem: 161 85<68.9668 132.316> 358 77<77.9173 149.518> 566 92<884.972 980.468>
Fore
73 1051 m 0xef
 73 1064 84 1103 125 1103 c 0xef
 159 1103 287 1094 309 987 c 1
 351 1070 447 1087 494 1087 c 0
 595 1087 658 1031 658 938 c 0
 658 776 508 779 408 690 c 0
 394 678 385 660 380 635 c 2
 292 222 l 1
 302 225 313 227 326 227 c 0
 391 227 435 187 435 132 c 0
 435 64 366 -9 276 -9 c 0
 189 -9 161 34 161 90 c 0
 161 107 164 125 168 144 c 2
 274 644 l 2
 297 752 386 786 411 800 c 2
 528 866 l 2
 545 876 556 882 561 884 c 1
 564 897 566 909 566 921 c 0
 566 972 535 1005 486 1005 c 0xf7
 422 1005 347 957 332 884 c 0
 328 866 323 841 277 841 c 0
 248 841 243 851 243 868 c 0
 243 877 245 887 245 899 c 0
 245 982 174 1028 103 1028 c 0
 83 1028 73 1035 73 1051 c 0xef
311 155 m 0
 273 155 246 125 246 101 c 0
 246 79 265 63 291 63 c 0
 334 63 358 94 358 118 c 0
 358 140 338 155 311 155 c 0
EndSplineSet
EndChar
StartChar: uni0E45
Encoding: 3653 3653 276
Width: 634
VWidth: 1473
Flags: W
HStem: 494 103<320.802 498.019>
VStem: 534 111<359.516 376 376 387.954 387.954 391.695 389.825 458.022>
Fore
136 429 m 0
 136 468 275 597 439 597 c 0
 561 597 645 529 645 423 c 0
 645 408 643 392 640 376 c 2
 516 -208 l 2
 508 -243 476 -252 453 -252 c 256
 433 -252 407 -245 407 -219 c 0
 407 -216 407 -213 408 -209 c 2
 532 376 l 2
 533 383 534 391 534 400 c 0
 534 443 510 494 410 494 c 0
 346 494 276 459 230 404 c 0
 219 390 207 384 190 384 c 0
 157 384 136 409 136 429 c 0
EndSplineSet
EndChar
StartChar: uni0E46
Encoding: 3654 3654 277
Width: 729
VWidth: 1473
Flags: W
HStem: 339 72<236.227 328.156> 502 97<255.494 389.312 541.292 634.5>
VStem: 153 79<415.846 486.867> 343 70<425.72 492.479> 635 107<397.474 414 414 428.03 428.03 452.025 440.028 500.999>
Fore
153 438 m 0
 153 501 219 599 364 599 c 0
 434 599 483 579 504 541 c 1
 527 578 579 596 626 596 c 0
 668 596 749 578 749 473 c 0
 749 455 747 436 742 414 c 2
 609 -214 l 2
 601 -249 568 -258 545 -258 c 256
 519 -258 501 -248 501 -226 c 0
 501 -222 501 -218 502 -214 c 2
 635 414 l 2
 637 424 640 440 640 456 c 0
 640 481 632 506 596 506 c 0
 575 506 548 490 539 483 c 1
 540 469 548 450 548 432 c 0
 548 400 518 388 497 388 c 0
 451 388 472 428 440 486 c 0
 429 504 413 515 391 517 c 1
 409 509 413 487 413 470 c 0
 413 399 347 339 262 339 c 0
 192 339 153 385 153 438 c 0
297 502 m 256
 255 502 232 471 232 447 c 0
 232 426 250 411 277 411 c 256
 320 411 343 443 343 466 c 0
 343 488 324 502 297 502 c 256
EndSplineSet
EndChar
StartChar: uni0E47
Encoding: 3655 3655 278
Width: 0
VWidth: 1473
Flags: W
HStem: 661 58<-56.2937 28.5453> 796 57<-49.2541 35.5911>
VStem: -403 79<745.048 817.604> 38 60<729.635 791.772>
Fore
98 775 m 0
 98 721 45 661 -44 661 c 0
 -106 661 -199 673 -227 715 c 1
 -274 663 l 1
 -297 663 l 2
 -365 663 -403 713 -403 772 c 0
 -403 846 -337 934 -192 958 c 0
 -24 984 84 1019 102 1034 c 1
 138 1054 135 1055 145 1055 c 0
 161 1055 176 1043 176 1024 c 0
 176 965 56 935 -13 918 c 0
 -178 876 -232 890 -288 846 c 0
 -319 821 -324 797 -324 784 c 0
 -324 757 -303 743 -289 738 c 1
 -211 824 l 2
 -202 833 -187 845 -173 845 c 0
 -164 845 -145 834 -145 817 c 0
 -145 799 -175 771 -175 770 c 1
 -166 752 -131 739 -112 732 c 1
 -130 759 -87 853 10 853 c 0
 62 853 98 819 98 775 c 0
-2 796 m 0
 -27 796 -58 779 -58 749 c 0
 -58 731 -42 719 -18 719 c 0
 14 719 38 743 38 764 c 0
 38 782 20 796 -2 796 c 0
EndSplineSet
Substitution2: "Single Substitution lookup 22 subtable" uni0E47.alt1
Substitution2: "Single Substitution lookup 22 subtable" uni0E47.alt1
EndChar
StartChar: uni0E48
Encoding: 3656 3656 279
Width: 0
VWidth: 1473
Flags: W
HStem: 1074 243<69.0716 120.302>
VStem: 25 139<1105 1285 1105 1105>
Fore
130 1118 m 2
 123 1089 103 1074 69 1074 c 256
 40 1074 25 1084 25 1105 c 0
 25 1109 26 1113 27 1118 c 2
 60 1273 l 2
 66 1302 86 1317 121 1317 c 256
 150 1317 164 1306 164 1285 c 0
 164 1281 164 1277 163 1273 c 2
 130 1118 l 2
EndSplineSet
Substitution2: "Single Substitution lookup 22 subtable" uni0E48.alt2
Substitution2: "Single Substitution lookup 22 subtable" uni0E48.alt2
EndChar
